<svg width="64" height="64" viewBox="0 0 64 64" fill="none" xmlns="http://www.w3.org/2000/svg">
<circle cx="32" cy="32" r="32" fill="#B98B44"/>
<path d="M41.9063 24.6353V44.6672V45.2453H41.3282H21.6719H21.0938V44.6672V24.6353H22.25V44.0891H40.75V24.6353H41.9063Z" fill="white"/>
<path d="M18.0413 26.2782L31.1884 17.8472L31.5001 17.6474L31.8117 17.8472L44.9589 26.2782L44.3356 27.2492L31.5001 19.0182L18.6646 27.2492L18.0413 26.2782Z" fill="white"/>
<path d="M18.0413 38.9119L31.1884 30.4809L31.5001 30.2811L31.8117 30.4809L44.9589 38.9119L44.3356 39.8829L31.5001 31.6518L18.6646 39.8829L18.0413 38.9119Z" fill="white"/>
<path d="M24.8516 25.1406V27.4531H23.6953V25.1406H24.8516Z" fill="white"/>
<path d="M27.7422 25.1406V27.4531H26.5859V25.1406H27.7422Z" fill="white"/>
<path d="M30.6328 25.1406V27.4531H29.4766V25.1406H30.6328Z" fill="white"/>
<path d="M33.5235 25.1406V27.4531H32.3672V25.1406H33.5235Z" fill="white"/>
<path d="M36.4141 25.1406V27.4531H35.2578V25.1406H36.4141Z" fill="white"/>
<path d="M39.3047 25.1406V27.4531H38.1484V25.1406H39.3047Z" fill="white"/>
<path d="M24.8516 28.6094V30.9218H23.6953V28.6094H24.8516Z" fill="white"/>
<path d="M27.7422 28.6094V30.9218H26.5859V28.6094H27.7422Z" fill="white"/>
<path d="M36.4141 28.6094V30.9218H35.2578V28.6094H36.4141Z" fill="white"/>
<path d="M39.3047 28.6094V30.9218H38.1484V28.6094H39.3047Z" fill="white"/>
<path d="M29.3892 37.8594H33.6109H34.189V38.4375V44.6673V45.2454H33.6109H29.3892H28.811V44.6673V38.4375V37.8594H29.3892ZM33.0327 39.0157H29.9673V44.0891H33.0327V39.0157Z" fill="white"/>
<path d="M36.7032 38.4375V40.75H35.5469V38.4375H36.7032Z" fill="white"/>
<path d="M39.3047 38.4375V40.75H38.1484V38.4375H39.3047Z" fill="white"/>
<path d="M24.5625 38.4375V40.75H23.4062V38.4375H24.5625Z" fill="white"/>
<path d="M27.164 38.4375V40.75H26.0078V38.4375H27.164Z" fill="white"/>
</svg>
