<svg width="64" height="64" viewBox="0 0 64 64" fill="none" xmlns="http://www.w3.org/2000/svg">
<circle cx="32" cy="32" r="32" fill="#B98B44"/>
<path d="M29.1658 22.7997H31.4323C31.5826 22.7997 31.7267 22.74 31.833 22.6338C31.9393 22.5275 31.999 22.3834 31.999 22.2331V18.8332C31.999 18.683 31.9393 18.5388 31.833 18.4326C31.7267 18.3263 31.5826 18.2666 31.4323 18.2666H29.1658C29.0155 18.2666 28.8714 18.3263 28.7651 18.4326C28.6588 18.5388 28.5991 18.683 28.5991 18.8332V22.2331C28.5991 22.3834 28.6588 22.5275 28.7651 22.6338C28.8714 22.74 29.0155 22.7997 29.1658 22.7997ZM29.7324 19.3999H30.8657V21.6665H29.7324V19.3999Z" fill="white"/>
<path d="M33.699 22.7997H35.9655C36.1158 22.7997 36.26 22.74 36.3662 22.6338C36.4725 22.5275 36.5322 22.3834 36.5322 22.2331V18.8332C36.5322 18.683 36.4725 18.5388 36.3662 18.4326C36.26 18.3263 36.1158 18.2666 35.9655 18.2666H33.699C33.5487 18.2666 33.4046 18.3263 33.2983 18.4326C33.192 18.5388 33.1323 18.683 33.1323 18.8332V22.2331C33.1323 22.3834 33.192 22.5275 33.2983 22.6338C33.4046 22.74 33.5487 22.7997 33.699 22.7997ZM34.2656 19.3999H35.3989V21.6665H34.2656V19.3999Z" fill="white"/>
<path d="M38.2319 22.7997H40.4985C40.6488 22.7997 40.7929 22.74 40.8992 22.6338C41.0054 22.5275 41.0651 22.3834 41.0651 22.2331V18.8332C41.0651 18.683 41.0054 18.5388 40.8992 18.4326C40.7929 18.3263 40.6488 18.2666 40.4985 18.2666H38.2319C38.0816 18.2666 37.9375 18.3263 37.8312 18.4326C37.725 18.5388 37.6653 18.683 37.6653 18.8332V22.2331C37.6653 22.3834 37.725 22.5275 37.8312 22.6338C37.9375 22.74 38.0816 22.7997 38.2319 22.7997ZM38.7986 19.3999H39.9319V21.6665H38.7986V19.3999Z" fill="white"/>
<path d="M29.1658 28.4661H31.4323C31.5826 28.4661 31.7267 28.4064 31.833 28.3002C31.9393 28.1939 31.999 28.0498 31.999 27.8995V24.4996C31.999 24.3493 31.9393 24.2052 31.833 24.0989C31.7267 23.9927 31.5826 23.933 31.4323 23.933H29.1658C29.0155 23.933 28.8714 23.9927 28.7651 24.0989C28.6588 24.2052 28.5991 24.3493 28.5991 24.4996V27.8995C28.5991 28.0498 28.6588 28.1939 28.7651 28.3002C28.8714 28.4064 29.0155 28.4661 29.1658 28.4661ZM29.7324 25.0663H30.8657V27.3328H29.7324V25.0663Z" fill="white"/>
<path d="M33.699 28.4661H35.9655C36.1158 28.4661 36.26 28.4064 36.3662 28.3002C36.4725 28.1939 36.5322 28.0498 36.5322 27.8995V24.4996C36.5322 24.3493 36.4725 24.2052 36.3662 24.0989C36.26 23.9927 36.1158 23.933 35.9655 23.933H33.699C33.5487 23.933 33.4046 23.9927 33.2983 24.0989C33.192 24.2052 33.1323 24.3493 33.1323 24.4996V27.8995C33.1323 28.0498 33.192 28.1939 33.2983 28.3002C33.4046 28.4064 33.5487 28.4661 33.699 28.4661ZM34.2656 25.0663H35.3989V27.3328H34.2656V25.0663Z" fill="white"/>
<path d="M38.2319 28.4661H40.4985C40.6488 28.4661 40.7929 28.4064 40.8992 28.3002C41.0054 28.1939 41.0651 28.0498 41.0651 27.8995V24.4996C41.0651 24.3493 41.0054 24.2052 40.8992 24.0989C40.7929 23.9927 40.6488 23.933 40.4985 23.933H38.2319C38.0816 23.933 37.9375 23.9927 37.8312 24.0989C37.725 24.2052 37.6653 24.3493 37.6653 24.4996V27.8995C37.6653 28.0498 37.725 28.1939 37.8312 28.3002C37.9375 28.4064 38.0816 28.4661 38.2319 28.4661ZM38.7986 25.0663H39.9319V27.3328H38.7986V25.0663Z" fill="white"/>
<path d="M24.6326 22.7997H26.8991C27.0494 22.7997 27.1935 22.74 27.2998 22.6338C27.4061 22.5275 27.4658 22.3834 27.4658 22.2331V18.8332C27.4658 18.683 27.4061 18.5388 27.2998 18.4326C27.1935 18.3263 27.0494 18.2666 26.8991 18.2666H24.6326C24.4823 18.2666 24.3381 18.3263 24.2319 18.4326C24.1256 18.5388 24.0659 18.683 24.0659 18.8332V22.2331C24.0659 22.3834 24.1256 22.5275 24.2319 22.6338C24.3381 22.74 24.4823 22.7997 24.6326 22.7997ZM25.1992 19.3999H26.3325V21.6665H25.1992V19.3999Z" fill="white"/>
<path d="M24.6326 28.4661H26.8991C27.0494 28.4661 27.1935 28.4064 27.2998 28.3002C27.4061 28.1939 27.4658 28.0498 27.4658 27.8995V24.4996C27.4658 24.3493 27.4061 24.2052 27.2998 24.0989C27.1935 23.9927 27.0494 23.933 26.8991 23.933H24.6326C24.4823 23.933 24.3381 23.9927 24.2319 24.0989C24.1256 24.2052 24.0659 24.3493 24.0659 24.4996V27.8995C24.0659 28.0498 24.1256 28.1939 24.2319 28.3002C24.3381 28.4064 24.4823 28.4661 24.6326 28.4661ZM25.1992 25.0663H26.3325V27.3328H25.1992V25.0663Z" fill="white"/>
<path d="M29.1658 34.1326H31.4323C31.5826 34.1326 31.7267 34.0729 31.833 33.9666C31.9393 33.8603 31.999 33.7162 31.999 33.5659V30.1661C31.999 30.0158 31.9393 29.8717 31.833 29.7654C31.7267 29.6591 31.5826 29.5994 31.4323 29.5994H29.1658C29.0155 29.5994 28.8714 29.6591 28.7651 29.7654C28.6588 29.8717 28.5991 30.0158 28.5991 30.1661V33.5659C28.5991 33.7162 28.6588 33.8603 28.7651 33.9666C28.8714 34.0729 29.0155 34.1326 29.1658 34.1326ZM29.7324 30.7327H30.8657V32.9993H29.7324V30.7327Z" fill="white"/>
<path d="M24.6326 34.1326H26.8991C27.0494 34.1326 27.1935 34.0729 27.2998 33.9666C27.4061 33.8603 27.4658 33.7162 27.4658 33.5659V30.1661C27.4658 30.0158 27.4061 29.8717 27.2998 29.7654C27.1935 29.6591 27.0494 29.5994 26.8991 29.5994H24.6326C24.4823 29.5994 24.3381 29.6591 24.2319 29.7654C24.1256 29.8717 24.0659 30.0158 24.0659 30.1661V33.5659C24.0659 33.7162 24.1256 33.8603 24.2319 33.9666C24.3381 34.0729 24.4823 34.1326 24.6326 34.1326ZM25.1992 30.7327H26.3325V32.9993H25.1992V30.7327Z" fill="white"/>
<path d="M33.699 34.1326H35.9655C36.1158 34.1326 36.26 34.0729 36.3662 33.9666C36.4725 33.8603 36.5322 33.7162 36.5322 33.5659V30.1661C36.5322 30.0158 36.4725 29.8717 36.3662 29.7654C36.26 29.6591 36.1158 29.5994 35.9655 29.5994H33.699C33.5487 29.5994 33.4046 29.6591 33.2983 29.7654C33.192 29.8717 33.1323 30.0158 33.1323 30.1661V33.5659C33.1323 33.7162 33.192 33.8603 33.2983 33.9666C33.4046 34.0729 33.5487 34.1326 33.699 34.1326ZM34.2656 30.7327H35.3989V32.9993H34.2656V30.7327Z" fill="white"/>
<path d="M38.2319 34.1326H40.4985C40.6488 34.1326 40.7929 34.0729 40.8992 33.9666C41.0054 33.8603 41.0651 33.7162 41.0651 33.5659V30.1661C41.0651 30.0158 41.0054 29.8717 40.8992 29.7654C40.7929 29.6591 40.6488 29.5994 40.4985 29.5994H38.2319C38.0816 29.5994 37.9375 29.6591 37.8312 29.7654C37.725 29.8717 37.6653 30.0158 37.6653 30.1661V33.5659C37.6653 33.7162 37.725 33.8603 37.8312 33.9666C37.9375 34.0729 38.0816 34.1326 38.2319 34.1326ZM38.7986 30.7327H39.9319V32.9993H38.7986V30.7327Z" fill="white"/>
<path d="M29.1658 39.799H31.4323C31.5826 39.799 31.7267 39.7393 31.833 39.633C31.9393 39.5268 31.999 39.3827 31.999 39.2324V35.8325C31.999 35.6822 31.9393 35.5381 31.833 35.4318C31.7267 35.3256 31.5826 35.2659 31.4323 35.2659H29.1658C29.0155 35.2659 28.8714 35.3256 28.7651 35.4318C28.6588 35.5381 28.5991 35.6822 28.5991 35.8325V39.2324C28.5991 39.3827 28.6588 39.5268 28.7651 39.633C28.8714 39.7393 29.0155 39.799 29.1658 39.799ZM29.7324 36.3992H30.8657V38.6657H29.7324V36.3992Z" fill="white"/>
<path d="M24.6326 39.799H26.8991C27.0494 39.799 27.1935 39.7393 27.2998 39.633C27.4061 39.5268 27.4658 39.3827 27.4658 39.2324V35.8325C27.4658 35.6822 27.4061 35.5381 27.2998 35.4318C27.1935 35.3256 27.0494 35.2659 26.8991 35.2659H24.6326C24.4823 35.2659 24.3381 35.3256 24.2319 35.4318C24.1256 35.5381 24.0659 35.6822 24.0659 35.8325V39.2324C24.0659 39.3827 24.1256 39.5268 24.2319 39.633C24.3381 39.7393 24.4823 39.799 24.6326 39.799ZM25.1992 36.3992H26.3325V38.6657H25.1992V36.3992Z" fill="white"/>
<path d="M33.699 39.799H35.9655C36.1158 39.799 36.26 39.7393 36.3662 39.633C36.4725 39.5268 36.5322 39.3827 36.5322 39.2324V35.8325C36.5322 35.6822 36.4725 35.5381 36.3662 35.4318C36.26 35.3256 36.1158 35.2659 35.9655 35.2659H33.699C33.5487 35.2659 33.4046 35.3256 33.2983 35.4318C33.192 35.5381 33.1323 35.6822 33.1323 35.8325V39.2324C33.1323 39.3827 33.192 39.5268 33.2983 39.633C33.4046 39.7393 33.5487 39.799 33.699 39.799ZM34.2656 36.3992H35.3989V38.6657H34.2656V36.3992Z" fill="white"/>
<path d="M38.2319 39.799H40.4985C40.6488 39.799 40.7929 39.7393 40.8992 39.633C41.0054 39.5268 41.0651 39.3827 41.0651 39.2324V35.8325C41.0651 35.6822 41.0054 35.5381 40.8992 35.4318C40.7929 35.3256 40.6488 35.2659 40.4985 35.2659H38.2319C38.0816 35.2659 37.9375 35.3256 37.8312 35.4318C37.725 35.5381 37.6653 35.6822 37.6653 35.8325V39.2324C37.6653 39.3827 37.725 39.5268 37.8312 39.633C37.9375 39.7393 38.0816 39.799 38.2319 39.799ZM38.7986 36.3992H39.9319V38.6657H38.7986V36.3992Z" fill="white"/>
<path d="M48.4316 36.3992H43.3318V16.5666C43.3318 16.4164 43.2721 16.2722 43.1658 16.166C43.0596 16.0597 42.9154 16 42.7652 16H22.366C22.2157 16 22.0716 16.0597 21.9653 16.166C21.8591 16.2722 21.7994 16.4164 21.7994 16.5666V36.9001C21.3229 36.5936 20.7727 36.4212 20.2065 36.401C19.6403 36.3809 19.0792 36.5137 18.5822 36.7855C18.0851 37.0573 17.6705 37.458 17.382 37.9456C17.0935 38.4331 16.9417 38.9894 16.9427 39.5559C16.9433 39.8707 16.992 40.1835 17.0872 40.4835C16.3882 40.734 15.8003 41.2234 15.427 41.8652C15.0538 42.507 14.9192 43.26 15.0471 43.9913C15.175 44.7227 15.5571 45.3853 16.126 45.8624C16.6948 46.3395 17.414 46.6003 18.1564 46.5987C18.6347 46.5958 19.1058 46.4822 19.5328 46.2667V48.2987C19.5328 48.4489 19.5925 48.5931 19.6987 48.6993C19.805 48.8056 19.9491 48.8653 20.0994 48.8653C20.2497 48.8653 20.3938 48.8056 20.5001 48.6993C20.6064 48.5931 20.6661 48.4489 20.6661 48.2987V46.2667C21.0205 46.4417 21.4052 46.5473 21.7994 46.5778V48.2987C21.7994 48.4489 21.8591 48.5931 21.9653 48.6993C22.0716 48.8056 22.2157 48.8653 22.366 48.8653H47.2983C47.4486 48.8653 47.5927 48.8056 47.699 48.6993C47.8052 48.5931 47.8649 48.4489 47.8649 48.2987V39.799H48.4316C48.5819 39.799 48.726 39.7393 48.8323 39.6331C48.9385 39.5268 48.9982 39.3827 48.9982 39.2324V36.9658C48.9982 36.8155 48.9385 36.6714 48.8323 36.5651C48.726 36.4589 48.5819 36.3992 48.4316 36.3992ZM20.0994 43.1989C19.9491 43.1989 19.805 43.2586 19.6987 43.3648C19.5925 43.4711 19.5328 43.6152 19.5328 43.7655V44.8988C19.1654 45.2599 18.6715 45.4632 18.1564 45.4654C17.6384 45.4675 17.1395 45.2701 16.7631 44.9142C16.3867 44.5583 16.1617 44.0713 16.1347 43.554C16.1076 43.0367 16.2807 42.5289 16.6179 42.1357C16.9552 41.7426 17.4308 41.4943 17.9462 41.4423C18.0407 41.4322 18.1311 41.3984 18.2092 41.3442C18.2872 41.2899 18.3504 41.2169 18.3928 41.1319C18.4353 41.0468 18.4556 40.9525 18.452 40.8575C18.4484 40.7625 18.421 40.67 18.3723 40.5884C18.1817 40.2776 18.0802 39.9205 18.0788 39.5559C18.0788 39.0193 18.292 38.5046 18.6714 38.1251C19.0509 37.7456 19.5656 37.5324 20.1023 37.5324C20.6389 37.5324 21.1536 37.7456 21.5331 38.1251C21.9126 38.5046 22.1257 39.0193 22.1257 39.5559C22.1243 39.9205 22.0228 40.2776 21.8322 40.5884C21.7835 40.67 21.7561 40.7625 21.7525 40.8575C21.7489 40.9525 21.7693 41.0468 21.8117 41.1319C21.8541 41.2169 21.9173 41.2899 21.9953 41.3442C22.0734 41.3984 22.1638 41.4322 22.2583 41.4423C22.774 41.4943 23.2498 41.7428 23.5871 42.1362C23.9244 42.5297 24.0973 43.0379 24.0699 43.5554C24.0425 44.073 23.8169 44.5601 23.4399 44.9157C23.063 45.2714 22.5635 45.4682 22.0453 45.4654C21.5292 45.4639 21.0342 45.2606 20.6661 44.8988V43.7655C20.6661 43.6152 20.6064 43.4711 20.5001 43.3648C20.3938 43.2586 20.2497 43.1989 20.0994 43.1989ZM35.3988 47.732H29.7324V42.0656H35.3988V47.732ZM42.1985 47.732H36.5321V41.4989C36.5321 41.3487 36.4724 41.2045 36.3661 41.0983C36.2598 40.992 36.1157 40.9323 35.9654 40.9323H29.1657C29.0154 40.9323 28.8713 40.992 28.765 41.0983C28.6588 41.2045 28.5991 41.3487 28.5991 41.4989V47.732H22.9326V46.469C23.571 46.2828 24.134 45.8992 24.5409 45.3732C24.9478 44.8473 25.1776 44.206 25.1975 43.5413C25.2174 42.8767 25.0263 42.2228 24.6516 41.6734C24.2768 41.1241 23.7378 40.7076 23.1117 40.4835C23.2069 40.1835 23.2556 39.8707 23.2562 39.5559C23.2557 39.0762 23.145 38.6029 22.9326 38.1728V17.1333H42.1985V47.732ZM46.7317 47.732H43.3318V39.799H46.7317V47.732ZM47.8649 38.6657H43.3318V37.5324H47.8649V38.6657Z" fill="white"/>
</svg>
