<svg width="64" height="64" viewBox="0 0 64 64" fill="none" xmlns="http://www.w3.org/2000/svg">
<circle cx="32" cy="32" r="32" fill="#B98B44"/>
<g clip-path="url(#clip0_330_580)">
<path d="M43.6249 47H20.3749C18.9218 47 17.7358 45.8187 17.7358 44.3609C17.7358 43.6578 18.0077 42.9969 18.5046 42.4953C19.0015 41.9984 19.6671 41.7265 20.3749 41.7265H24.2327C24.3593 41.7265 24.4624 41.8297 24.4624 41.9562C24.4624 42.0828 24.3593 42.1859 24.2327 42.1859H20.3749C19.789 42.1859 19.2452 42.4109 18.8327 42.8187C18.4249 43.2312 18.1999 43.7797 18.1999 44.3609C18.1999 45.5609 19.1749 46.5359 20.3749 46.5359H43.6249C44.2062 46.5359 44.7546 46.3062 45.1671 45.8937C45.5749 45.4812 45.7999 44.9328 45.7999 44.3562C45.7999 43.1562 44.8249 42.1812 43.6249 42.1812H39.7858C39.6593 42.1812 39.5562 42.0781 39.5562 41.9515C39.5562 41.825 39.6593 41.7219 39.7858 41.7219H43.6249C45.078 41.7219 46.264 42.9031 46.264 44.3609C46.264 45.0594 45.9921 45.7203 45.4952 46.2219C44.9937 46.7234 44.328 47 43.6249 47Z" fill="white"/>
<path d="M46.0343 44.5907C45.9078 44.5907 45.8046 44.4875 45.8046 44.361V25.9766C45.8046 24.1016 44.2812 22.5781 42.4062 22.5781H41.4171V41.9563C41.4171 42.0828 41.314 42.186 41.1875 42.186C41.0609 42.186 40.9578 42.0828 40.9578 41.9563V22.3485C40.9578 22.2219 41.0609 22.1188 41.1875 22.1188H42.4062C44.5343 22.1188 46.264 23.8485 46.264 25.9766V44.361C46.264 44.4875 46.1609 44.5907 46.0343 44.5907Z" fill="white"/>
<path d="M17.9655 44.5907C17.839 44.5907 17.7358 44.4875 17.7358 44.361V25.9766C17.7358 23.8485 19.4655 22.1188 21.5937 22.1188H22.9202C23.0468 22.1188 23.1499 22.2219 23.1499 22.3485V41.9563C23.1499 42.0828 23.0468 42.186 22.9202 42.186C22.7937 42.186 22.6905 42.0828 22.6905 41.9563V22.5781H21.5937C19.7187 22.5781 18.1952 24.1016 18.1952 25.9766V44.361C18.1999 44.4875 18.0968 44.5907 17.9655 44.5907Z" fill="white"/>
<path d="M41.1828 26.2953H34.5969C34.4703 26.2953 34.3672 26.1922 34.3672 26.0656C34.3672 25.9391 34.4703 25.8359 34.5969 25.8359H41.1875C41.3141 25.8359 41.4172 25.9391 41.4172 26.0656C41.4172 26.1922 41.3141 26.2953 41.1828 26.2953Z" fill="white"/>
<path d="M30.1672 26.2953H22.925C22.7984 26.2953 22.6953 26.1922 22.6953 26.0656C22.6953 25.9391 22.7984 25.8359 22.925 25.8359H30.1719C30.2984 25.8359 30.4016 25.9391 30.4016 26.0656C30.4016 26.1922 30.2984 26.2953 30.1672 26.2953Z" fill="white"/>
<path d="M39.7858 45.65H24.228C24.1014 45.65 23.9983 45.5469 23.9983 45.4203V27.425C23.9983 27.2984 24.1014 27.1953 24.228 27.1953H30.9358C31.0624 27.1953 31.1655 27.2984 31.1655 27.425C31.1655 27.5516 31.0624 27.6547 30.9358 27.6547H24.4577V45.1906H39.5561V27.6547H33.828C33.7014 27.6547 33.5983 27.5516 33.5983 27.425C33.5983 27.2984 33.7014 27.1953 33.828 27.1953H39.7905C39.917 27.1953 40.0202 27.2984 40.0202 27.425V45.4203C40.0202 45.5469 39.917 45.65 39.7858 45.65Z" fill="white"/>
<path d="M39.7857 30.8703H24.2326C24.1061 30.8703 24.0029 30.7672 24.0029 30.6406C24.0029 30.5141 24.1061 30.4109 24.2326 30.4109H39.7857C39.9123 30.4109 40.0154 30.5141 40.0154 30.6406C40.0154 30.7672 39.9123 30.8703 39.7857 30.8703Z" fill="white"/>
<path d="M39.7857 36.2328H24.2326C24.1061 36.2328 24.0029 36.1297 24.0029 36.0031C24.0029 35.8766 24.1061 35.7734 24.2326 35.7734H39.7857C39.9123 35.7734 40.0154 35.8766 40.0154 36.0031C40.0154 36.1297 39.9123 36.2328 39.7857 36.2328Z" fill="white"/>
<path d="M32.3795 45.6547C32.2529 45.6547 32.1498 45.5516 32.1498 45.425V39.6828H24.2326C24.1061 39.6828 24.0029 39.5797 24.0029 39.4531C24.0029 39.3266 24.1061 39.2234 24.2326 39.2234H32.3795C32.5061 39.2234 32.6092 39.3266 32.6092 39.4531V45.425C32.6092 45.5516 32.5061 45.6547 32.3795 45.6547Z" fill="white"/>
<path d="M30.603 39.6828C30.4764 39.6828 30.3733 39.5797 30.3733 39.4531V36.0031C30.3733 35.8766 30.4764 35.7734 30.603 35.7734C30.7295 35.7734 30.8327 35.8766 30.8327 36.0031V39.4531C30.8327 39.5797 30.7295 39.6828 30.603 39.6828Z" fill="white"/>
<path d="M39.7858 42.9453H32.3796C32.253 42.9453 32.1499 42.8422 32.1499 42.7157C32.1499 42.5891 32.253 42.486 32.3796 42.486H39.7858C39.9124 42.486 40.0155 42.5891 40.0155 42.7157C40.0155 42.8422 39.9124 42.9453 39.7858 42.9453Z" fill="white"/>
<path d="M35.9655 45.6547C35.839 45.6547 35.7358 45.5516 35.7358 45.425V42.7157C35.7358 42.5891 35.839 42.486 35.9655 42.486C36.0921 42.486 36.1952 42.5891 36.1952 42.7157V45.425C36.1952 45.5516 36.0921 45.6547 35.9655 45.6547Z" fill="white"/>
<path d="M32 36.2328C31.8734 36.2328 31.7703 36.1297 31.7703 36.0031V30.6406C31.7703 30.5141 31.8734 30.4109 32 30.4109C32.1265 30.4109 32.2296 30.5141 32.2296 30.6406V36.0031C32.2296 36.1297 32.1265 36.2328 32 36.2328Z" fill="white"/>
<path d="M30.125 30.8703C29.9984 30.8703 29.8953 30.7672 29.8953 30.6406V27.4297C29.8953 27.3031 29.9984 27.2 30.125 27.2C30.2515 27.2 30.3546 27.3031 30.3546 27.4297V30.6406C30.3546 30.7672 30.2515 30.8703 30.125 30.8703Z" fill="white"/>
<path d="M33.8139 30.8656C33.6874 30.8656 33.5842 30.7625 33.5842 30.6359V27.4437C33.5842 27.3172 33.6874 27.2141 33.8139 27.2141C33.9405 27.2141 34.0436 27.3172 34.0436 27.4437V30.6359C34.0483 30.7625 33.9452 30.8656 33.8139 30.8656Z" fill="white"/>
<path d="M32.3795 30.0078C32.2999 30.0078 32.2295 29.9703 32.1874 29.9047C32.0186 29.6469 28.0764 23.5953 28.0764 21.3031C28.0764 18.9313 30.0077 17 32.3795 17C34.7561 17 36.6874 18.9313 36.6874 21.3031C36.6874 23.5953 32.7452 29.6469 32.5764 29.9047C32.5295 29.9703 32.4592 30.0078 32.3795 30.0078ZM32.3795 17.4594C30.2608 17.4594 28.5358 19.1844 28.5358 21.3031C28.5358 23.1828 31.5733 28.0859 32.3795 29.3516C33.1858 28.0859 36.2233 23.1828 36.2233 21.3031C36.2233 19.1844 34.4983 17.4594 32.3795 17.4594Z" fill="white"/>
<path d="M32.3795 24.125C30.9499 24.125 29.7874 22.9625 29.7874 21.5328C29.7874 20.1031 30.9499 18.9406 32.3795 18.9406C33.8092 18.9406 34.9717 20.1031 34.9717 21.5328C34.9717 22.9578 33.8092 24.125 32.3795 24.125ZM32.3795 19.4C31.203 19.4 30.2467 20.3562 30.2467 21.5328C30.2467 22.7094 31.203 23.6656 32.3795 23.6656C33.5561 23.6656 34.5124 22.7094 34.5124 21.5328C34.5124 20.3562 33.5561 19.4 32.3795 19.4Z" fill="white"/>
</g>
<defs>
<clipPath id="clip0_330_580">
<rect width="30" height="30" fill="white" transform="translate(17 17)"/>
</clipPath>
</defs>
</svg>
