<svg width="40" height="40" viewBox="0 0 40 40" fill="none" xmlns="http://www.w3.org/2000/svg">
<circle cx="20" cy="20" r="20" fill="#B98B44"/>
<path d="M26.1914 15.3971V27.917V28.2784H25.8301H13.5449H13.1836V27.917V15.3971H13.9063V27.5557H25.4688V15.3971H26.1914Z" fill="white"/>
<path d="M11.2759 16.4239L19.4929 11.1545L19.6876 11.0296L19.8824 11.1545L28.0994 16.4239L27.7099 17.0308L19.6876 11.8863L11.6654 17.0308L11.2759 16.4239Z" fill="white"/>
<path d="M11.2759 24.3199L19.4929 19.0506L19.6876 18.9257L19.8824 19.0506L28.0994 24.3199L27.7099 24.9268L19.6876 19.7824L11.6654 24.9268L11.2759 24.3199Z" fill="white"/>
<path d="M15.5322 15.7129V17.1582H14.8096V15.7129H15.5322Z" fill="white"/>
<path d="M17.3389 15.7129V17.1582H16.6162V15.7129H17.3389Z" fill="white"/>
<path d="M19.1455 15.7129V17.1582H18.4229V15.7129H19.1455Z" fill="white"/>
<path d="M20.9522 15.7129V17.1582H20.2295V15.7129H20.9522Z" fill="white"/>
<path d="M22.7588 15.7129V17.1582H22.0361V15.7129H22.7588Z" fill="white"/>
<path d="M24.5654 15.7129V17.1582H23.8428V15.7129H24.5654Z" fill="white"/>
<path d="M15.5322 17.8809V19.3262H14.8096V17.8809H15.5322Z" fill="white"/>
<path d="M17.3389 17.8809V19.3262H16.6162V17.8809H17.3389Z" fill="white"/>
<path d="M22.7588 17.8809V19.3262H22.0361V17.8809H22.7588Z" fill="white"/>
<path d="M24.5654 17.8809V19.3262H23.8428V17.8809H24.5654Z" fill="white"/>
<path d="M18.3682 23.6621H21.0067H21.3681V24.0234V27.9171V28.2784H21.0067H18.3682H18.0068V27.9171V24.0234V23.6621H18.3682ZM20.6454 24.3848H18.7295V27.5557H20.6454V24.3848Z" fill="white"/>
<path d="M22.9395 24.0234V25.4687H22.2168V24.0234H22.9395Z" fill="white"/>
<path d="M24.5654 24.0234V25.4687H23.8428V24.0234H24.5654Z" fill="white"/>
<path d="M15.3516 24.0234V25.4687H14.6289V24.0234H15.3516Z" fill="white"/>
<path d="M16.9775 24.0234V25.4687H16.2549V24.0234H16.9775Z" fill="white"/>
</svg>
