<svg width="40" height="40" viewBox="0 0 40 40" fill="none" xmlns="http://www.w3.org/2000/svg">
<circle cx="20" cy="20" r="20" fill="#B98B44"/>
<g clip-path="url(#clip0_330_697)">
<path d="M27.2656 29.375H12.7344C11.8262 29.375 11.085 28.6367 11.085 27.7256C11.085 27.2861 11.2549 26.873 11.5654 26.5596C11.876 26.249 12.292 26.0791 12.7344 26.0791H15.1455C15.2246 26.0791 15.2891 26.1436 15.2891 26.2227C15.2891 26.3018 15.2246 26.3662 15.1455 26.3662H12.7344C12.3682 26.3662 12.0283 26.5068 11.7705 26.7617C11.5156 27.0195 11.375 27.3623 11.375 27.7256C11.375 28.4756 11.9844 29.085 12.7344 29.085H27.2656C27.6289 29.085 27.9717 28.9414 28.2295 28.6836C28.4844 28.4258 28.625 28.083 28.625 27.7227C28.625 26.9727 28.0156 26.3633 27.2656 26.3633H24.8662C24.7871 26.3633 24.7227 26.2988 24.7227 26.2197C24.7227 26.1406 24.7871 26.0762 24.8662 26.0762H27.2656C28.1738 26.0762 28.915 26.8145 28.915 27.7256C28.915 28.1621 28.7451 28.5752 28.4346 28.8887C28.1211 29.2021 27.7051 29.375 27.2656 29.375Z" fill="white"/>
<path d="M28.7715 27.8691C28.6924 27.8691 28.6279 27.8047 28.6279 27.7256V16.2354C28.6279 15.0635 27.6758 14.1113 26.5039 14.1113H25.8857V26.2227C25.8857 26.3018 25.8213 26.3662 25.7422 26.3662C25.6631 26.3662 25.5986 26.3018 25.5986 26.2227V13.9678C25.5986 13.8887 25.6631 13.8242 25.7422 13.8242H26.5039C27.834 13.8242 28.915 14.9053 28.915 16.2354V27.7256C28.915 27.8047 28.8506 27.8691 28.7715 27.8691Z" fill="white"/>
<path d="M11.2285 27.8691C11.1494 27.8691 11.085 27.8047 11.085 27.7256V16.2354C11.085 14.9053 12.166 13.8242 13.4961 13.8242H14.3252C14.4043 13.8242 14.4688 13.8887 14.4688 13.9678V26.2227C14.4688 26.3018 14.4043 26.3662 14.3252 26.3662C14.2461 26.3662 14.1816 26.3018 14.1816 26.2227V14.1113H13.4961C12.3242 14.1113 11.3721 15.0635 11.3721 16.2354V27.7256C11.375 27.8047 11.3105 27.8691 11.2285 27.8691Z" fill="white"/>
<path d="M25.7393 16.4346H21.623C21.5439 16.4346 21.4795 16.3701 21.4795 16.291C21.4795 16.2119 21.5439 16.1475 21.623 16.1475H25.7422C25.8213 16.1475 25.8857 16.2119 25.8857 16.291C25.8857 16.3701 25.8213 16.4346 25.7393 16.4346Z" fill="white"/>
<path d="M18.8545 16.4346H14.3281C14.249 16.4346 14.1846 16.3701 14.1846 16.291C14.1846 16.2119 14.249 16.1475 14.3281 16.1475H18.8574C18.9365 16.1475 19.001 16.2119 19.001 16.291C19.001 16.3701 18.9365 16.4346 18.8545 16.4346Z" fill="white"/>
<path d="M24.8662 28.5312H15.1426C15.0635 28.5312 14.999 28.4668 14.999 28.3877V17.1406C14.999 17.0615 15.0635 16.9971 15.1426 16.9971H19.335C19.4141 16.9971 19.4785 17.0615 19.4785 17.1406C19.4785 17.2197 19.4141 17.2842 19.335 17.2842H15.2861V28.2441H24.7227V17.2842H21.1426C21.0635 17.2842 20.999 17.2197 20.999 17.1406C20.999 17.0615 21.0635 16.9971 21.1426 16.9971H24.8691C24.9482 16.9971 25.0127 17.0615 25.0127 17.1406V28.3877C25.0127 28.4668 24.9482 28.5312 24.8662 28.5312Z" fill="white"/>
<path d="M24.8662 19.2939H15.1455C15.0664 19.2939 15.002 19.2295 15.002 19.1504C15.002 19.0713 15.0664 19.0068 15.1455 19.0068H24.8662C24.9453 19.0068 25.0098 19.0713 25.0098 19.1504C25.0098 19.2295 24.9453 19.2939 24.8662 19.2939Z" fill="white"/>
<path d="M24.8662 22.6455H15.1455C15.0664 22.6455 15.002 22.5811 15.002 22.502C15.002 22.4229 15.0664 22.3584 15.1455 22.3584H24.8662C24.9453 22.3584 25.0098 22.4229 25.0098 22.502C25.0098 22.5811 24.9453 22.6455 24.8662 22.6455Z" fill="white"/>
<path d="M20.2373 28.5342C20.1582 28.5342 20.0938 28.4697 20.0938 28.3906V24.8018H15.1455C15.0664 24.8018 15.002 24.7373 15.002 24.6582C15.002 24.5791 15.0664 24.5146 15.1455 24.5146H20.2373C20.3164 24.5146 20.3809 24.5791 20.3809 24.6582V28.3906C20.3809 28.4697 20.3164 28.5342 20.2373 28.5342Z" fill="white"/>
<path d="M19.127 24.8018C19.0479 24.8018 18.9834 24.7373 18.9834 24.6582V22.502C18.9834 22.4229 19.0479 22.3584 19.127 22.3584C19.2061 22.3584 19.2705 22.4229 19.2705 22.502V24.6582C19.2705 24.7373 19.2061 24.8018 19.127 24.8018Z" fill="white"/>
<path d="M24.8662 26.8408H20.2373C20.1582 26.8408 20.0938 26.7764 20.0938 26.6973C20.0938 26.6182 20.1582 26.5537 20.2373 26.5537H24.8662C24.9453 26.5537 25.0098 26.6182 25.0098 26.6973C25.0098 26.7764 24.9453 26.8408 24.8662 26.8408Z" fill="white"/>
<path d="M22.4785 28.5342C22.3994 28.5342 22.335 28.4697 22.335 28.3906V26.6973C22.335 26.6182 22.3994 26.5537 22.4785 26.5537C22.5576 26.5537 22.6221 26.6182 22.6221 26.6973V28.3906C22.6221 28.4697 22.5576 28.5342 22.4785 28.5342Z" fill="white"/>
<path d="M20 22.6455C19.9209 22.6455 19.8564 22.5811 19.8564 22.502V19.1504C19.8564 19.0713 19.9209 19.0068 20 19.0068C20.0791 19.0068 20.1436 19.0713 20.1436 19.1504V22.502C20.1436 22.5811 20.0791 22.6455 20 22.6455Z" fill="white"/>
<path d="M18.8281 19.2939C18.749 19.2939 18.6846 19.2295 18.6846 19.1504V17.1436C18.6846 17.0645 18.749 17 18.8281 17C18.9072 17 18.9717 17.0645 18.9717 17.1436V19.1504C18.9717 19.2295 18.9072 19.2939 18.8281 19.2939Z" fill="white"/>
<path d="M21.1338 19.291C21.0547 19.291 20.9902 19.2266 20.9902 19.1475V17.1523C20.9902 17.0732 21.0547 17.0088 21.1338 17.0088C21.2129 17.0088 21.2773 17.0732 21.2773 17.1523V19.1475C21.2803 19.2266 21.2158 19.291 21.1338 19.291Z" fill="white"/>
<path d="M20.2373 18.7549C20.1875 18.7549 20.1436 18.7314 20.1172 18.6904C20.0117 18.5293 17.5479 14.7471 17.5479 13.3145C17.5479 11.832 18.7549 10.625 20.2373 10.625C21.7227 10.625 22.9297 11.832 22.9297 13.3145C22.9297 14.7471 20.4658 18.5293 20.3604 18.6904C20.3311 18.7314 20.2871 18.7549 20.2373 18.7549ZM20.2373 10.9121C18.9131 10.9121 17.835 11.9902 17.835 13.3145C17.835 14.4893 19.7334 17.5537 20.2373 18.3447C20.7412 17.5537 22.6396 14.4893 22.6396 13.3145C22.6396 11.9902 21.5615 10.9121 20.2373 10.9121Z" fill="white"/>
<path d="M20.2373 15.0781C19.3438 15.0781 18.6172 14.3516 18.6172 13.458C18.6172 12.5645 19.3438 11.8379 20.2373 11.8379C21.1309 11.8379 21.8574 12.5645 21.8574 13.458C21.8574 14.3486 21.1309 15.0781 20.2373 15.0781ZM20.2373 12.125C19.502 12.125 18.9043 12.7227 18.9043 13.458C18.9043 14.1934 19.502 14.791 20.2373 14.791C20.9727 14.791 21.5703 14.1934 21.5703 13.458C21.5703 12.7227 20.9727 12.125 20.2373 12.125Z" fill="white"/>
</g>
<defs>
<clipPath id="clip0_330_697">
<rect width="18.75" height="18.75" fill="white" transform="translate(10.625 10.625)"/>
</clipPath>
</defs>
</svg>
