<svg width="40" height="40" viewBox="0 0 40 40" fill="none" xmlns="http://www.w3.org/2000/svg">
<circle cx="20" cy="20" r="20" fill="#B98B44"/>
<g clip-path="url(#clip0_330_737)">
<path d="M30.3225 14.9551C30.3224 14.9551 30.3224 14.9551 30.3224 14.9551L30.3217 14.9544L28.9501 14.7587C28.7573 14.7312 28.6232 14.5527 28.6507 14.3599C28.6639 14.2673 28.7134 14.1837 28.7882 14.1275L29.8968 13.2961C30.0526 13.1793 30.0842 12.9583 29.9673 12.8025L28.6979 11.11C28.5811 10.9542 28.3601 10.9226 28.2043 11.0395L27.0961 11.8709C26.9409 11.9886 26.7198 11.9583 26.602 11.8032C26.5449 11.7278 26.5204 11.6327 26.534 11.5391L26.7301 10.1675C26.7577 9.97469 26.6238 9.79605 26.4311 9.76837C26.431 9.76837 26.4308 9.76833 26.4307 9.76833L24.3377 9.46932C24.1449 9.44164 23.9662 9.57546 23.9385 9.76824C23.9385 9.76829 23.9385 9.76829 23.9385 9.76833L23.7425 11.14C23.715 11.3327 23.5365 11.4668 23.3437 11.4393C23.251 11.4261 23.1675 11.3766 23.1113 11.3018L22.2802 10.1932C22.1634 10.0374 21.9424 10.0059 21.7866 10.1227L20.727 10.9178C20.2477 10.8669 19.7642 10.8669 19.2849 10.9178C16.1456 11.2766 13.6838 13.7802 13.3777 16.9251C13.3682 17.0249 13.3647 17.124 13.3598 17.223H13.254C13.0867 17.2233 12.9426 17.3412 12.9091 17.5051L12.6655 18.6638L11.6895 17.9907C11.5494 17.894 11.3602 17.9112 11.2399 18.0316L10.1821 19.0894C10.062 19.2096 10.0448 19.3986 10.1412 19.5386L10.8111 20.5128L9.65215 20.7565C9.49004 20.792 9.37465 20.9357 9.375 21.1017V22.5121C9.37491 22.6789 9.49176 22.8229 9.65497 22.8573L10.814 23.1009L10.144 24.0752C10.0476 24.2152 10.0648 24.4041 10.1849 24.5244L11.2427 25.5822C11.3631 25.7025 11.5522 25.7197 11.6923 25.6231L12.6665 24.9514L12.9102 26.1104C12.9436 26.2743 13.0877 26.3921 13.255 26.3925H14.6654C14.8322 26.3925 14.9763 26.2757 15.0106 26.1125L15.2543 24.9535L16.2285 25.6234C16.3686 25.7199 16.5575 25.7027 16.6777 25.5825L17.2253 25.0332V26.0381C17.2269 26.5397 17.4956 27.0025 17.9305 27.2525V29.2115C17.9305 29.9904 18.562 30.6219 19.3409 30.6219H20.7514C21.5303 30.6219 22.1618 29.9904 22.1618 29.2115V27.2525C22.5967 27.0025 22.8654 26.5397 22.867 26.0381V24.6425C22.8765 24.0553 23.1837 23.5132 23.6825 23.2032C23.9751 23.0133 24.2526 22.8011 24.5126 22.5685L24.0422 22.0431C23.8097 22.2515 23.5613 22.4414 23.2993 22.6112C22.5991 23.0506 22.1705 23.8159 22.1618 24.6425V26.0381C22.1618 26.4276 21.846 26.7433 21.4566 26.7433H18.6357C18.2462 26.7433 17.9305 26.4276 17.9305 26.0381V24.6132C17.9224 23.8023 17.5005 23.0517 16.8121 22.6231C14.0174 20.8671 13.1754 17.178 14.9314 14.3834C16.021 12.6494 17.9225 11.594 19.9703 11.5867C19.9651 11.5993 19.9605 11.6121 19.9566 11.6251C19.9435 11.7177 19.9677 11.8117 20.0239 11.8864L20.855 12.9946C20.9426 13.108 20.9511 13.2638 20.8762 13.386C20.8041 13.509 20.6647 13.5761 20.5236 13.5556L19.1519 13.3596C18.9592 13.3319 18.7805 13.4658 18.7528 13.6585C18.7528 13.6587 18.7528 13.6588 18.7528 13.6589L18.4534 15.753C18.4258 15.9458 18.5597 16.1245 18.7524 16.1521C18.7525 16.1521 18.7527 16.1522 18.7528 16.1522L20.1244 16.3482C20.3172 16.3757 20.4512 16.5542 20.4238 16.747C20.4106 16.8397 20.3611 16.9232 20.2863 16.9794L19.178 17.8105C19.0222 17.9273 18.9907 18.1483 19.1075 18.3041L20.3769 19.9966C20.4937 20.1524 20.7147 20.184 20.8705 20.0671L21.9791 19.236C22.135 19.1194 22.356 19.1513 22.4727 19.3073C22.5285 19.3819 22.5525 19.4756 22.5394 19.5678L22.3437 20.9395C22.316 21.1322 22.4498 21.3109 22.6426 21.3386C22.6427 21.3386 22.6427 21.3386 22.6427 21.3386L24.7372 21.638C24.7536 21.6401 24.7703 21.6411 24.7869 21.6411C24.9624 21.6414 25.1114 21.5124 25.1363 21.3386L25.332 19.967C25.3595 19.7742 25.538 19.6402 25.7308 19.6676C25.8234 19.6808 25.907 19.7303 25.9632 19.8051L26.7946 20.9134C26.9114 21.0692 27.1324 21.1007 27.2882 20.9839L28.9807 19.7145C29.1365 19.5977 29.1681 19.3767 29.0513 19.2209L28.2202 18.1127C28.1329 17.9991 28.1245 17.8436 28.199 17.7213C28.2696 17.5967 28.4103 17.5291 28.5516 17.552L29.9232 17.7477C30.116 17.7754 30.2947 17.6415 30.3224 17.4488C30.3224 17.4488 30.3224 17.4488 30.3224 17.4487L30.6214 15.3543C30.6491 15.1615 30.5153 14.9828 30.3225 14.9551ZM18.6357 27.4485H21.4566V28.1537H18.6357V27.4485ZM18.6357 28.8589H21.4566V29.2115C21.4566 29.601 21.1408 29.9167 20.7514 29.9167H19.3409C18.9515 29.9167 18.6357 29.601 18.6357 29.2115V28.8589ZM15.8287 22.7783C16.0212 22.9357 16.2224 23.0823 16.4313 23.2173C16.7644 23.4278 17.0152 23.7464 17.1418 24.1196L16.3854 24.8745L15.6531 24.3696C15.3324 24.1486 14.8933 24.2294 14.6722 24.5501C14.6192 24.627 14.5821 24.7137 14.5628 24.805L14.3781 25.6855H13.5399L13.3552 24.8065C13.275 24.4253 12.901 24.1814 12.5199 24.2616C12.4285 24.2808 12.3418 24.318 12.2649 24.371L11.5322 24.8745L10.8898 24.2335L11.3944 23.5015C11.6156 23.1809 11.535 22.7417 11.2144 22.5205C11.1375 22.4674 11.0507 22.4301 10.9592 22.4109L10.0802 22.2258V21.388L10.9592 21.2029C11.3402 21.1221 11.5836 20.7477 11.5028 20.3667C11.4836 20.2763 11.4469 20.1906 11.3947 20.1144L10.8898 19.3803L11.5322 18.7392L12.2653 19.2442C12.5861 19.4649 13.0252 19.3838 13.246 19.063C13.2989 18.9862 13.336 18.8996 13.3552 18.8083L13.4169 18.515C13.4734 18.9213 13.567 19.3215 13.6965 19.7106C12.5363 19.849 11.7079 20.9016 11.8462 22.0618C11.9845 23.222 13.0372 24.0504 14.1974 23.9121C14.8958 23.8288 15.5072 23.4039 15.8287 22.7783ZM15.2811 22.2815C15.0178 23.0133 14.2111 23.3932 13.4792 23.1299C12.7473 22.8666 12.3675 22.0599 12.6308 21.328C12.8322 20.7681 13.3638 20.3952 13.9588 20.3965C13.9634 20.3965 13.9676 20.3965 13.9722 20.3965C14.2964 21.0956 14.7393 21.7333 15.2811 22.2815ZM29.6722 16.9988L28.6496 16.8528C28.0713 16.7702 27.5355 17.1721 27.4529 17.7504C27.4132 18.0282 27.4855 18.3103 27.6539 18.5347L28.2734 19.3609L27.1451 20.2071L26.5252 19.3813C26.1747 18.9139 25.5117 18.8191 25.0443 19.1696C24.8199 19.3379 24.6715 19.5884 24.6317 19.8661L24.4889 20.8901L23.093 20.6905L23.239 19.668C23.3218 19.0897 22.9201 18.5537 22.3418 18.4709C22.0639 18.4311 21.7816 18.5034 21.557 18.6719L20.7309 19.2914L19.8847 18.1631L20.7104 17.5432C21.1779 17.1927 21.2727 16.5297 20.9222 16.0623C20.7539 15.8379 20.5033 15.6895 20.2256 15.6497L19.2031 15.5038L19.4026 14.1078L20.4252 14.2538C21.0035 14.3366 21.5395 13.9349 21.6222 13.3566C21.662 13.0787 21.5898 12.7964 21.4213 12.5719L20.7997 11.745L21.928 10.8988L22.5479 11.7249C22.8983 12.1923 23.5614 12.2871 24.0287 11.9367C24.2532 11.7684 24.4016 11.5178 24.4413 11.2401L24.5873 10.2175L25.9833 10.4168L25.8373 11.4393C25.7547 12.0177 26.1566 12.5534 26.7349 12.636C27.0126 12.6757 27.2948 12.6034 27.5192 12.4351L28.3453 11.8155L29.1916 12.9439L28.3654 13.5637C27.898 13.9142 27.8032 14.5772 28.1537 15.0446C28.322 15.2691 28.5725 15.4175 28.8503 15.4572L29.8728 15.6032L29.6722 16.9988Z" fill="white"/>
<path d="M24.5369 12.7323C22.979 12.7323 21.7161 13.9952 21.7161 15.5531C21.7161 17.111 22.979 18.3739 24.5369 18.3739C26.0948 18.3739 27.3577 17.111 27.3577 15.5531C27.3559 13.9959 26.0941 12.734 24.5369 12.7323ZM24.5369 17.6687C23.3684 17.6687 22.4213 16.7216 22.4213 15.5531C22.4213 14.3847 23.3684 13.4375 24.5369 13.4375C25.7053 13.4375 26.6525 14.3847 26.6525 15.5531C26.6511 16.721 25.7047 17.6674 24.5369 17.6687Z" fill="white"/>
<path d="M20.3988 24.9802H19.6936V26.038H20.3988V24.9802Z" fill="white"/>
<path d="M18.5038 21.5173C16.3272 20.667 15.2519 18.2132 16.1023 16.0365C16.4318 15.1931 17.0232 14.4776 17.7894 13.9953L17.4125 13.3987C15.1058 14.8519 14.4139 17.8999 15.8671 20.2066C16.4299 21.1 17.2643 21.7894 18.2478 22.1735C19.1184 22.5071 19.6933 23.3428 19.6935 24.275H20.3987C20.3998 23.0519 19.646 21.9549 18.5038 21.5173Z" fill="white"/>
<path d="M29.2138 22.512H26.7456V23.2172H29.2138V22.512Z" fill="white"/>
<path d="M26.6186 24.3564L26.1672 24.8982L28.283 26.6609L28.7344 26.1191L26.6186 24.3564Z" fill="white"/>
<path d="M25.3351 25.3329H24.6299V27.8011H25.3351V25.3329Z" fill="white"/>
<path d="M12.5557 14.7651L9.73511 15.4702L9.90603 16.154L12.7267 15.4489L12.5557 14.7651Z" fill="white"/>
<path d="M10.7305 11.2949L10.3208 11.8684L12.7888 13.6312L13.1985 13.0577L10.7305 11.2949Z" fill="white"/>
<path d="M14.025 9.37793L13.3418 9.55261L14.063 12.3732L14.7462 12.1985L14.025 9.37793Z" fill="white"/>
</g>
<defs>
<clipPath id="clip0_330_737">
<rect width="21.25" height="21.25" fill="white" transform="translate(9.375 9.375)"/>
</clipPath>
</defs>
</svg>
