<svg width="19" height="14" viewBox="0 0 19 14" fill="none" xmlns="http://www.w3.org/2000/svg">
<path fill-rule="evenodd" clip-rule="evenodd" d="M18.359 3.99545L1.03878 13.9953L0.181641 12.5107L17.5018 2.51083L18.359 3.99545Z" fill="#FEFEFE"/>
<path fill-rule="evenodd" clip-rule="evenodd" d="M16.7599 2.93918C13.2686 4.95489 12.1882 9.6723 14.0784 12.9462L14.507 13.6886L15.9917 12.8315L15.5631 12.0891C14.1279 9.60338 14.9769 5.94802 17.617 4.42379L18.3589 3.99544L17.5017 2.51083L16.7599 2.93918Z" fill="#FEFEFE"/>
<path fill-rule="evenodd" clip-rule="evenodd" d="M17.6171 4.42377C14.1258 6.43949 9.50015 5.01631 7.60998 1.74233L7.1814 1.00003L8.66598 0.142883L9.09455 0.885192C10.5298 3.37101 14.1199 4.4634 16.7599 2.93917L17.5019 2.51081L18.359 3.99543L17.6171 4.42377Z" fill="#FEFEFE"/>
</svg>
