<?xml version="1.0" encoding="UTF-8"?>
<svg xmlns="http://www.w3.org/2000/svg" id="Business" width="38.5" height="38.5" viewBox="0 0 38.5 38.5">
  <rect id="Rectángulo_381" data-name="Rectángulo 381" width="38.5" height="38.5" fill="#fc0" opacity="0"></rect>
  <path id="Trazado_1336" data-name="Trazado 1336" d="M37.5,21.855c0,4.88-.27,8.73-.51,11.18a4.022,4.022,0,0,1-3.32,3.68,91.991,91.991,0,0,1-14.56.91,91.991,91.991,0,0,1-14.56-.91,4,4,0,0,1-3.32-3.68c-.24-2.45-.51-6.3-.51-11.18,0-.61,0-1.2.01-1.77,3.4,1.06,9.39,2.87,13.94,3.8.03.75.08,1.35.12,1.78.04.45.91,2.77,4.32,2.77s4.28-2.32,4.32-2.77c.04-.43.09-1.03.11-1.78,4.55-.92,10.55-2.73,13.95-3.8,0,.57.01,1.16.01,1.77" fill="#fc0"></path>
  <path id="Trazado_1337" data-name="Trazado 1337" d="M37.725,10.621a4.611,4.611,0,0,0-3.813-4.208,70.507,70.507,0,0,0-7.89-.764,31.028,31.028,0,0,0-1.476-3.335A3.394,3.394,0,0,0,22,.455,20.7,20.7,0,0,0,19.251.278,18.236,18.236,0,0,0,16.5.455a3.394,3.394,0,0,0-2.542,1.859,30.9,30.9,0,0,0-1.476,3.335,70.737,70.737,0,0,0-7.888.763A4.613,4.613,0,0,0,.775,10.62C.539,13.006.259,16.893.259,21.858S.539,30.709.775,33.1A4.611,4.611,0,0,0,4.588,37.3a92.587,92.587,0,0,0,14.662.919A92.523,92.523,0,0,0,33.91,37.3,4.612,4.612,0,0,0,37.725,33.1c.236-2.386.516-6.273.516-11.237s-.28-8.852-.516-11.237m-22.7-7.762a2.169,2.169,0,0,1,1.631-1.215A19.63,19.63,0,0,1,19.2,1.478a17.5,17.5,0,0,1,2.646.166,2.17,2.17,0,0,1,1.634,1.215c.382.752.867,1.762,1.248,2.734-1.625-.062-3.44-.1-5.475-.1s-3.851.037-5.476.1c.382-.975.866-1.984,1.248-2.734M1.969,10.738A3.386,3.386,0,0,1,4.784,7.6a69.969,69.969,0,0,1,7.922-.756.625.625,0,0,0,.184.029.588.588,0,0,0,.223-.049c1.781-.078,3.818-.126,6.137-.126s4.361.048,6.144.126a.581.581,0,0,0,.4.019,70.294,70.294,0,0,1,7.928.757,3.385,3.385,0,0,1,2.814,3.142c.2,1.991.423,5.049.489,8.906-3,.938-8.4,2.565-12.747,3.509.013-.421.022-.867.022-1.366,0-1.476-.069-2.627-.126-3.333a1.71,1.71,0,0,0-1.281-1.62,19,19,0,0,0-3.638-.279,18.971,18.971,0,0,0-3.637.279,1.711,1.711,0,0,0-1.283,1.62c-.057.712-.126,1.868-.126,3.333,0,.5.01.944.023,1.366-4.346-.944-9.752-2.571-12.747-3.51C1.546,15.787,1.772,12.729,1.969,10.738ZM19.25,23.885a21.8,21.8,0,0,1-3.814-.483c-.018-.483-.031-1.015-.031-1.615,0-1.425.066-2.546.122-3.236.022-.281.157-.507.32-.54a17.777,17.777,0,0,1,3.4-.256,17.785,17.785,0,0,1,3.4.256c.163.033.3.259.32.54.056.684.122,1.8.122,3.236,0,.6-.013,1.133-.031,1.615a21.815,21.815,0,0,1-3.814.483M23,24.637c-.01.133-.019.274-.028.385a3.559,3.559,0,0,1-3.723,2.813,3.559,3.559,0,0,1-3.723-2.813c-.009-.111-.019-.252-.028-.385a21.967,21.967,0,0,0,3.751.448A21.978,21.978,0,0,0,23,24.637m13.53,8.34a3.387,3.387,0,0,1-2.815,3.142,91.383,91.383,0,0,1-14.466.9,91.431,91.431,0,0,1-14.467-.9,3.384,3.384,0,0,1-2.814-3.142c-.233-2.359-.51-6.2-.51-11.119,0-.33,0-.642.006-.962,3.6,1.124,8.713,2.631,12.815,3.5.017.273.034.522.05.725a4.765,4.765,0,0,0,4.92,3.916,4.764,4.764,0,0,0,4.919-3.915c.017-.2.034-.453.05-.726,4.1-.868,9.213-2.374,12.816-3.5,0,.32.006.632.006.962,0,4.915-.277,8.76-.51,11.119" fill="#111f29"></path>
</svg>
