<svg xmlns="http://www.w3.org/2000/svg" width="25" height="25" viewBox="0 0 25 25">
  <g id="coll" transform="translate(-446 -21)">
    <rect id="Rectángulo_277" data-name="Rectángulo 277" width="25" height="25" transform="translate(446 21)" fill="none"/>
    <path id="Trazado_896" data-name="Trazado 896" d="M17138.3,21739.258a.255.255,0,0,1-.066-.006,8.693,8.693,0,0,1-3.885-1.189,23.756,23.756,0,0,1-8.385-8.527,8.824,8.824,0,0,1,3.186-11.49,3.508,3.508,0,0,1,.906-.35c2.117-.523,3.863,2.205,4.5,3.717a2.706,2.706,0,0,1-.5,3.277c-.59.633-1.2,1.289-1.207,1.561a5.6,5.6,0,0,0,1.107,1.752,12.13,12.13,0,0,0,3.514,3.082c.584.355.8.334,1.238-.146.1-.109.2-.234.307-.361.572-.7,1.533-1.875,3.027-1.27a8.581,8.581,0,0,1,4.141,3.016,2.376,2.376,0,0,1-.146,2.8c-1.615,1.9-3.955,4.088-7.727,4.137Zm-7.857-20.008a2.053,2.053,0,0,0-.5.182,7.25,7.25,0,0,0-2.586,9.318,22.136,22.136,0,0,0,7.83,7.949,7.173,7.173,0,0,0,3.143.959c3.076-.055,5.008-1.838,6.486-3.578a.823.823,0,0,0-.006-.934,6.965,6.965,0,0,0-3.365-2.361c-.328-.127-.557.021-1.2.807-.125.146-.246.289-.365.42a2.307,2.307,0,0,1-3.252.438,13.94,13.94,0,0,1-3.961-3.482c-1.943-2.58-1.926-3.082.213-5.367.436-.465.529-.77.191-1.572-.568-1.357-1.746-2.793-2.51-2.793A.526.526,0,0,0,17130.439,21719.25Zm9.184,7.295a3.407,3.407,0,0,0-2.664-2.668.8.8,0,0,1,.367-1.555,5,5,0,0,1,3.857,3.857.807.807,0,0,1-.6.961.774.774,0,0,1-.186.021A.8.8,0,0,1,17139.623,21726.545Zm4.494-.77a7.324,7.324,0,0,0-6.389-6.389.794.794,0,0,1-.654-.922.806.806,0,0,1,.922-.654,8.9,8.9,0,0,1,7.693,7.693.806.806,0,0,1-.65.928c-.049,0-.092.01-.135.01A.8.8,0,0,1,17144.117,21725.775Z" transform="translate(-16677.271 -21694.945)" fill="#111f29" stroke="rgba(0,0,0,0)" stroke-width="1"/>
  </g>
</svg>
