<svg id="coll" xmlns="http://www.w3.org/2000/svg" width="40" height="40" viewBox="0 0 40 40">
                      <rect id="Rectángulo_277" data-name="Rectángulo 277" width="40" height="40" transform="translate(0 0)" fill="#2f37ff" opacity="0"></rect>
                      <path id="Trazado_896" data-name="Trazado 896" d="M17146.107,21751.936a.48.48,0,0,1-.105-.008,13.777,13.777,0,0,1-6.16-1.891,37.675,37.675,0,0,1-13.307-13.527c-3.406-6.047-1-14.734,5.059-18.227a5.838,5.838,0,0,1,1.434-.551c3.361-.83,6.131,3.5,7.133,5.893.895,2.113.662,3.666-.785,5.2-.937,1-1.9,2.049-1.916,2.48a9.015,9.015,0,0,0,1.758,2.779,19.329,19.329,0,0,0,5.576,4.887c.922.566,1.27.531,1.959-.236.162-.17.326-.365.49-.57.908-1.109,2.43-2.975,4.8-2.012,2.236.9,5.186,2.457,6.568,4.783a3.76,3.76,0,0,1-.232,4.439c-2.562,3.012-6.275,6.48-12.254,6.563Zm-12.463-31.736a3.307,3.307,0,0,0-.789.293c-4.83,2.779-6.82,9.957-4.1,14.775a35.112,35.112,0,0,0,12.422,12.611,11.4,11.4,0,0,0,4.984,1.523c4.881-.09,7.945-2.918,10.291-5.676a1.322,1.322,0,0,0-.008-1.484c-.807-1.354-2.705-2.672-5.34-3.746-.52-.205-.883.035-1.9,1.275-.2.238-.395.465-.582.67a3.659,3.659,0,0,1-5.156.7,22.185,22.185,0,0,1-6.287-5.529c-3.078-4.092-3.051-4.883.34-8.51.693-.738.842-1.221.3-2.494-.9-2.158-2.766-4.434-3.977-4.434A.783.783,0,0,0,17133.645,21720.2Zm14.566,11.568a5.4,5.4,0,0,0-4.221-4.229,1.269,1.269,0,0,1,.576-2.471,8.444,8.444,0,0,1,3.967,2.148,8.294,8.294,0,0,1,2.154,3.979,1.277,1.277,0,0,1-.945,1.52,1.183,1.183,0,0,1-.293.033A1.28,1.28,0,0,1,17148.211,21731.768Zm7.129-1.215a12.377,12.377,0,0,0-3.322-6.822,12.143,12.143,0,0,0-6.812-3.309,1.271,1.271,0,0,1-1.037-1.471,1.285,1.285,0,0,1,1.463-1.037,14.111,14.111,0,0,1,12.2,12.2,1.268,1.268,0,0,1-1.027,1.471c-.078.008-.148.016-.217.016A1.265,1.265,0,0,1,17155.34,21730.553Z" transform="translate(-17122.139 -21714.789)" fill="#2f37ff" stroke="rgba(0,0,0,0)" stroke-width="1"></path>
                    </svg>