<svg width="52" height="52" viewBox="0 0 52 52" fill="none" xmlns="http://www.w3.org/2000/svg">
<ellipse cx="25.9299" cy="26" rx="25.9141" ry="26" fill="#B98B44"/>
<g clip-path="url(#clip0_26_2202)">
<path d="M30.6611 37.9811H36.0305C36.2885 37.9811 36.4977 37.7712 36.4977 37.5124V26.7383C36.4977 26.4794 36.2885 26.2695 36.0305 26.2695H30.6611C30.4031 26.2695 30.1939 26.4794 30.1939 26.7383V37.5124C30.1939 37.7712 30.4031 37.9811 30.6611 37.9811ZM33.813 32.5941H35.5633V34.3501H33.813V32.5941ZM32.8786 34.3501H31.1282V32.5941H32.8786V34.3501ZM35.5633 31.6566H33.813V29.9005H35.5633V31.6566ZM32.8786 31.6566H31.1282V29.9005H32.8786V31.6566ZM31.1283 35.2876H32.8787V37.0436H31.1283V35.2876ZM33.813 37.0436V35.2876H35.5633V37.0436H33.813ZM35.5633 28.963H33.813V27.207H35.5633V28.963ZM32.8786 27.207V28.9631H31.1282V27.207H32.8786ZM20.9586 26.2695H15.5892C15.3312 26.2695 15.122 26.4794 15.122 26.7383V37.5124C15.122 37.7712 15.3312 37.9811 15.5892 37.9811H20.9586C21.2166 37.9811 21.4258 37.7712 21.4258 37.5124V26.7383C21.4258 26.4794 21.2166 26.2695 20.9586 26.2695ZM17.8066 31.6566H16.0564V29.9005H17.8067L17.8066 31.6566ZM18.741 29.9005H20.4914V31.6566H18.741V29.9005ZM16.0564 32.5941H17.8067V34.3501H16.0564V32.5941ZM18.741 32.5941H20.4914V34.3501H18.741V32.5941ZM20.4914 28.963H18.741V27.207H20.4914V28.963ZM17.8066 27.207V28.9631H16.0564V27.207H17.8066ZM16.0564 35.2876H17.8067V37.0436H16.0564V35.2876ZM18.741 37.0436V35.2876H20.4914V37.0436H18.741ZM22.773 19.2174H20.0883C19.8303 19.2174 19.6211 19.4273 19.6211 19.6862V22.3797C19.6211 22.6386 19.8303 22.8485 20.0883 22.8485H22.773C23.031 22.8485 23.2402 22.6386 23.2402 22.3797V19.6862C23.2402 19.4273 23.031 19.2174 22.773 19.2174ZM22.3058 21.911H20.5555V20.1549H22.3058V21.911ZM27.2721 19.2174H24.5875C24.3295 19.2174 24.1203 19.4273 24.1203 19.6862V22.3797C24.1203 22.6386 24.3295 22.8485 24.5875 22.8485H27.2721C27.5302 22.8485 27.7393 22.6386 27.7393 22.3797V19.6862C27.7393 19.4273 27.5302 19.2174 27.2721 19.2174ZM26.8049 21.911H25.0547V20.1549H26.8049V21.911ZM31.7712 19.2174H29.0866C28.8286 19.2174 28.6194 19.4273 28.6194 19.6862V22.3797C28.6194 22.6386 28.8286 22.8485 29.0866 22.8485H31.7712C32.0292 22.8485 32.2384 22.6386 32.2384 22.3797V19.6862C32.2384 19.4273 32.0292 19.2174 31.7712 19.2174ZM31.304 21.911H29.5538V20.1549H31.304V21.911ZM39.718 39.5938H38.8726V24.1881C38.8726 23.9292 38.6635 23.7194 38.4054 23.7194H34.053V17.8778C34.053 17.6189 33.8439 17.409 33.5858 17.409H26.397V15.647H30.3137C30.4813 15.647 30.6362 15.5568 30.7193 15.4108C30.8025 15.2648 30.8013 15.0853 30.7163 14.9403L29.9049 13.5579L30.7163 12.1753C30.8013 12.0304 30.8025 11.8509 30.7193 11.7049C30.6362 11.5589 30.4814 11.4688 30.3137 11.4688H25.9304C25.9302 11.4688 25.93 11.4688 25.9298 11.4688C25.6718 11.4688 25.4626 11.6786 25.4626 11.9375V17.409H18.2738C18.0158 17.409 17.8066 17.6189 17.8066 17.8778V23.7194H13.4542C13.1962 23.7194 12.987 23.9292 12.987 24.1881V39.5936H12.1416C11.8836 39.5936 11.6744 39.8035 11.6744 40.0623C11.6744 40.3212 11.8836 40.5311 12.1416 40.5311H13.4509C13.452 40.5311 13.4531 40.5312 13.4542 40.5312H38.4054H39.718C39.976 40.5312 40.1852 40.3214 40.1852 40.0625C40.1852 39.8036 39.976 39.5938 39.718 39.5938ZM28.9602 13.7957L29.4965 14.7095H26.397V12.4062H29.4964L28.9601 13.32C28.874 13.4668 28.874 13.6489 28.9602 13.7957ZM18.741 18.3465H25.9286C25.9291 18.3465 25.9294 18.3466 25.9298 18.3466C25.9302 18.3466 25.9306 18.3465 25.931 18.3465H33.1186V23.7194H18.7411V18.3465H18.741ZM13.9214 24.6569H18.2727C18.2731 24.6569 18.2735 24.6569 18.2739 24.6569C18.2743 24.6569 18.2747 24.6569 18.2751 24.6569H23.2751V29.2684C23.2751 29.5272 23.4842 29.7371 23.7423 29.7371C24.0003 29.7371 24.2095 29.5272 24.2095 29.2684V24.6569H25.4626V30.3138C25.4626 30.5727 25.6718 30.7826 25.9298 30.7826C26.1878 30.7826 26.397 30.5727 26.397 30.3138V24.6569H27.6502V29.2684C27.6502 29.5272 27.8594 29.7371 28.1174 29.7371C28.3754 29.7371 28.5846 29.5272 28.5846 29.2684V24.6569H33.5847C33.5851 24.6569 33.5854 24.6569 33.5858 24.6569C33.5863 24.6569 33.5866 24.6569 33.587 24.6569H37.9383V39.5938H29.2332V33.2084C29.2332 32.9495 29.024 32.7396 28.766 32.7396H23.0935C22.8355 32.7396 22.6263 32.9495 22.6263 33.2084V39.5938H13.9214V24.6569ZM26.397 33.6771H28.2988V39.5938H26.397V33.6771ZM25.4626 39.5938H23.5608V33.6771H25.4626V39.5938Z" fill="white"/>
</g>
<defs>
<clipPath id="clip0_26_2202">
<rect width="29.9009" height="30" fill="white" transform="translate(10.9794 11)"/>
</clipPath>
</defs>
</svg>
