<svg width="50" height="50" viewBox="0 0 50 50" fill="none" xmlns="http://www.w3.org/2000/svg">
<circle cx="25" cy="25" r="25" fill="#B98B44"/>
<g clip-path="url(#clip0_330_864)">
<path d="M36.2933 25.3751C36.2855 25.273 36.2396 25.1777 36.1647 25.1082C36.0898 25.0386 35.9916 25 35.8896 25H30.0797L29.8154 19.6984C29.8103 19.5943 29.7654 19.4962 29.6901 19.4244C29.6148 19.3526 29.5149 19.3125 29.411 19.3125H26.5767V17.2813C26.5769 16.6963 26.4371 16.1198 26.1692 15.6002C25.9012 15.0807 25.5129 14.6333 25.0368 14.2956C24.5607 13.9578 24.0108 13.7397 23.4333 13.6595C22.8557 13.5793 22.2674 13.6394 21.7178 13.8346C21.1682 13.6394 20.5799 13.5793 20.0023 13.6595C19.4248 13.7397 18.8749 13.9578 18.3988 14.2956C17.9227 14.6333 17.5344 15.0807 17.2664 15.6002C16.9984 16.1198 16.8587 16.6963 16.8589 17.2813V19.3125H14.0245C13.9207 19.3125 13.8207 19.3526 13.7455 19.4244C13.6702 19.4962 13.6253 19.5943 13.6201 19.6984L12.8103 35.9484C12.8076 36.0034 12.816 36.0584 12.8351 36.11C12.8542 36.1617 12.8835 36.2088 12.9213 36.2487C12.9592 36.2886 13.0047 36.3204 13.0551 36.3421C13.1055 36.3638 13.1598 36.375 13.2147 36.375H36.6994C36.7552 36.375 36.8104 36.3634 36.8615 36.341C36.9126 36.3186 36.9586 36.2859 36.9965 36.2448C37.0344 36.2037 37.0635 36.1552 37.0818 36.1024C37.1002 36.0495 37.1074 35.9934 37.1031 35.9376L36.2933 25.3751ZM35.0798 34.2636L35.9428 35.5625H34.2169L35.0798 34.2636ZM36.1769 34.4499L35.4726 33.3901L34.7174 25.8125H35.5146L36.1769 34.4499ZM33.9035 25.8125L34.6627 33.427L33.7739 34.7642L33.0876 25.8125H33.9035ZM29.2688 25H28.5067L28.2209 20.125H29.0256L29.2688 25ZM27.4096 20.125L27.6955 25H26.8401L26.5972 20.125H27.4096ZM22.9325 14.4375C23.684 14.4384 24.4044 14.7383 24.9358 15.2714C25.4671 15.8045 25.766 16.5273 25.7669 17.2813V19.3125H24.1472V17.2813C24.1472 16.7366 24.0258 16.1988 23.7917 15.7073C23.5576 15.2159 23.2169 14.7832 22.7945 14.441C22.8402 14.4388 22.8862 14.4375 22.9325 14.4375ZM21.7178 14.7124C22.2021 14.9434 22.6112 15.3072 22.8979 15.7619C23.1845 16.2165 23.3369 16.7433 23.3374 17.2813V19.3125H20.0982V17.2813C20.0987 16.7433 20.2511 16.2165 20.5377 15.7619C20.8244 15.3072 21.2335 14.9434 21.7178 14.7124ZM17.6687 17.2813C17.6696 16.5273 17.9685 15.8045 18.4998 15.2714C19.0312 14.7383 19.7516 14.4384 20.5031 14.4375C20.5494 14.4375 20.5953 14.4388 20.6411 14.441C20.2187 14.7832 19.878 15.2159 19.6439 15.7073C19.4098 16.1988 19.2883 16.7366 19.2883 17.2813V19.3125H17.6687V17.2813ZM22.5576 35.5625H13.6404L14.4097 20.125H16.8589V22.7514L15.8245 23.4433C15.769 23.4804 15.7235 23.5306 15.6921 23.5896C15.6606 23.6485 15.6442 23.7144 15.6442 23.7813V27.0313C15.6442 27.139 15.6868 27.2423 15.7628 27.3185C15.8387 27.3947 15.9417 27.4375 16.0491 27.4375H18.4785C18.5859 27.4375 18.6889 27.3947 18.7648 27.3185C18.8408 27.2423 18.8834 27.139 18.8834 27.0313V23.7813C18.8834 23.7144 18.867 23.6485 18.8355 23.5896C18.8041 23.5306 18.7586 23.4804 18.7032 23.4433L17.6687 22.7514V20.125H23.3374V21.3438C23.3374 21.4515 23.3801 21.5548 23.456 21.631C23.532 21.7072 23.6349 21.75 23.7423 21.75C23.8497 21.75 23.9527 21.7072 24.0286 21.631C24.1046 21.5548 24.1472 21.4515 24.1472 21.3438V20.125H25.7866L26.0296 25H23.7423C23.6403 25 23.5421 25.0386 23.4672 25.1082C23.3924 25.1777 23.3464 25.273 23.3386 25.3751L22.5576 35.5625ZM17.2638 23.457L18.0736 23.9987V26.625H16.454V23.9987L17.2638 23.457ZM24.1173 25.8125H32.2754L33.0229 35.5625H23.3698L24.1173 25.8125Z" fill="white"/>
<path d="M30.2208 27.4375C30.1134 27.4375 30.0105 27.4803 29.9345 27.5565C29.8586 27.6327 29.8159 27.736 29.8159 27.8438V31.0938C29.8156 31.4169 29.6875 31.7267 29.4597 31.9551C29.232 32.1836 28.9233 32.3121 28.6012 32.3125H27.7914C27.4693 32.3121 27.1606 32.1836 26.9328 31.9551C26.7051 31.7267 26.577 31.4169 26.5767 31.0938V27.8438C26.5767 27.736 26.534 27.6327 26.4581 27.5565C26.3821 27.4803 26.2791 27.4375 26.1718 27.4375C26.0644 27.4375 25.9614 27.4803 25.8854 27.5565C25.8095 27.6327 25.7668 27.736 25.7668 27.8438V31.0938C25.7674 31.6323 25.9809 32.1486 26.3605 32.5294C26.74 32.9102 27.2546 33.1244 27.7914 33.125H28.6012C29.138 33.1244 29.6526 32.9102 30.0321 32.5294C30.4116 32.1486 30.6251 31.6323 30.6257 31.0938V27.8438C30.6257 27.736 30.5831 27.6327 30.5071 27.5565C30.4312 27.4803 30.3282 27.4375 30.2208 27.4375Z" fill="white"/>
</g>
<defs>
<clipPath id="clip0_330_864">
<rect width="25.9141" height="26" fill="white" transform="translate(12 12)"/>
</clipPath>
</defs>
</svg>
