<svg width="40" height="40" viewBox="0 0 40 40" fill="none" xmlns="http://www.w3.org/2000/svg">
<circle cx="20" cy="20" r="20" fill="#B98B44"/>
<g clip-path="url(#clip0_330_942)">
<path d="M23.7455 29.5849H28.041C28.2474 29.5849 28.4147 29.417 28.4147 29.2099V20.5906C28.4147 20.3835 28.2474 20.2156 28.041 20.2156H23.7455C23.5391 20.2156 23.3717 20.3835 23.3717 20.5906V29.2099C23.3717 29.417 23.5391 29.5849 23.7455 29.5849ZM26.267 25.2753H27.6672V26.6801H26.267V25.2753ZM25.5195 26.6801H24.1192V25.2753H25.5195V26.6801ZM27.6672 24.5253H26.267V23.1204H27.6672V24.5253ZM25.5195 24.5253H24.1192V23.1204H25.5195V24.5253ZM24.1192 27.4301H25.5195V28.8349H24.1192V27.4301ZM26.267 28.8349V27.4301H27.6672V28.8349H26.267ZM27.6672 22.3704H26.267V20.9656H27.6672V22.3704ZM25.5195 20.9656V22.3705H24.1192V20.9656H25.5195ZM15.9834 20.2156H11.6879C11.4815 20.2156 11.3142 20.3835 11.3142 20.5906V29.2099C11.3142 29.417 11.4815 29.5849 11.6879 29.5849H15.9834C16.1899 29.5849 16.3572 29.417 16.3572 29.2099V20.5906C16.3572 20.3835 16.1899 20.2156 15.9834 20.2156ZM13.4619 24.5253H12.0617V23.1204H13.462L13.4619 24.5253ZM14.2094 23.1204H15.6097V24.5253H14.2094V23.1204ZM12.0617 25.2753H13.462V26.6801H12.0617V25.2753ZM14.2094 25.2753H15.6097V26.6801H14.2094V25.2753ZM15.6097 22.3704H14.2094V20.9656H15.6097V22.3704ZM13.4619 20.9656V22.3705H12.0617V20.9656H13.4619ZM12.0617 27.4301H13.462V28.8349H12.0617V27.4301ZM14.2094 28.8349V27.4301H15.6097V28.8349H14.2094ZM17.435 14.5739H15.2873C15.0809 14.5739 14.9135 14.7418 14.9135 14.9489V17.1038C14.9135 17.3109 15.0809 17.4788 15.2873 17.4788H17.435C17.6414 17.4788 17.8088 17.3109 17.8088 17.1038V14.9489C17.8088 14.7418 17.6414 14.5739 17.435 14.5739ZM17.0612 16.7288H15.661V15.3239H17.0612V16.7288ZM21.0343 14.5739H18.8866C18.6802 14.5739 18.5128 14.7418 18.5128 14.9489V17.1038C18.5128 17.3109 18.6802 17.4788 18.8866 17.4788H21.0343C21.2407 17.4788 21.4081 17.3109 21.4081 17.1038V14.9489C21.4081 14.7418 21.2407 14.5739 21.0343 14.5739ZM20.6606 16.7288H19.2603V15.3239H20.6606V16.7288ZM24.6336 14.5739H22.4859C22.2795 14.5739 22.1121 14.7418 22.1121 14.9489V17.1038C22.1121 17.3109 22.2795 17.4788 22.4859 17.4788H24.6336C24.84 17.4788 25.0073 17.3109 25.0073 17.1038V14.9489C25.0073 14.7418 24.84 14.5739 24.6336 14.5739ZM24.2598 16.7288H22.8597V15.3239H24.2598V16.7288ZM30.991 30.875H30.3147V18.5505C30.3147 18.3434 30.1474 18.1755 29.941 18.1755H26.459V13.5022C26.459 13.2951 26.2917 13.1272 26.0853 13.1272H20.3342V11.7176H23.4676C23.6017 11.7176 23.7255 11.6455 23.7921 11.5287C23.8586 11.4118 23.8577 11.2682 23.7896 11.1523L23.1405 10.0463L23.7896 8.94027C23.8577 8.82434 23.8586 8.68072 23.7921 8.56391C23.7255 8.44714 23.6017 8.375 23.4676 8.375H19.9609C19.9608 8.375 19.9606 8.375 19.9605 8.375C19.754 8.375 19.5867 8.54291 19.5867 8.75V13.1272H13.8357C13.6293 13.1272 13.4619 13.2951 13.4619 13.5022V18.1755H9.98C9.77359 18.1755 9.60623 18.3434 9.60623 18.5505V30.8749H8.92991C8.7235 30.8749 8.55615 31.0428 8.55615 31.2499C8.55615 31.457 8.7235 31.6249 8.92991 31.6249H9.97729C9.97822 31.6249 9.97911 31.625 9.98 31.625H29.941H30.991C31.1974 31.625 31.3647 31.4571 31.3647 31.25C31.3647 31.0429 31.1974 30.875 30.991 30.875ZM22.3848 10.2366L22.8138 10.9676H20.3342V9.125H22.8137L22.3847 9.85597C22.3158 9.97344 22.3158 10.1191 22.3848 10.2366ZM14.2094 13.8772H19.9595C19.9598 13.8772 19.9601 13.8773 19.9605 13.8773C19.9608 13.8773 19.9611 13.8772 19.9614 13.8772H25.7115V18.1755H14.2095V13.8772H14.2094ZM10.3538 18.9255H13.8348C13.8351 18.9255 13.8354 18.9255 13.8357 18.9255C13.836 18.9255 13.8363 18.9255 13.8367 18.9255H17.8366V22.6147C17.8366 22.8218 18.004 22.9897 18.2104 22.9897C18.4168 22.9897 18.5842 22.8218 18.5842 22.6147V18.9255H19.5867V23.4511C19.5867 23.6582 19.754 23.8261 19.9605 23.8261C20.1669 23.8261 20.3342 23.6582 20.3342 23.4511V18.9255H21.3367V22.6147C21.3367 22.8218 21.5041 22.9897 21.7105 22.9897C21.9169 22.9897 22.0843 22.8218 22.0843 22.6147V18.9255H26.0843C26.0847 18.9255 26.085 18.9255 26.0853 18.9255C26.0856 18.9255 26.0859 18.9255 26.0862 18.9255H29.5672V30.875H22.6032V25.7667C22.6032 25.5596 22.4358 25.3917 22.2294 25.3917H17.6914C17.485 25.3917 17.3176 25.5596 17.3176 25.7667V30.875H10.3538V18.9255ZM20.3342 26.1417H21.8557V30.875H20.3342V26.1417ZM19.5867 30.875H18.0652V26.1417H19.5867V30.875Z" fill="white"/>
</g>
<defs>
<clipPath id="clip0_330_942">
<rect width="23.9207" height="24" fill="white" transform="translate(8 8)"/>
</clipPath>
</defs>
</svg>
