<svg width="40" height="40" viewBox="0 0 40 40" fill="none" xmlns="http://www.w3.org/2000/svg">
<circle cx="20" cy="20" r="20" fill="#B98B44"/>
<g clip-path="url(#clip0_330_911)">
<path d="M15.4741 22.0797H12.71V22.773H15.4741V22.0797Z" fill="white"/>
<path d="M30.2947 26.0846L29.2582 24.0047C29.1996 23.8872 29.08 23.813 28.9491 23.813H26.876V22.7731C26.876 22.5816 26.7213 22.4264 26.5305 22.4264H19.6202C19.4294 22.4264 19.2747 22.5816 19.2747 22.7731V29.0129C19.2747 29.2044 19.4294 29.3596 19.6202 29.3596H21.0513C21.2384 30.0983 21.9869 30.5448 22.7231 30.3571C23.2116 30.2325 23.5931 29.8498 23.7173 29.3596H26.234C26.4211 30.0983 27.1697 30.5448 27.9058 30.3571C28.3944 30.2325 28.7759 29.8498 28.9 29.3596H29.9856C30.1765 29.3596 30.3312 29.2044 30.3312 29.0129V26.2397C30.3312 26.1858 30.3187 26.1328 30.2947 26.0846ZM22.3843 29.7063C22.0026 29.7063 21.6933 29.3959 21.6933 29.0129C21.6933 28.63 22.0026 28.3196 22.3843 28.3196C22.766 28.3196 23.0753 28.63 23.0753 29.0129C23.0749 29.3957 22.7658 29.7059 22.3843 29.7063ZM26.185 28.6663H23.7173C23.5607 28.0556 23.0128 27.6282 22.3843 27.6263C21.7559 27.6282 21.2079 28.0556 21.0513 28.6663H19.9657V23.1197H26.185V28.6663ZM28.2581 24.5064H28.7355L29.4266 25.893H28.2581V24.5064ZM27.567 29.7063C27.1854 29.7063 26.876 29.3959 26.876 29.0129C26.876 28.63 27.1854 28.3196 27.567 28.3196C27.9487 28.3196 28.2581 28.63 28.2581 29.0129C28.2577 29.3957 27.9485 29.7059 27.567 29.7063ZM29.6401 28.6663H28.9C28.7434 28.0556 28.1955 27.6282 27.567 27.6263C27.3237 27.6277 27.0851 27.6943 26.876 27.8192V24.5064H27.567V26.2397C27.567 26.4311 27.7217 26.5863 27.9126 26.5863H29.6401V28.6663Z" fill="white"/>
<path d="M17.8918 14.4532H17.2017V15.1466H17.8918V14.4532Z" fill="white"/>
<path d="M19.2739 14.4532H18.5837V15.1466H19.2739V14.4532Z" fill="white"/>
<path d="M20.6559 14.4532H19.9658V15.1466H20.6559V14.4532Z" fill="white"/>
<path d="M22.038 14.4532H21.3479V15.1466H22.038V14.4532Z" fill="white"/>
<path d="M28.6337 15.3903L27.5632 14.3161C26.7673 13.5186 25.6893 13.0694 24.5646 13.0666H21.8848L20.2588 10.4563C20.1956 10.355 20.0849 10.2933 19.9657 10.2933H18.9292C18.7383 10.2934 18.5836 10.4487 18.5837 10.6403C18.5837 10.6686 18.5871 10.6967 18.594 10.7241L19.1777 13.0666H16.4222L15.4595 9.8471C15.4157 9.70042 15.2811 9.59998 15.1285 9.59998H13.4009C13.2101 9.59998 13.0554 9.75519 13.0554 9.94664V13.4132H13.0587C13.0575 13.5048 13.0928 13.593 13.1567 13.6583L15.3161 15.825C16.2071 16.7247 17.4198 17.2294 18.6839 17.2265H18.778L17.9195 19.1658C17.842 19.3408 17.9206 19.5456 18.0949 19.6233C18.1051 19.6278 18.1154 19.6319 18.126 19.6354L19.1618 19.982C19.3069 20.0305 19.4665 19.9776 19.5542 19.8519L21.3848 17.2265H27.8746C28.4665 17.2276 28.9472 16.7471 28.9483 16.1533C28.9488 15.8671 28.8356 15.5925 28.6337 15.3903ZM19.7742 10.9866L21.0699 13.0666H19.89L19.3717 10.9866H19.7742ZM13.7465 10.2933H14.8714L15.7006 13.0666H13.7465V10.2933ZM19.1359 19.2425L18.7055 19.0984L19.841 16.5332H21.0249L19.1359 19.2425ZM28.2291 16.2956C28.1715 16.4409 28.0305 16.5354 27.8746 16.5332H21.8682L21.9713 16.3853C22.0807 16.2283 22.0425 16.0122 21.8862 15.9024C21.8281 15.8618 21.759 15.8399 21.6882 15.8399H19.6165C19.4799 15.8399 19.3561 15.9206 19.3007 16.0459L19.0849 16.5332H18.6839C17.6031 16.5356 16.5664 16.104 15.8047 15.3348L14.235 13.7599H24.5646C25.3179 13.7632 26.0507 14.0059 26.6579 14.4532H24.1119V15.1465H27.4134L28.1459 15.8815C28.2566 15.9888 28.2897 16.1536 28.2291 16.2956Z" fill="white"/>
<path d="M18.0701 29.4516C17.8525 29.2172 17.5607 29.0657 17.2444 29.0228L18.5637 25.3164C18.6278 25.1358 18.5339 24.9373 18.3539 24.873C18.3518 24.8723 18.3497 24.8716 18.3476 24.8709L17.505 24.5891L16.8506 20.9779C16.8208 20.813 16.6777 20.6932 16.5107 20.6932H15.1286V19.6532C15.1286 19.4617 14.9739 19.3065 14.7831 19.3065H13.4011C13.2102 19.3065 13.0555 19.4617 13.0555 19.6532V20.6932H11.6735C11.5065 20.6932 11.3634 20.813 11.3335 20.9779L10.6791 24.5891L9.83658 24.8709C9.6554 24.9317 9.55771 25.1283 9.6183 25.31C9.61899 25.3122 9.61973 25.3142 9.62046 25.3164L10.9398 29.0229C10.624 29.0661 10.3327 29.2176 10.1155 29.4516C9.99042 29.6096 9.80143 29.7031 9.60038 29.7063V30.3997C9.97479 30.3976 10.3313 30.2387 10.5838 29.9613C10.7088 29.8031 10.8979 29.7096 11.0991 29.7063C11.172 29.7057 11.2445 29.7193 11.3124 29.7463C11.3153 29.7476 11.3171 29.7503 11.3201 29.7515C11.4284 29.8057 11.5268 29.8779 11.6111 29.9652C11.8661 30.2402 12.2231 30.3974 12.5975 30.3997C12.9718 30.3976 13.3283 30.2386 13.5806 29.9611C13.798 29.6762 14.2043 29.6221 14.4883 29.8401C14.5335 29.8749 14.574 29.9155 14.6087 29.9609C14.8608 30.2385 15.217 30.3975 15.5913 30.3997C15.9655 30.3974 16.3222 30.2401 16.5769 29.965C16.6604 29.8784 16.7579 29.8065 16.8652 29.7524C16.8683 29.7511 16.8703 29.7482 16.8733 29.7468C16.9414 29.7195 17.0141 29.7058 17.0874 29.7064C17.288 29.7096 17.4766 29.8032 17.6011 29.9611C17.8533 30.2386 18.2096 30.3975 18.5838 30.3997V29.7064C18.3831 29.7031 18.1945 29.6096 18.0701 29.4516ZM13.7466 19.9998H14.4376V20.6932H13.7466V19.9998ZM13.7466 29.0582C13.5051 29.1331 13.2867 29.2685 13.1119 29.4516C12.894 29.7368 12.4869 29.7907 12.2026 29.572C12.1575 29.5373 12.1172 29.4968 12.0826 29.4516C11.9754 29.3465 11.8565 29.254 11.7282 29.176L10.3899 25.4166L13.7466 24.2941V29.0582ZM13.9828 23.4842L11.4268 24.339L11.9618 21.3865H16.2224L16.7574 24.339L14.2014 23.4842C14.1304 23.4605 14.0537 23.4605 13.9828 23.4842ZM16.4552 29.1783C16.3285 29.2559 16.211 29.3476 16.1048 29.4518C15.8879 29.7363 15.4821 29.7905 15.1984 29.5729C15.153 29.538 15.1124 29.4973 15.0777 29.4518C14.9018 29.2668 14.6814 29.1306 14.4376 29.0563V24.2941L17.7943 25.4166L16.4552 29.1783Z" fill="white"/>
<path d="M23.4201 14.4532H22.73V15.1466H23.4201V14.4532Z" fill="white"/>
</g>
<defs>
<clipPath id="clip0_330_911">
<rect width="20.7313" height="20.8" fill="white" transform="translate(9.6001 9.59998)"/>
</clipPath>
</defs>
</svg>
