<svg width="36" height="36" viewBox="0 0 36 36" fill="none" xmlns="http://www.w3.org/2000/svg">
<circle cx="18" cy="18" r="18" fill="#FEFEFE"/>
<path d="M8 17.77C8 17.5048 8.10536 17.2504 8.29289 17.0629C8.48043 16.8754 8.73478 16.77 9 16.77H27.05C27.3152 16.77 27.5696 16.8754 27.7571 17.0629C27.9446 17.2504 28.05 17.5048 28.05 17.77C28.05 18.0352 27.9446 18.2896 27.7571 18.4771C27.5696 18.6647 27.3152 18.77 27.05 18.77H9.01C8.87784 18.7713 8.74673 18.7465 8.62424 18.6968C8.50176 18.6471 8.39034 18.5737 8.29642 18.4807C8.2025 18.3877 8.12794 18.277 8.07707 18.155C8.02619 18.033 7.99999 17.9022 8 17.77Z" fill="#010101"/>
</svg>
