<svg width="48" height="48" viewBox="0 0 48 48" fill="none" xmlns="http://www.w3.org/2000/svg">
<circle cx="24" cy="24" r="23.5" transform="matrix(-1 0 0 1 48 0)" fill="black" stroke="white"/>
<path fill-rule="evenodd" clip-rule="evenodd" d="M14.1844 25.4252L34.184 25.4252L34.184 23.7109L14.1844 23.7109L14.1844 25.4252Z" fill="white"/>
<path fill-rule="evenodd" clip-rule="evenodd" d="M15.0409 23.7107C19.0723 23.7107 22.3666 27.256 22.3667 31.0364L22.3667 31.8936L20.6524 31.8936L20.6523 31.0364C20.6524 28.1661 18.0894 25.425 15.0409 25.425L14.1843 25.425L14.1843 23.7107L15.0409 23.7107Z" fill="white"/>
<path fill-rule="evenodd" clip-rule="evenodd" d="M15.041 25.425C19.0724 25.425 22.3667 21.8796 22.3667 18.0992L22.3667 17.2421L20.6524 17.242L20.6524 18.0992C20.6524 20.9696 18.0894 23.7107 15.041 23.7107L14.1843 23.7107L14.1843 25.425L15.041 25.425Z" fill="white"/>
</svg>
