<svg id="Use_the_App" data-name="Use the App" xmlns="http://www.w3.org/2000/svg" xmlns:xlink="http://www.w3.org/1999/xlink" width="56" height="56" viewBox="0 0 56 56">
  <defs>
    <clipPath id="clip-path">
      <rect id="Rectángulo_1333" data-name="Rectángulo 1333" width="56" height="56" fill="none"/>
    </clipPath>
  </defs>
  <g id="Grupo_6473" data-name="Grupo 6473" clip-path="url(#clip-path)">
    <path id="Trazado_1801" data-name="Trazado 1801" d="M49.357,37.183q-.1,5.646-.415,11.285a6.365,6.365,0,0,1-5.75,6.114c-2.966.285-7.236.541-12.973.541s-10.007-.256-12.972-.541a6.363,6.363,0,0,1-5.75-6.114c-.242-4.131-.5-10.755-.5-20.254s.255-16.114.5-20.246a6.524,6.524,0,0,1,5.875-6.134c1.5-.142,3.318-.275,5.484-.373,1.281,6.533,1.281,7.8,7.6,7.8s5.966-1.094,7.582-7.582c.906.046,2.166-.069,3.073-.006l1.86.285a7.575,7.575,0,0,1,6.43,7.5Z" transform="translate(-2.2 -0.292)" fill="#ffd21f"/>
    <path id="Trazado_1802" data-name="Trazado 1802" d="M30,55.777c-4.892,0-9.285-.184-13.055-.545A7.2,7.2,0,0,1,10.407,48.3c-.228-3.886-.5-10.562-.5-20.306s.272-16.41.5-20.3A7.354,7.354,0,0,1,17.071.747C18.781.585,20.641.459,22.6.371L37.831.584l.033,0c.41.02.9.006,1.385-.007.6-.017,1.2-.032,1.7,0l1.93.291a8.4,8.4,0,0,1,7.171,8.365l-.044,27.73c-.066,3.772-.206,7.58-.417,11.332a7.2,7.2,0,0,1-6.538,6.934c-3.773.361-8.166.545-13.056.545M22.625,2.116c-1.877.086-3.708.21-5.39.369A5.619,5.619,0,0,0,12.149,7.8c-.226,3.863-.5,10.5-.5,20.194s.27,16.341.5,20.2a5.481,5.481,0,0,0,4.962,5.3c3.716.356,8.053.536,12.89.536s9.172-.18,12.89-.536a5.48,5.48,0,0,0,4.961-5.3c.21-3.727.349-7.513.414-11.25l.044-27.715A6.661,6.661,0,0,0,42.62,2.6l-1.859-.284c-.381-.024-.926-.006-1.462.007s-1.059.029-1.507.006Z" transform="translate(-1.981 -0.074)" fill="#111f29"/>
    <path id="Trazado_1803" data-name="Trazado 1803" d="M35.985,9.772H29.958a4.723,4.723,0,0,1-4.68-4.132l-.521-4.165C24.7,1,26.43.78,26.489,1.259l.521,4.165a2.976,2.976,0,0,0,2.949,2.6h6.026a2.977,2.977,0,0,0,2.949-2.6l.52-4.163c.059-.479,1.791-.262,1.731.216l-.52,4.164a4.724,4.724,0,0,1-4.68,4.131" transform="translate(-4.951 -0.198)" fill="#111f29"/>
    <path id="Trazado_1804" data-name="Trazado 1804" d="M38.019,57.257A1.553,1.553,0,0,0,36.467,55.7H31.586a1.553,1.553,0,1,0,0,3.106h4.881a1.553,1.553,0,0,0,1.553-1.553" transform="translate(-6.007 -11.141)" fill="#111f29"/>
  </g>
</svg>
