<svg width="76" height="76" viewBox="0 0 76 76" fill="none" xmlns="http://www.w3.org/2000/svg">
<circle cx="38" cy="38" r="38" fill="white"/>
<g clip-path="url(#clip0_61_2111)">
<path d="M38.006 14H37.994C24.761 14 14 24.764 14 38C14 43.25 15.692 48.116 18.569 52.067L15.578 60.983L24.803 58.034C28.598 60.548 33.125 62 38.006 62C51.239 62 62 51.233 62 38C62 24.767 51.239 14 38.006 14Z" fill="#4CAF50"/>
<path d="M51.9709 47.891C51.3919 49.526 49.0939 50.882 47.2609 51.278C46.0069 51.545 44.3689 51.758 38.8549 49.472C31.8019 46.55 27.2599 39.383 26.9059 38.918C26.5669 38.453 24.0559 35.123 24.0559 31.679C24.0559 28.235 25.8049 26.558 26.5099 25.838C27.0889 25.247 28.0459 24.977 28.9639 24.977C29.2609 24.977 29.5279 24.992 29.7679 25.004C30.4729 25.034 30.8269 25.076 31.2919 26.189C31.8709 27.584 33.2809 31.028 33.4489 31.382C33.6199 31.736 33.7909 32.216 33.5509 32.681C33.3259 33.161 33.1279 33.374 32.7739 33.782C32.4199 34.19 32.0839 34.502 31.7299 34.94C31.4059 35.321 31.0399 35.729 31.4479 36.434C31.8559 37.124 33.2659 39.425 35.3419 41.273C38.0209 43.658 40.1929 44.42 40.9699 44.744C41.5489 44.984 42.2389 44.927 42.6619 44.477C43.1989 43.898 43.8619 42.938 44.5369 41.993C45.0169 41.315 45.6229 41.231 46.2589 41.471C46.9069 41.696 50.3359 43.391 51.0409 43.742C51.7459 44.096 52.2109 44.264 52.3819 44.561C52.5499 44.858 52.5499 46.253 51.9709 47.891Z" fill="#FAFAFA"/>
</g>
<defs>
<clipPath id="clip0_61_2111">
<rect width="48" height="48" fill="white" transform="translate(14 14)"/>
</clipPath>
</defs>
</svg>
