<svg width="64" height="64" viewBox="0 0 64 64" fill="none" xmlns="http://www.w3.org/2000/svg">
<circle cx="32" cy="32" r="32" fill="#B98B44"/>
<g clip-path="url(#clip0_330_581)">
<path d="M48.5159 23.9281C48.5159 23.9281 48.5159 23.9281 48.5158 23.9281L48.5147 23.9269L46.3201 23.6138C46.0116 23.5699 45.7972 23.2842 45.8411 22.9758C45.8622 22.8275 45.9414 22.6938 46.0611 22.604L47.8349 21.2737C48.0842 21.0867 48.1346 20.7331 47.9477 20.4839L45.9167 17.7759C45.7298 17.5266 45.3762 17.4761 45.1269 17.663L43.3537 18.9933C43.1055 19.1817 42.7516 19.1332 42.5633 18.8849C42.4718 18.7644 42.4326 18.6122 42.4544 18.4625L42.7681 16.2679C42.8123 15.9594 42.5982 15.6736 42.2898 15.6293C42.2896 15.6293 42.2894 15.6292 42.2891 15.6292L38.9403 15.1508C38.6319 15.1065 38.3459 15.3206 38.3016 15.6291C38.3016 15.6292 38.3016 15.6292 38.3016 15.6292L37.988 17.8238C37.944 18.1323 37.6583 18.3467 37.3499 18.3028C37.2017 18.2817 37.068 18.2025 36.9781 18.0828L35.6484 16.309C35.4614 16.0598 35.1078 16.0093 34.8585 16.1962L33.1632 17.4684C32.3963 17.3869 31.6228 17.3869 30.8558 17.4684C25.8329 18.0425 21.894 22.0482 21.4044 27.08C21.3891 27.2397 21.3835 27.3982 21.3756 27.5568H21.2064C20.9387 27.5573 20.7081 27.7458 20.6546 28.0081L20.2648 29.8619L18.7032 28.785C18.4791 28.6303 18.1764 28.6579 17.9839 28.8504L16.2914 30.5429C16.0991 30.7353 16.0716 31.0376 16.2259 31.2616L17.2978 32.8204L15.4434 33.2102C15.1841 33.2671 14.9994 33.4971 15 33.7626V36.0192C14.9999 36.2861 15.1868 36.5165 15.4479 36.5715L17.3024 36.9614L16.2304 38.5202C16.0761 38.7442 16.1036 39.0464 16.2959 39.2389L17.9884 40.9314C18.1809 41.1239 18.4836 41.1515 18.7077 40.9968L20.2665 39.9221L20.6563 41.7765C20.7098 42.0388 20.9404 42.2273 21.2081 42.2278H23.4647C23.7316 42.228 23.962 42.041 24.017 41.7799L24.4069 39.9255L25.9656 40.9974C26.1897 41.1517 26.4919 41.1242 26.6844 40.9319L27.5605 40.053V41.6608C27.5631 42.4634 27.993 43.2038 28.6889 43.6038V46.7383C28.6889 47.9846 29.6992 48.995 30.9455 48.995H33.2022C34.4485 48.995 35.4588 47.9846 35.4588 46.7383V43.6038C36.1546 43.2038 36.5846 42.4634 36.5871 41.6608V39.4279C36.6024 38.4883 37.094 37.6209 37.8921 37.125C38.3602 36.8212 38.8042 36.4817 39.2201 36.1095L38.4675 35.2689C38.0955 35.6023 37.6981 35.9062 37.2788 36.1777C36.1586 36.8808 35.4729 38.1053 35.4588 39.4279V41.6608C35.4588 42.284 34.9537 42.7892 34.3305 42.7892H29.8172C29.194 42.7892 28.6889 42.284 28.6889 41.6608V39.3811C28.6758 38.0836 28.0009 36.8827 26.8993 36.1969C22.4278 33.3873 21.0806 27.4848 23.8903 23.0133C25.6336 20.2389 28.676 18.5503 31.9525 18.5386C31.9441 18.5587 31.9367 18.5792 31.9305 18.6001C31.9096 18.7482 31.9484 18.8986 32.0383 19.0182L33.368 20.7913C33.5082 20.9728 33.5217 21.222 33.4019 21.4175C33.2865 21.6143 33.0634 21.7216 32.8377 21.6889L30.6431 21.3752C30.3347 21.331 30.0488 21.5452 30.0046 21.8536C30.0046 21.8538 30.0045 21.854 30.0045 21.8542L29.5255 25.2048C29.4813 25.5132 29.6955 25.799 30.0039 25.8433C30.0041 25.8433 30.0043 25.8434 30.0045 25.8434L32.1991 26.1571C32.5075 26.201 32.722 26.4867 32.6781 26.7951C32.657 26.9434 32.5778 27.0771 32.458 27.1669L30.6849 28.4967C30.4356 28.6836 30.3851 29.0372 30.572 29.2865L32.603 31.9945C32.79 32.2438 33.1436 32.2943 33.3929 32.1073L35.1666 30.7776C35.4161 30.591 35.7697 30.642 35.9563 30.8915C36.0455 31.0109 36.084 31.1609 36.063 31.3085L35.7499 33.503C35.7056 33.8114 35.9197 34.0974 36.2282 34.1417C36.2283 34.1417 36.2283 34.1417 36.2283 34.1417L39.5795 34.6207C39.6058 34.624 39.6324 34.6257 39.659 34.6257C39.9399 34.6261 40.1782 34.4197 40.2181 34.1417L40.5312 31.9471C40.5751 31.6386 40.8608 31.4242 41.1693 31.4681C41.3175 31.4892 41.4512 31.5684 41.5411 31.6881L42.8714 33.4613C43.0583 33.7106 43.4119 33.7611 43.6612 33.5741L46.3692 31.5431C46.6185 31.3562 46.669 31.0026 46.482 30.7533L45.1523 28.9802C45.0127 28.7984 44.9992 28.5496 45.1184 28.3539C45.2313 28.1546 45.4564 28.0465 45.6826 28.0831L47.8772 28.3962C48.1856 28.4405 48.4715 28.2264 48.5158 27.918C48.5158 27.9179 48.5158 27.9179 48.5158 27.9178L48.9942 24.5667C49.0385 24.2582 48.8244 23.9724 48.5159 23.9281ZM29.8172 43.9175H34.3305V45.0458H29.8172V43.9175ZM29.8172 46.1742H34.3305V46.7383C34.3305 47.3615 33.8254 47.8666 33.2022 47.8666H30.9455C30.3223 47.8666 29.8172 47.3615 29.8172 46.7383V46.1742ZM25.3259 36.4452C25.6339 36.6971 25.9558 36.9316 26.29 37.1475C26.8231 37.4844 27.2244 37.9941 27.4268 38.5912L26.2167 39.7991L25.0449 38.9912C24.5318 38.6376 23.8292 38.767 23.4756 39.2801C23.3908 39.4031 23.3313 39.5418 23.3005 39.688L23.0049 41.0967H21.6639L21.3683 39.6902C21.2399 39.0804 20.6416 38.6901 20.0318 38.8185C19.8856 38.8492 19.7469 38.9087 19.6239 38.9935L18.4516 39.7991L17.4236 38.7735L18.231 37.6023C18.5849 37.0894 18.456 36.3867 17.9431 36.0328C17.82 35.9478 17.6812 35.8881 17.5348 35.8573L16.1283 35.5611V34.2207L17.5348 33.9245C18.1444 33.7952 18.5338 33.1963 18.4045 32.5866C18.3738 32.442 18.3151 32.3048 18.2315 32.1829L17.4236 31.0083L18.4516 29.9827L19.6244 30.7906C20.1378 31.1438 20.8404 31.014 21.1936 30.5007C21.2782 30.3778 21.3376 30.2393 21.3683 30.0932L21.467 29.6239C21.5574 30.2739 21.7071 30.9142 21.9144 31.5369C20.0581 31.7582 18.7326 33.4425 18.9539 35.2988C19.1752 37.1552 20.8595 38.4806 22.7158 38.2593C23.8333 38.126 24.8115 37.4461 25.3259 36.4452ZM24.4497 35.6503C24.0284 36.8212 22.7377 37.429 21.5667 37.0078C20.3957 36.5865 19.788 35.2957 20.2092 34.1248C20.5315 33.2289 21.382 32.6323 22.3341 32.6342C22.3414 32.6342 22.3482 32.6342 22.3555 32.6342C22.8743 33.7529 23.5828 34.7733 24.4497 35.6503ZM47.4755 27.198L45.8394 26.9644C44.9141 26.8322 44.0568 27.4753 43.9247 28.4006C43.8612 28.845 43.9768 29.2964 44.2462 29.6555L45.2375 30.9773L43.4321 32.3313L42.4403 31.01C41.8796 30.2621 40.8187 30.1105 40.0709 30.6712C39.7118 30.9405 39.4744 31.3414 39.4108 31.7857L39.1823 33.4241L36.9488 33.1047L37.1823 31.4687C37.3148 30.5434 36.6721 29.6858 35.7468 29.5534C35.3022 29.4897 34.8506 29.6054 34.4913 29.8749L33.1694 30.8661L31.8154 29.0608L33.1367 28.069C33.8846 27.5082 34.0363 26.4474 33.4755 25.6996C33.2063 25.3405 32.8053 25.1031 32.361 25.0395L30.7249 24.8059L31.0442 22.5724L32.6803 22.8059C33.6056 22.9385 34.4631 22.2957 34.5956 21.3704C34.6593 20.9258 34.5436 20.4742 34.2741 20.1149L33.2795 18.7919L35.0848 17.4379L36.0766 18.7598C36.6374 19.5076 37.6982 19.6593 38.446 19.0986C38.8051 18.8293 39.0425 18.4284 39.1061 17.984L39.3397 16.348L41.5732 16.6667L41.3397 18.3028C41.2075 19.2282 41.8505 20.0854 42.7759 20.2176C43.2202 20.281 43.6716 20.1654 44.0307 19.896L45.3525 18.9048L46.7065 20.7101L45.3847 21.7019C44.6368 22.2627 44.4851 23.3235 45.0459 24.0713C45.3152 24.4304 45.7161 24.6678 46.1604 24.7314L47.7965 24.965L47.4755 27.198Z" fill="white"/>
<path d="M39.2589 20.3716C36.7663 20.3716 34.7456 22.3923 34.7456 24.8849C34.7456 27.3775 36.7663 29.3982 39.2589 29.3982C41.7515 29.3982 43.7722 27.3775 43.7722 24.8849C43.7694 22.3934 41.7504 20.3743 39.2589 20.3716ZM39.2589 28.2699C37.3894 28.2699 35.8739 26.7544 35.8739 24.8849C35.8739 23.0154 37.3894 21.4999 39.2589 21.4999C41.1284 21.4999 42.6439 23.0154 42.6439 24.8849C42.6417 26.7535 41.1275 28.2677 39.2589 28.2699Z" fill="white"/>
<path d="M32.6381 39.9684H31.5098V41.6609H32.6381V39.9684Z" fill="white"/>
<path d="M29.6063 34.4277C26.1237 33.0672 24.4033 29.1411 25.7639 25.6584C26.2911 24.309 27.2372 23.1642 28.4633 22.3924L27.8602 21.4379C24.1695 23.763 23.0624 28.6398 25.3875 32.3306C26.288 33.76 27.6231 34.863 29.1967 35.4776C30.5896 36.0113 31.5094 37.3484 31.5098 38.84H32.6381C32.6399 36.883 31.4338 35.1278 29.6063 34.4277Z" fill="white"/>
<path d="M46.7421 36.0192H42.793V37.1476H46.7421V36.0192Z" fill="white"/>
<path d="M42.5899 38.9704L41.8677 39.8373L45.2529 42.6576L45.9751 41.7907L42.5899 38.9704Z" fill="white"/>
<path d="M40.5363 40.5325H39.408V44.4817H40.5363V40.5325Z" fill="white"/>
<path d="M20.0892 23.6242L15.5762 24.7523L15.8497 25.8464L20.3626 24.7182L20.0892 23.6242Z" fill="white"/>
<path d="M17.1686 18.0718L16.5132 18.9895L20.462 21.81L21.1175 20.8924L17.1686 18.0718Z" fill="white"/>
<path d="M22.4403 15.0047L21.3472 15.2842L22.501 19.7971L23.5942 19.5177L22.4403 15.0047Z" fill="white"/>
</g>
<defs>
<clipPath id="clip0_330_581">
<rect width="34" height="34" fill="white" transform="translate(15 15)"/>
</clipPath>
</defs>
</svg>
