<svg width="315" height="315" viewBox="0 0 315 315" fill="none" xmlns="http://www.w3.org/2000/svg">
<g opacity="0.2">
<path d="M212.793 284.776C195.845 292.143 177.155 296.263 157.5 296.263C139.516 296.263 122.356 292.826 106.585 286.588L98.6759 303.631C116.848 310.951 136.692 315 157.5 315C179.956 315 201.283 310.269 220.608 301.795L212.793 284.776Z" fill="#B88B43"/>
<path d="M173.459 75.4898L157.665 41.6877L142.176 75.4898L58.5652 254.763C33.9434 229.718 18.7371 195.398 18.7371 157.5C18.7371 80.8568 80.8568 18.7371 157.5 18.7371C234.143 18.7371 296.263 80.8568 296.263 157.5C296.263 185.77 287.789 212.04 273.289 233.955L282.304 253.469C302.783 226.893 315 193.632 315 157.5C315 70.5231 244.477 0 157.5 0C70.5231 0 0 70.5231 0 157.5C0 203.001 19.3256 243.983 50.1853 272.724L49.9264 273.312H50.8209C57.6943 279.668 65.1562 285.388 73.0888 290.425L117.178 196.057L157.712 108.986L173.507 75.4898H173.459Z" fill="#B88B43"/>
<path d="M256.482 254.716L204.508 142.788V142.717L188.972 109.151L144.295 205.378H175.366L188.925 176.213L233.814 273.265H233.908C233.908 273.265 233.861 273.289 233.837 273.312L241.794 290.496C249.773 285.411 257.282 279.644 264.226 273.265H265.05L256.505 254.669L256.482 254.716Z" fill="#B88B43"/>
</g>
</svg>
