<svg width="40" height="40" viewBox="0 0 40 40" fill="none" xmlns="http://www.w3.org/2000/svg">
<circle cx="20" cy="20" r="20" fill="#B98B44"/>
<path d="M18.2287 14.2498H19.6453C19.7392 14.2498 19.8293 14.2125 19.8957 14.1461C19.9621 14.0797 19.9994 13.9896 19.9994 13.8957V11.7708C19.9994 11.6769 19.9621 11.5868 19.8957 11.5204C19.8293 11.4539 19.7392 11.4166 19.6453 11.4166H18.2287C18.1347 11.4166 18.0447 11.4539 17.9782 11.5204C17.9118 11.5868 17.8745 11.6769 17.8745 11.7708V13.8957C17.8745 13.9896 17.9118 14.0797 17.9782 14.1461C18.0447 14.2125 18.1347 14.2498 18.2287 14.2498ZM18.5828 12.1249H19.2911V13.5415H18.5828V12.1249Z" fill="white"/>
<path d="M21.0619 14.2498H22.4785C22.5725 14.2498 22.6625 14.2125 22.7289 14.1461C22.7954 14.0797 22.8327 13.9896 22.8327 13.8957V11.7708C22.8327 11.6769 22.7954 11.5868 22.7289 11.5204C22.6625 11.4539 22.5725 11.4166 22.4785 11.4166H21.0619C20.968 11.4166 20.8779 11.4539 20.8115 11.5204C20.7451 11.5868 20.7078 11.6769 20.7078 11.7708V13.8957C20.7078 13.9896 20.7451 14.0797 20.8115 14.1461C20.8779 14.2125 20.968 14.2498 21.0619 14.2498ZM21.4161 12.1249H22.1244V13.5415H21.4161V12.1249Z" fill="white"/>
<path d="M23.8949 14.2498H25.3115C25.4055 14.2498 25.4955 14.2125 25.562 14.1461C25.6284 14.0797 25.6657 13.9896 25.6657 13.8957V11.7708C25.6657 11.6769 25.6284 11.5868 25.562 11.5204C25.4955 11.4539 25.4055 11.4166 25.3115 11.4166H23.8949C23.801 11.4166 23.7109 11.4539 23.6445 11.5204C23.5781 11.5868 23.5408 11.6769 23.5408 11.7708V13.8957C23.5408 13.9896 23.5781 14.0797 23.6445 14.1461C23.7109 14.2125 23.801 14.2498 23.8949 14.2498ZM24.2491 12.1249H24.9574V13.5415H24.2491V12.1249Z" fill="white"/>
<path d="M18.2287 17.7913H19.6453C19.7392 17.7913 19.8293 17.754 19.8957 17.6876C19.9621 17.6212 19.9994 17.5311 19.9994 17.4372V15.3123C19.9994 15.2184 19.9621 15.1283 19.8957 15.0619C19.8293 14.9954 19.7392 14.9581 19.6453 14.9581H18.2287C18.1347 14.9581 18.0447 14.9954 17.9782 15.0619C17.9118 15.1283 17.8745 15.2184 17.8745 15.3123V17.4372C17.8745 17.5311 17.9118 17.6212 17.9782 17.6876C18.0447 17.754 18.1347 17.7913 18.2287 17.7913ZM18.5828 15.6664H19.2911V17.083H18.5828V15.6664Z" fill="white"/>
<path d="M21.0619 17.7913H22.4785C22.5725 17.7913 22.6625 17.754 22.7289 17.6876C22.7954 17.6212 22.8327 17.5311 22.8327 17.4372V15.3123C22.8327 15.2184 22.7954 15.1283 22.7289 15.0619C22.6625 14.9954 22.5725 14.9581 22.4785 14.9581H21.0619C20.968 14.9581 20.8779 14.9954 20.8115 15.0619C20.7451 15.1283 20.7078 15.2184 20.7078 15.3123V17.4372C20.7078 17.5311 20.7451 17.6212 20.8115 17.6876C20.8779 17.754 20.968 17.7913 21.0619 17.7913ZM21.4161 15.6664H22.1244V17.083H21.4161V15.6664Z" fill="white"/>
<path d="M23.8949 17.7913H25.3115C25.4055 17.7913 25.4955 17.754 25.562 17.6876C25.6284 17.6212 25.6657 17.5311 25.6657 17.4372V15.3123C25.6657 15.2184 25.6284 15.1283 25.562 15.0619C25.4955 14.9954 25.4055 14.9581 25.3115 14.9581H23.8949C23.801 14.9581 23.7109 14.9954 23.6445 15.0619C23.5781 15.1283 23.5408 15.2184 23.5408 15.3123V17.4372C23.5408 17.5311 23.5781 17.6212 23.6445 17.6876C23.7109 17.754 23.801 17.7913 23.8949 17.7913ZM24.2491 15.6664H24.9574V17.083H24.2491V15.6664Z" fill="white"/>
<path d="M15.3954 14.2498H16.812C16.9059 14.2498 16.996 14.2125 17.0624 14.1461C17.1289 14.0797 17.1662 13.9896 17.1662 13.8957V11.7708C17.1662 11.6769 17.1289 11.5868 17.0624 11.5204C16.996 11.4539 16.9059 11.4166 16.812 11.4166H15.3954C15.3015 11.4166 15.2114 11.4539 15.145 11.5204C15.0786 11.5868 15.0413 11.6769 15.0413 11.7708V13.8957C15.0413 13.9896 15.0786 14.0797 15.145 14.1461C15.2114 14.2125 15.3015 14.2498 15.3954 14.2498ZM15.7496 12.1249H16.4579V13.5415H15.7496V12.1249Z" fill="white"/>
<path d="M15.3954 17.7913H16.812C16.9059 17.7913 16.996 17.754 17.0624 17.6876C17.1289 17.6212 17.1662 17.5311 17.1662 17.4372V15.3123C17.1662 15.2184 17.1289 15.1283 17.0624 15.0619C16.996 14.9954 16.9059 14.9581 16.812 14.9581H15.3954C15.3015 14.9581 15.2114 14.9954 15.145 15.0619C15.0786 15.1283 15.0413 15.2184 15.0413 15.3123V17.4372C15.0413 17.5311 15.0786 17.6212 15.145 17.6876C15.2114 17.754 15.3015 17.7913 15.3954 17.7913ZM15.7496 15.6664H16.4579V17.083H15.7496V15.6664Z" fill="white"/>
<path d="M18.2287 21.3328H19.6453C19.7392 21.3328 19.8293 21.2955 19.8957 21.2291C19.9621 21.1627 19.9994 21.0726 19.9994 20.9787V18.8538C19.9994 18.7599 19.9621 18.6698 19.8957 18.6034C19.8293 18.5369 19.7392 18.4996 19.6453 18.4996H18.2287C18.1347 18.4996 18.0447 18.5369 17.9782 18.6034C17.9118 18.6698 17.8745 18.7599 17.8745 18.8538V20.9787C17.8745 21.0726 17.9118 21.1627 17.9782 21.2291C18.0447 21.2955 18.1347 21.3328 18.2287 21.3328ZM18.5828 19.2079H19.2911V20.6245H18.5828V19.2079Z" fill="white"/>
<path d="M15.3954 21.3328H16.812C16.9059 21.3328 16.996 21.2955 17.0624 21.2291C17.1289 21.1627 17.1662 21.0726 17.1662 20.9787V18.8538C17.1662 18.7599 17.1289 18.6698 17.0624 18.6034C16.996 18.5369 16.9059 18.4996 16.812 18.4996H15.3954C15.3015 18.4996 15.2114 18.5369 15.145 18.6034C15.0786 18.6698 15.0413 18.7599 15.0413 18.8538V20.9787C15.0413 21.0726 15.0786 21.1627 15.145 21.2291C15.2114 21.2955 15.3015 21.3328 15.3954 21.3328ZM15.7496 19.2079H16.4579V20.6245H15.7496V19.2079Z" fill="white"/>
<path d="M21.0619 21.3328H22.4785C22.5725 21.3328 22.6625 21.2955 22.7289 21.2291C22.7954 21.1627 22.8327 21.0726 22.8327 20.9787V18.8538C22.8327 18.7599 22.7954 18.6698 22.7289 18.6034C22.6625 18.5369 22.5725 18.4996 22.4785 18.4996H21.0619C20.968 18.4996 20.8779 18.5369 20.8115 18.6034C20.7451 18.6698 20.7078 18.7599 20.7078 18.8538V20.9787C20.7078 21.0726 20.7451 21.1627 20.8115 21.2291C20.8779 21.2955 20.968 21.3328 21.0619 21.3328ZM21.4161 19.2079H22.1244V20.6245H21.4161V19.2079Z" fill="white"/>
<path d="M23.8949 21.3328H25.3115C25.4055 21.3328 25.4955 21.2955 25.562 21.2291C25.6284 21.1627 25.6657 21.0726 25.6657 20.9787V18.8538C25.6657 18.7599 25.6284 18.6698 25.562 18.6034C25.4955 18.5369 25.4055 18.4996 25.3115 18.4996H23.8949C23.801 18.4996 23.7109 18.5369 23.6445 18.6034C23.5781 18.6698 23.5408 18.7599 23.5408 18.8538V20.9787C23.5408 21.0726 23.5781 21.1627 23.6445 21.2291C23.7109 21.2955 23.801 21.3328 23.8949 21.3328ZM24.2491 19.2079H24.9574V20.6245H24.2491V19.2079Z" fill="white"/>
<path d="M18.2287 24.8744H19.6453C19.7392 24.8744 19.8293 24.837 19.8957 24.7706C19.9621 24.7042 19.9994 24.6141 19.9994 24.5202V22.3953C19.9994 22.3014 19.9621 22.2113 19.8957 22.1449C19.8293 22.0784 19.7392 22.0411 19.6453 22.0411H18.2287C18.1347 22.0411 18.0447 22.0784 17.9782 22.1449C17.9118 22.2113 17.8745 22.3014 17.8745 22.3953V24.5202C17.8745 24.6141 17.9118 24.7042 17.9782 24.7706C18.0447 24.837 18.1347 24.8744 18.2287 24.8744ZM18.5828 22.7494H19.2911V24.166H18.5828V22.7494Z" fill="white"/>
<path d="M15.3954 24.8744H16.812C16.9059 24.8744 16.996 24.837 17.0624 24.7706C17.1289 24.7042 17.1662 24.6141 17.1662 24.5202V22.3953C17.1662 22.3014 17.1289 22.2113 17.0624 22.1449C16.996 22.0784 16.9059 22.0411 16.812 22.0411H15.3954C15.3015 22.0411 15.2114 22.0784 15.145 22.1449C15.0786 22.2113 15.0413 22.3014 15.0413 22.3953V24.5202C15.0413 24.6141 15.0786 24.7042 15.145 24.7706C15.2114 24.837 15.3015 24.8744 15.3954 24.8744ZM15.7496 22.7494H16.4579V24.166H15.7496V22.7494Z" fill="white"/>
<path d="M21.0619 24.8744H22.4785C22.5725 24.8744 22.6625 24.837 22.7289 24.7706C22.7954 24.7042 22.8327 24.6141 22.8327 24.5202V22.3953C22.8327 22.3014 22.7954 22.2113 22.7289 22.1449C22.6625 22.0784 22.5725 22.0411 22.4785 22.0411H21.0619C20.968 22.0411 20.8779 22.0784 20.8115 22.1449C20.7451 22.2113 20.7078 22.3014 20.7078 22.3953V24.5202C20.7078 24.6141 20.7451 24.7042 20.8115 24.7706C20.8779 24.837 20.968 24.8744 21.0619 24.8744ZM21.4161 22.7494H22.1244V24.166H21.4161V22.7494Z" fill="white"/>
<path d="M23.8949 24.8744H25.3115C25.4055 24.8744 25.4955 24.837 25.562 24.7706C25.6284 24.7042 25.6657 24.6141 25.6657 24.5202V22.3953C25.6657 22.3014 25.6284 22.2113 25.562 22.1449C25.4955 22.0784 25.4055 22.0411 25.3115 22.0411H23.8949C23.801 22.0411 23.7109 22.0784 23.6445 22.1449C23.5781 22.2113 23.5408 22.3014 23.5408 22.3953V24.5202C23.5408 24.6141 23.5781 24.7042 23.6445 24.7706C23.7109 24.837 23.801 24.8744 23.8949 24.8744ZM24.2491 22.7494H24.9574V24.166H24.2491V22.7494Z" fill="white"/>
<path d="M30.2697 22.7495H27.0824V10.3542C27.0824 10.2602 27.0451 10.1701 26.9786 10.1037C26.9122 10.0373 26.8221 10 26.7282 10H13.9787C13.8848 10 13.7947 10.0373 13.7283 10.1037C13.6619 10.1701 13.6246 10.2602 13.6246 10.3542V23.0625C13.3268 22.871 12.9829 22.7632 12.6291 22.7506C12.2752 22.738 11.9245 22.8211 11.6139 22.9909C11.3032 23.1608 11.0441 23.4113 10.8638 23.716C10.6834 24.0207 10.5886 24.3684 10.5892 24.7225C10.5895 24.9192 10.62 25.1147 10.6795 25.3022C10.2427 25.4588 9.87518 25.7646 9.64189 26.1657C9.4086 26.5668 9.3245 27.0375 9.40443 27.4946C9.48435 27.9517 9.72316 28.3658 10.0787 28.664C10.4343 28.9622 10.8837 29.1252 11.3478 29.1242C11.6467 29.1224 11.9411 29.0513 12.208 28.9167V30.1867C12.208 30.2806 12.2453 30.3707 12.3117 30.4371C12.3781 30.5035 12.4682 30.5408 12.5621 30.5408C12.6561 30.5408 12.7461 30.5035 12.8126 30.4371C12.879 30.3707 12.9163 30.2806 12.9163 30.1867V28.9167C13.1378 29.0261 13.3783 29.0921 13.6246 29.1111V30.1867C13.6246 30.2806 13.6619 30.3707 13.7283 30.4371C13.7947 30.5035 13.8848 30.5408 13.9787 30.5408H29.5614C29.6554 30.5408 29.7454 30.5035 29.8119 30.4371C29.8783 30.3707 29.9156 30.2806 29.9156 30.1867V24.8744H30.2697C30.3637 24.8744 30.4537 24.8371 30.5202 24.7707C30.5866 24.7042 30.6239 24.6142 30.6239 24.5202V23.1036C30.6239 23.0097 30.5866 22.9196 30.5202 22.8532C30.4537 22.7868 30.3637 22.7495 30.2697 22.7495ZM12.5621 26.9993C12.4682 26.9993 12.3781 27.0366 12.3117 27.103C12.2453 27.1694 12.208 27.2595 12.208 27.3534V28.0618C11.9784 28.2874 11.6697 28.4145 11.3478 28.4159C11.024 28.4172 10.7122 28.2938 10.477 28.0714C10.2417 27.849 10.1011 27.5446 10.0842 27.2213C10.0673 26.898 10.1754 26.5806 10.3862 26.3348C10.597 26.0891 10.8943 25.9339 11.2164 25.9014C11.2754 25.8951 11.332 25.874 11.3807 25.8401C11.4295 25.8062 11.469 25.7606 11.4955 25.7074C11.522 25.6543 11.5348 25.5953 11.5325 25.5359C11.5303 25.4766 11.5131 25.4187 11.4827 25.3677C11.3636 25.1735 11.3001 24.9503 11.2992 24.7225C11.2992 24.387 11.4325 24.0654 11.6697 23.8282C11.9068 23.591 12.2285 23.4578 12.5639 23.4578C12.8993 23.4578 13.221 23.591 13.4582 23.8282C13.6953 24.0654 13.8286 24.387 13.8286 24.7225C13.8277 24.9503 13.7642 25.1735 13.6451 25.3677C13.6147 25.4187 13.5975 25.4766 13.5953 25.5359C13.5931 25.5953 13.6058 25.6543 13.6323 25.7074C13.6588 25.7606 13.6983 25.8062 13.7471 25.8401C13.7959 25.874 13.8524 25.8951 13.9115 25.9014C14.2337 25.9339 14.5311 26.0892 14.742 26.3351C14.9528 26.5811 15.0608 26.8987 15.0437 27.2222C15.0266 27.5456 14.8856 27.8501 14.65 28.0723C14.4143 28.2946 14.1022 28.4176 13.7783 28.4159C13.4557 28.415 13.1463 28.2879 12.9163 28.0618V27.3534C12.9163 27.2595 12.879 27.1694 12.8126 27.103C12.7461 27.0366 12.6561 26.9993 12.5621 26.9993ZM22.1242 29.8325H18.5827V26.291H22.1242V29.8325ZM26.3741 29.8325H22.8326V25.9368C22.8326 25.8429 22.7952 25.7528 22.7288 25.6864C22.6624 25.62 22.5723 25.5827 22.4784 25.5827H18.2286C18.1346 25.5827 18.0446 25.62 17.9782 25.6864C17.9117 25.7528 17.8744 25.8429 17.8744 25.9368V29.8325H14.3329V29.0431C14.7319 28.9267 15.0837 28.687 15.338 28.3583C15.5923 28.0296 15.736 27.6287 15.7484 27.2133C15.7609 26.7979 15.6414 26.3892 15.4072 26.0459C15.173 25.7026 14.8361 25.4422 14.4448 25.3022C14.5043 25.1147 14.5348 24.9192 14.5351 24.7225C14.5348 24.4226 14.4656 24.1268 14.3329 23.858V10.7083H26.3741V29.8325ZM29.2073 29.8325H27.0824V24.8744H29.2073V29.8325ZM29.9156 24.1661H27.0824V23.4578H29.9156V24.1661Z" fill="white"/>
</svg>
