<?xml version="1.0" encoding="UTF-8"?>
<svg xmlns="http://www.w3.org/2000/svg" id="Book" width="38.5" height="38.5" viewBox="0 0 38.5 38.5">
  <rect id="Rectángulo_285" data-name="Rectángulo 285" width="38.5" height="38.5" fill="#fc0" opacity="0"></rect>
  <path id="Trazado_937" data-name="Trazado 937" d="M24.49,7.587a6.971,6.971,0,0,0-.83-2.9,1.207,1.207,0,0,0-.838-.611,16.3,16.3,0,0,0-3.589-.358,15.922,15.922,0,0,0-3.575.357,1.185,1.185,0,0,0-.81.59,6.955,6.955,0,0,0-.835,2.9,60.071,60.071,0,0,1,10.477.027" fill="#fc0" opacity="0.2"></path>
  <path id="Trazado_1272" data-name="Trazado 1272" d="M21463.9,22647.221c-1.381,0-2.707-.02-4.053-.057a6.377,6.377,0,0,0,.146-1.4c0-2.932-1.68-4.611-4.609-4.611s-4.615,1.68-4.615,4.611a6.58,6.58,0,0,0,.074,1.039l-.193-.01c-.281-.014-.559-.025-.838-.037l-.023,0-.51-.023-.051-.006a3.179,3.179,0,0,1-2.9-2.342,17.645,17.645,0,0,1-.818-4.668,18.486,18.486,0,0,1,.875-4.877l.006-.012.016-.062.047-.176a3.146,3.146,0,0,1,2.25-2.24c1.279-.311,2.314-.551,3.258-.754.971-.357,5.172-.588,10.7-.588a96.951,96.951,0,0,1,13.184.65c.678.139,1.428.307,2.359.527l.158.035a5.262,5.262,0,0,0-.58,2.545c0,2.92,1.592,4.553,4.486,4.6v.039c0,.006,0,.014,0,.02s0,.039,0,.061l.006.039c.006.066.012.137.012.193a17.769,17.769,0,0,1-.818,4.668,3.179,3.179,0,0,1-2.9,2.342c-.166.01-.332.018-.5.025-.246.012-.492.023-.736.037l-.406.016a6.862,6.862,0,0,0,.076-1.039c0-2.932-1.682-4.611-4.615-4.611s-4.609,1.68-4.609,4.611a6.522,6.522,0,0,0,.143,1.406C21466.434,22647.2,21465.119,22647.221,21463.9,22647.221Z" transform="translate(-21444.643 -22615.586)" fill="#fc0" stroke="rgba(0,0,0,0)" stroke-width="1"></path>
  <path id="Trazado_1271" data-name="Trazado 1271" d="M21463.9,22647.221c-1.314,0-2.639-.02-4.051-.057a6.435,6.435,0,0,0,.145-1.4c0-2.932-1.682-4.611-4.615-4.611s-4.609,1.68-4.609,4.611a6.976,6.976,0,0,0,.076,1.039c-.033,0-.062,0-.094,0l-.09,0-.006,0-.178-.006c-.318-.012-.635-.029-.959-.047l-.291-.016a3.179,3.179,0,0,1-2.9-2.342,17.645,17.645,0,0,1-.818-4.668,18.486,18.486,0,0,1,.875-4.877l.006-.012.016-.062.047-.176a3.146,3.146,0,0,1,2.25-2.24c1.279-.311,2.314-.551,3.258-.754.971-.357,5.172-.588,10.7-.588a96.951,96.951,0,0,1,13.184.65c.678.139,1.428.307,2.359.527l.158.035a5.262,5.262,0,0,0-.58,2.545c0,2.92,1.592,4.553,4.486,4.6v.039c0,.006,0,.014,0,.02s0,.039,0,.061l.006.039c.006.066.012.137.012.193a17.769,17.769,0,0,1-.818,4.668,3.179,3.179,0,0,1-2.9,2.342c-.252.018-.512.029-.734.039l-.186.01-.184.008-.482.018-.057,0a6.615,6.615,0,0,0,.078-1.039c0-2.932-1.68-4.611-4.609-4.611s-4.609,1.68-4.609,4.611a6.649,6.649,0,0,0,.141,1.41C21466.4,22647.2,21465.09,22647.221,21463.9,22647.221Z" transform="translate(-21444.643 -22615.586)" fill="#fc0" stroke="rgba(0,0,0,0)" stroke-width="1" opacity="0.2"></path>
  <path id="Trazado_1268" data-name="Trazado 1268" d="M21462.082,21703.064c-1.193.033-2.393.055-3.6.055s-2.4-.018-3.592-.047c-.658,2.033-2.393,3.2-4.912,3.2-2.68,0-4.475-1.316-5.029-3.6l-1.152-.053a3.812,3.812,0,0,1-3.461-2.785,18.335,18.335,0,0,1-.832-4.826,19.2,19.2,0,0,1,.914-5.109l.049-.174a3.841,3.841,0,0,1,2.654-2.658,18.106,18.106,0,0,1,2.875-.557,16.305,16.305,0,0,1,1.93-6.51,3.3,3.3,0,0,1,2.254-1.65c.846-.18,1.674-.326,2.533-.453a7.524,7.524,0,0,1,.85-2.631,1.8,1.8,0,0,1,1.215-.9,16.517,16.517,0,0,1,3.7-.365,17.037,17.037,0,0,1,3.705.365,1.809,1.809,0,0,1,1.252.92,7.651,7.651,0,0,1,.84,2.627c.811.119,1.617.266,2.479.436a3.353,3.353,0,0,1,2.32,1.705,16.667,16.667,0,0,1,1.912,6.4q1.406.3,2.795.621a3.76,3.76,0,0,1,2.75,2.691l.039.125a19.276,19.276,0,0,1,.916,5.115,18.307,18.307,0,0,1-.84,4.826,3.807,3.807,0,0,1-3.459,2.785l-1.2.053c-.555,2.268-2.326,3.6-5,3.6C21464.467,21706.268,21462.74,21705.1,21462.082,21703.064Zm.893-2.01c0,2.625,1.385,4.01,4.01,4.01s4.01-1.385,4.01-4.01-1.385-4.01-4.01-4.01S21462.975,21698.43,21462.975,21701.055Zm-13,4.01c2.621,0,4.01-1.385,4.01-4.01s-1.389-4.01-4.01-4.01-4.01,1.385-4.01,4.01a6.308,6.308,0,0,0,.057.859.6.6,0,0,1,.027.178C21446.383,21704.043,21447.723,21705.064,21449.977,21705.064Zm11.859-3.2a7.528,7.528,0,0,1-.064-.812c0-3.264,1.949-5.207,5.213-5.207s5.207,1.943,5.207,5.207c0,.146-.021.273-.027.408l.965-.043a2.6,2.6,0,0,0,2.359-1.906,17,17,0,0,0,.795-4.506,18.558,18.558,0,0,0-.871-4.783l-.033-.119a2.563,2.563,0,0,0-1.873-1.857c-1.041-.24-2.082-.48-3.139-.7-.648-.006-6.482-.076-12.361-.137l-.545-.006c-5.588-.059-10.867-.113-14,.813a2.65,2.65,0,0,0-1.84,1.824l-.039.143a18.4,18.4,0,0,0-.883,4.826,17.126,17.126,0,0,0,.795,4.512,2.6,2.6,0,0,0,2.354,1.9l.926.043c-.006-.133-.01-.27-.01-.408,0-3.264,1.949-5.207,5.213-5.207s5.209,1.943,5.209,5.207a7.433,7.433,0,0,1-.045.822C21457.359,21701.924,21459.617,21701.916,21461.836,21701.867Zm-11.412-22.342a2.087,2.087,0,0,0-1.443,1.041,15.345,15.345,0,0,0-1.771,5.824c2.965-.256,6.537-.225,10.264-.186h.441a.8.8,0,0,1-.021-.115v-7.359a37.584,37.584,0,0,0-4.436.277.57.57,0,0,1-.238.033h-.012C21452.248,21679.166,21451.35,21679.33,21450.424,21679.525Zm8.666,6.564a.5.5,0,0,1-.027.131c4.643.049,9.061.1,10.7.115a15.475,15.475,0,0,0-1.754-5.727,2.138,2.138,0,0,0-1.492-1.078c-.947-.2-1.82-.348-2.707-.475a.161.161,0,0,1-.049.012h-.027a.608.608,0,0,1-.246-.049,36.114,36.114,0,0,0-4.4-.289Zm3.951-8.34a6.654,6.654,0,0,0-.672-1.9.605.605,0,0,0-.424-.307,15.893,15.893,0,0,0-3.471-.342,15.474,15.474,0,0,0-3.453.342.581.581,0,0,0-.4.289,6.434,6.434,0,0,0-.676,1.908,42.445,42.445,0,0,1,4.51-.219A41.29,41.29,0,0,1,21463.041,21677.75Z" transform="translate(-21439.24 -21670.883)" fill="#111f29"></path>
</svg>
