<svg id="Book_Online" data-name="Book Online" xmlns="http://www.w3.org/2000/svg" xmlns:xlink="http://www.w3.org/1999/xlink" width="56" height="56" viewBox="0 0 56 56">
  <defs>
    <clipPath id="clip-path">
      <rect id="Rectángulo_1331" data-name="Rectángulo 1331" width="56" height="56" fill="none"/>
    </clipPath>
  </defs>
  <g id="Grupo_6467" data-name="Grupo 6467" clip-path="url(#clip-path)">
    <path id="Trazado_1792" data-name="Trazado 1792" d="M36.743,52.613H26.492l-.87,4.346a2.562,2.562,0,0,1-2.513,2.06H21.955a3.845,3.845,0,0,0-3.77,3.09l-.05.251a2.562,2.562,0,0,0,2.01,3.015,2.524,2.524,0,0,0,.5.05H42.584A2.56,2.56,0,0,0,45.1,62.361l-.051-.251a3.843,3.843,0,0,0-3.766-3.09H40.125a2.562,2.562,0,0,1-2.512-2.06Z" transform="translate(-3.617 -10.523)" fill="#fff"/>
    <path id="Trazado_1793" data-name="Trazado 1793" d="M1.934,36.016a6.411,6.411,0,0,0,6.117,5.821c4.134.257,10.748.53,20.222.53s16.09-.273,20.222-.53a6.411,6.411,0,0,0,6.117-5.821c.3-3.173.568-7.825.568-14.151s-.273-10.978-.568-14.15A6.412,6.412,0,0,0,48.5,1.893c-4.133-.256-10.749-.529-20.222-.529s-16.089.271-20.222.529A6.412,6.412,0,0,0,1.934,7.714c-.294,3.171-.569,7.823-.569,14.15s.274,10.978.569,14.151" transform="translate(-0.273 -0.273)" fill="#ffcc03"/>
    <path id="Trazado_1794" data-name="Trazado 1794" d="M28.056,43.02c-9.687,0-16.373-.289-20.277-.531A7.242,7.242,0,0,1,.847,35.878c-.38-4.1-.573-8.888-.573-14.232S.467,11.512.847,7.415A7.242,7.242,0,0,1,7.779.8C11.66.561,18.329.272,28.056.272c9.687,0,16.373.289,20.275.531a7.242,7.242,0,0,1,6.933,6.611c.38,4.09.572,8.878.572,14.231s-.192,10.142-.572,14.232a7.242,7.242,0,0,1-6.933,6.611c-3.9.242-10.588.531-20.275.531m-25.47-7.3a5.527,5.527,0,0,0,5.3,5.031c3.878.24,10.526.527,20.169.527s16.29-.287,20.167-.527a5.527,5.527,0,0,0,5.3-5.031c.374-4.036.565-8.77.565-14.07s-.19-10.034-.565-14.07a5.527,5.527,0,0,0-5.3-5.031C44.345,2.3,37.7,2.018,28.056,2.018c-9.682,0-16.311.287-20.168.527a5.527,5.527,0,0,0-5.3,5.031c-.375,4.044-.566,8.778-.566,14.07s.19,10.024.566,14.071Z" transform="translate(-0.055 -0.054)"/>
    <path id="Trazado_1795" data-name="Trazado 1795" d="M20.428,66.087a3.438,3.438,0,0,1-3.369-4.11l.052-.254a4.73,4.73,0,0,1,4.624-3.789H22.89a1.693,1.693,0,0,0,1.656-1.358l.872-4.346a.873.873,0,0,1,1.711.343l-.871,4.346A3.444,3.444,0,0,1,22.89,59.68H21.735a2.98,2.98,0,0,0-2.913,2.39l-.052.254a1.654,1.654,0,0,0-.032.329,1.691,1.691,0,0,0,1.69,1.689H42.366a1.691,1.691,0,0,0,1.658-2.022l-.05-.245a2.981,2.981,0,0,0-2.915-2.4H39.9a3.446,3.446,0,0,1-3.369-2.762l-.869-4.346a.873.873,0,0,1,1.712-.342l.869,4.346A1.7,1.7,0,0,0,39.9,57.935h1.154a4.729,4.729,0,0,1,4.626,3.794l.05.244a3.442,3.442,0,0,1-2.694,4.049,3.492,3.492,0,0,1-.674.066H20.428Z" transform="translate(-3.399 -10.306)"/>
    <path id="Trazado_1796" data-name="Trazado 1796" d="M28.056,43.02c-9.687,0-16.373-.289-20.277-.531A7.242,7.242,0,0,1,.847,35.878c-.38-4.1-.573-8.888-.573-14.232S.467,11.512.847,7.415A7.242,7.242,0,0,1,7.779.8C11.66.561,18.329.272,28.056.272c9.687,0,16.373.289,20.275.531a7.242,7.242,0,0,1,6.933,6.611c.38,4.09.572,8.878.572,14.231s-.192,10.142-.572,14.232a7.242,7.242,0,0,1-6.933,6.611c-3.9.242-10.588.531-20.275.531m-25.47-7.3a5.527,5.527,0,0,0,5.3,5.031c3.878.24,10.526.527,20.169.527s16.29-.287,20.167-.527a5.527,5.527,0,0,0,5.3-5.031c.374-4.036.565-8.77.565-14.07s-.19-10.034-.565-14.07a5.527,5.527,0,0,0-5.3-5.031C44.345,2.3,37.7,2.018,28.056,2.018c-9.682,0-16.311.287-20.168.527a5.527,5.527,0,0,0-5.3,5.031c-.375,4.044-.566,8.778-.566,14.07s.19,10.024.566,14.071Z" transform="translate(-0.055 -0.054)"/>
  </g>
</svg>
