<svg id="Call" xmlns="http://www.w3.org/2000/svg" xmlns:xlink="http://www.w3.org/1999/xlink" width="56" height="56" viewBox="0 0 56 56">
  <defs>
    <clipPath id="clip-path">
      <rect id="Rectángulo_1332" data-name="Rectángulo 1332" width="56" height="56" fill="none"/>
    </clipPath>
  </defs>
  <g id="Grupo_6470" data-name="Grupo 6470" clip-path="url(#clip-path)">
    <path id="Trazado_1797" data-name="Trazado 1797" d="M42.069,54.364A12.294,12.294,0,0,0,54.363,42.07v-.7a3.688,3.688,0,0,0-2.318-3.424l-7.578-3.032A4.917,4.917,0,0,0,39.162,36l-3.783,3.783a2.325,2.325,0,0,1-2.309.612A24.646,24.646,0,0,1,16.694,24.022a2.321,2.321,0,0,1,.612-2.309l3.783-3.783a4.917,4.917,0,0,0,1.088-5.3L19.145,5.046a3.688,3.688,0,0,0-3.424-2.318h-.7A12.294,12.294,0,0,0,2.727,15.022v.614A38.728,38.728,0,0,0,40.4,54.35a.022.022,0,0,1,.016.006.023.023,0,0,0,.016.007Z" transform="translate(-0.545 -0.546)" fill="#ffd21f"/>
    <path id="Trazado_1798" data-name="Trazado 1798" d="M42.069,54.364A12.294,12.294,0,0,0,54.363,42.07v-.7a3.688,3.688,0,0,0-2.318-3.424l-7.578-3.032A4.917,4.917,0,0,0,39.162,36l-3.783,3.783a2.325,2.325,0,0,1-2.309.612A24.646,24.646,0,0,1,16.694,24.022a2.321,2.321,0,0,1,.612-2.309l3.783-3.783a4.917,4.917,0,0,0,1.088-5.3L19.145,5.046a3.688,3.688,0,0,0-3.424-2.318h-.7A12.294,12.294,0,0,0,2.727,15.022v.614A38.728,38.728,0,0,0,40.4,54.35a.022.022,0,0,1,.016.006.023.023,0,0,0,.016.007Z" transform="translate(-0.545 -0.546)" fill="#ffd21f"/>
    <path id="Trazado_1799" data-name="Trazado 1799" d="M41.85,55.019H40.213a.874.874,0,0,1-.17-.018A39.383,39.383,0,0,1,1.636,15.419V14.8A13.182,13.182,0,0,1,14.8,1.637h.7A4.54,4.54,0,0,1,19.738,4.5l3.031,7.58a5.781,5.781,0,0,1-1.282,6.244l-3.782,3.783a1.449,1.449,0,0,0-.394,1.438,23.738,23.738,0,0,0,15.8,15.8,1.446,1.446,0,0,0,1.437-.394l3.783-3.783a5.783,5.783,0,0,1,6.245-1.282l7.578,3.032a4.54,4.54,0,0,1,2.868,4.234v.7A13.183,13.183,0,0,1,41.85,55.019m-1.518-1.746H41.85A11.434,11.434,0,0,0,53.272,41.852v-.7a2.8,2.8,0,0,0-1.77-2.614l-7.578-3.032a4.035,4.035,0,0,0-4.362.9l-3.783,3.782a3.188,3.188,0,0,1-3.178.83A25.478,25.478,0,0,1,15.642,24.059a3.189,3.189,0,0,1,.83-3.181l3.782-3.784a4.036,4.036,0,0,0,.9-4.362l-3.031-7.58A2.8,2.8,0,0,0,15.5,3.383h-.7A11.434,11.434,0,0,0,3.382,14.8v.614A37.644,37.644,0,0,0,40.2,53.26a.867.867,0,0,1,.128.013" transform="translate(-0.327 -0.327)"/>
    <path id="Trazado_1800" data-name="Trazado 1800" d="M41.85,55.019H40.213a.874.874,0,0,1-.17-.018A39.383,39.383,0,0,1,1.636,15.419V14.8A13.182,13.182,0,0,1,14.8,1.637h.7A4.54,4.54,0,0,1,19.738,4.5l3.031,7.58a5.781,5.781,0,0,1-1.282,6.244l-3.782,3.783a1.449,1.449,0,0,0-.394,1.438,23.738,23.738,0,0,0,15.8,15.8,1.446,1.446,0,0,0,1.437-.394l3.783-3.783a5.783,5.783,0,0,1,6.245-1.282l7.578,3.032a4.54,4.54,0,0,1,2.868,4.234v.7A13.183,13.183,0,0,1,41.85,55.019m-1.518-1.746H41.85A11.434,11.434,0,0,0,53.272,41.852v-.7a2.8,2.8,0,0,0-1.77-2.614l-7.578-3.032a4.035,4.035,0,0,0-4.362.9l-3.783,3.782a3.188,3.188,0,0,1-3.178.83A25.478,25.478,0,0,1,15.642,24.059a3.189,3.189,0,0,1,.83-3.181l3.782-3.784a4.036,4.036,0,0,0,.9-4.362l-3.031-7.58A2.8,2.8,0,0,0,15.5,3.383h-.7A11.434,11.434,0,0,0,3.382,14.8v.614A37.644,37.644,0,0,0,40.2,53.26a.867.867,0,0,1,.128.013" transform="translate(-0.327 -0.327)"/>
  </g>
</svg>
