<?xml version="1.0" encoding="UTF-8"?>
<svg xmlns="http://www.w3.org/2000/svg" width="38.5" height="38.5" viewBox="0 0 38.5 38.5">
  <g id="Drive" transform="translate(-0.262 -0.256)">
    <path id="Trazado_1333" data-name="Trazado 1333" d="M19.5.858A18.639,18.639,0,1,0,38.142,19.5,18.639,18.639,0,0,0,19.5.858m0,32.732A14.092,14.092,0,1,1,33.6,19.5,14.108,14.108,0,0,1,19.5,33.59" transform="translate(0.008 0.008)" fill="#fc0"></path>
    <path id="Trazado_1334" data-name="Trazado 1334" d="M15.289,16.675a.9.9,0,0,1,.745-.826,20.744,20.744,0,0,1,3.272-.2,20.754,20.754,0,0,1,3.272.2.9.9,0,0,1,.745.826c.054.55.115,1.415.115,2.511s-.061,1.961-.115,2.511c-.042.42-.849,2.572-4.017,2.572S15.33,22.117,15.289,21.7c-.055-.55-.116-1.415-.116-2.511s.061-1.961.116-2.511" transform="translate(0.203 0.207)" fill="#fc0"></path>
    <path id="Trazado_1335" data-name="Trazado 1335" d="M21050,21810.246a19.25,19.25,0,1,1,19.246,19.25A19.265,19.265,0,0,1,21050,21810.246Zm1.211,0a18.035,18.035,0,1,0,18.035-18.031A18.048,18.048,0,0,0,21051.213,21810.246Zm3.332,0a14.7,14.7,0,1,1,14.7,14.7A14.721,14.721,0,0,1,21054.545,21810.246Zm9.645,4.027c.01.016.021.037.033.055a7.687,7.687,0,0,1,.955,4.664l-.443,3.7a.471.471,0,0,1-.074.221,13.23,13.23,0,0,0,9.209-.01.623.623,0,0,1-.117-.271l-.436-3.637a7.67,7.67,0,0,1,.953-4.654.532.532,0,0,0,.031-.059,7.429,7.429,0,0,1,6.936-3.744l1.477.09c.006-.129.021-.25.021-.379a13.549,13.549,0,0,0-.633-4.08,123.081,123.081,0,0,0-25.709.006,13.482,13.482,0,0,0-.633,4.074c0,.129.016.25.021.379l1.477-.09c.148-.008.3-.012.443-.012A7.384,7.384,0,0,1,21064.189,21814.273Zm11.178.6a.529.529,0,0,1-.033.049,6.529,6.529,0,0,0-.809,3.926l.432,3.6a13.492,13.492,0,0,0,7.674-10.611l-1.461-.084c-.125-.006-.25-.01-.373-.01A6.143,6.143,0,0,0,21075.367,21814.873Zm-18.041-3.123-1.461.084a13.486,13.486,0,0,0,7.676,10.611l.432-3.6a6.459,6.459,0,0,0-.811-3.92c-.012-.018-.018-.039-.027-.055a6.147,6.147,0,0,0-5.414-3.135C21057.59,21811.738,21057.457,21811.742,21057.326,21811.75Zm-.457-6.844a124.089,124.089,0,0,1,24.756-.006,13.479,13.479,0,0,0-24.756.006Zm7.936,7.7c-.049-.52-.109-1.371-.109-2.457s.061-1.934.109-2.455a1.467,1.467,0,0,1,1.217-1.332,25.246,25.246,0,0,1,6.453,0,1.468,1.468,0,0,1,1.217,1.326,27.212,27.212,0,0,1,0,4.918c-.055.6-1.035,3.01-4.443,3.01S21064.861,21813.205,21064.8,21812.605Zm1.416-5.045a.258.258,0,0,0-.2.25,25.537,25.537,0,0,0,0,4.68c0,.018.443,1.91,3.23,1.91s3.23-1.9,3.23-1.916a23.322,23.322,0,0,0,.105-2.336c0-1.039-.055-1.846-.105-2.338a.26.26,0,0,0-.205-.25,24.267,24.267,0,0,0-6.053,0Z" transform="translate(-21049.74 -21790.74)" fill="#111f29"></path>
  </g>
</svg>
