<svg width="50" height="50" viewBox="0 0 50 50" fill="none" xmlns="http://www.w3.org/2000/svg">
<circle cx="25" cy="25" r="25" fill="#B98B44"/>
<g clip-path="url(#clip0_330_801)">
<path d="M37.7872 19.9857H35.8691C35.6353 19.9857 35.4457 20.1759 35.4457 20.4105C35.4457 20.6451 35.6353 20.8353 35.8691 20.8353H37.7872C38.4876 20.8353 39.0574 21.407 39.0574 22.1097V39.1221C39.0574 39.1377 39.0448 39.1504 39.0292 39.1504H34.3164V37.4512H36.4793C36.9596 37.4512 37.3521 37.0591 37.3543 36.5772L37.3638 34.4855C37.3683 34.0054 36.9658 33.6012 36.4888 33.6036H34.3164V31.9289H36.4793C36.9596 31.9289 37.3521 31.5369 37.3543 31.055L37.3638 28.9632C37.3683 28.4832 36.9658 28.079 36.4888 28.0813H34.3164V26.3821H36.4793C36.9596 26.3821 37.3521 25.9901 37.3543 25.5082L37.3638 23.4164C37.3683 22.9364 36.9658 22.5321 36.4888 22.5345H34.3164V18.1367C34.3164 16.9655 33.3668 16.0127 32.1994 16.0127H30.8552C30.6385 13.2122 28.298 11 25.4521 11C22.6062 11 20.2657 13.2122 20.0491 16.0127H18.6777C17.5103 16.0127 16.5607 16.9655 16.5607 18.1367V19.9857H13.117C11.9497 19.9857 11 20.9385 11 22.1097V39.1221C11 39.6062 11.3925 40 11.875 40H39.0292C39.5117 40 39.9042 39.6062 39.9042 39.1221V22.1097C39.9042 20.9385 38.9545 19.9857 37.7872 19.9857ZM34.3164 23.3841H36.4888C36.4917 23.3841 36.5005 23.3841 36.5088 23.3925C36.517 23.4008 36.517 23.4096 36.517 23.4125L36.5076 25.5042C36.5075 25.5198 36.4948 25.5325 36.4793 25.5325H34.3164V23.3841ZM34.3164 28.931H36.4888C36.4917 28.931 36.5005 28.931 36.5088 28.9393C36.517 28.9476 36.517 28.9565 36.517 28.9594L36.5076 31.0511C36.5075 31.0666 36.4948 31.0793 36.4793 31.0793H34.3164V28.931ZM34.3164 34.4532H36.4888C36.4917 34.4532 36.5005 34.4532 36.5088 34.4615C36.517 34.4698 36.517 34.4787 36.517 34.4816L36.5076 36.5734C36.5075 36.5889 36.4948 36.6016 36.4793 36.6016H34.3164V34.4532ZM16.5607 36.6016H14.425C14.4093 36.6016 14.3969 36.5893 14.3968 36.5735L14.3872 34.4818C14.3872 34.4788 14.3872 34.4698 14.3955 34.4615C14.4037 34.4532 14.4126 34.4532 14.4154 34.4532H16.5607V36.6016ZM16.5607 31.0791H14.425C14.4093 31.0791 14.3969 31.0668 14.3968 31.0511L14.3872 28.9594C14.3872 28.9564 14.3872 28.9476 14.3956 28.9391C14.4039 28.9307 14.4126 28.9307 14.4154 28.9307H16.5607V31.0791ZM16.5607 25.5323H14.425C14.4093 25.5323 14.3969 25.52 14.3968 25.5042L14.3872 23.4126C14.3872 23.4096 14.3872 23.4008 14.3956 23.3923C14.4039 23.3839 14.4126 23.3839 14.4154 23.3839H16.5607V25.5323ZM16.5607 22.5343H14.4154C13.9367 22.5316 13.5362 22.937 13.5404 23.4165L13.55 25.5082C13.5522 25.9899 13.9447 26.3819 14.425 26.3819H16.5607V28.0811H14.4154C13.9367 28.0785 13.5362 28.4839 13.5404 28.9633L13.55 31.055C13.5522 31.5368 13.9447 31.9288 14.425 31.9288H16.5607V33.6036H14.4154C13.9364 33.601 13.5362 34.0061 13.5404 34.4858L13.55 36.5775C13.5522 37.0592 13.9447 37.4512 14.425 37.4512H16.5607V39.1504H11.875C11.8594 39.1504 11.8468 39.1377 11.8468 39.1221V22.1097C11.8468 21.407 12.4166 20.8353 13.117 20.8353H16.5607V22.5343ZM25.4521 11.8496C27.9735 11.8496 30.0248 13.9077 30.0248 16.4375C30.0248 18.9673 27.9735 21.0254 25.4521 21.0254C22.9307 21.0254 20.8794 18.9673 20.8794 16.4375C20.8794 13.9077 22.9307 11.8496 25.4521 11.8496ZM29.2358 39.1504H25.8755V31.6696H29.2358V39.1504ZM20.8216 30.82V29.9704H30.0827V30.82H20.8216ZM33.4696 39.1504H30.0826V31.6696C30.5246 31.6954 30.9323 31.371 30.9295 30.905V29.8855C30.9295 29.4638 30.5876 29.1208 30.1673 29.1208H20.7369C20.3166 29.1208 19.9748 29.4638 19.9748 29.8855V30.905C19.9718 31.3514 20.3721 31.7161 20.8216 31.6696V34.6778C20.8216 34.9124 21.0111 35.1026 21.245 35.1026C21.4788 35.1026 21.6684 34.9124 21.6684 34.6778V31.6696H25.0287V39.1504H21.6684V36.6602C21.6684 36.4256 21.4788 36.2354 21.245 36.2354C21.0111 36.2354 20.8216 36.4256 20.8216 36.6602V39.1504H17.4075V18.1367C17.4075 17.434 17.9773 16.8623 18.6777 16.8623H20.0491C20.2657 19.6628 22.6062 21.875 25.4521 21.875C28.298 21.875 30.6385 19.6628 30.8552 16.8623H32.1994C32.8999 16.8623 33.4696 17.434 33.4696 18.1367V39.1504ZM24.1819 17.7119V19.4111C24.1819 19.8328 24.5238 20.1758 24.944 20.1758H25.9602C26.3804 20.1758 26.7223 19.8328 26.7223 19.4111V17.7119H28.4159C28.8362 17.7119 29.178 17.3689 29.178 16.9473V15.9277C29.178 15.5061 28.8362 15.1631 28.4159 15.1631H26.7223V13.4639C26.7223 13.0422 26.3804 12.6992 25.9602 12.6992H24.944C24.5238 12.6992 24.1819 13.0422 24.1819 13.4639V15.1631H22.4883C22.0681 15.1631 21.7262 15.5061 21.7262 15.9277V16.9473C21.7262 17.3689 22.0681 17.7119 22.4883 17.7119H24.1819ZM22.573 16.0127H24.4359C24.7628 16.0127 25.0287 15.7459 25.0287 15.418V13.5488H25.8755V15.418C25.8755 15.7459 26.1414 16.0127 26.4683 16.0127H28.3312V16.8623H26.4683C26.1414 16.8623 25.8755 17.1291 25.8755 17.457V19.3262H25.0287V17.457C25.0287 17.1291 24.7628 16.8623 24.4359 16.8623H22.573V16.0127ZM23.7585 36.2696C23.9923 36.2696 24.1819 36.0794 24.1819 35.8448V34.9753C24.1819 34.7407 23.9923 34.5505 23.7585 34.5505C23.5247 34.5505 23.3351 34.7407 23.3351 34.9753V35.8448C23.3351 36.0794 23.5247 36.2696 23.7585 36.2696ZM23.7303 23.5742H19.9876C19.5073 23.5742 19.1147 23.9663 19.1126 24.4482L19.1032 26.5399C19.0981 27.0175 19.5002 27.4245 19.9782 27.4218H23.7303C24.2128 27.4218 24.6053 27.028 24.6053 26.5439V24.4521C24.6053 23.968 24.2128 23.5742 23.7303 23.5742ZM23.7585 26.5439C23.7585 26.5595 23.7459 26.5722 23.7303 26.5722H19.9781C19.9669 26.5737 19.9484 26.555 19.9499 26.5438L19.9593 24.452C19.9594 24.4365 19.972 24.4238 19.9876 24.4238H23.7303C23.7459 24.4238 23.7585 24.4365 23.7585 24.4521V26.5439ZM27.1457 36.2696C27.3795 36.2696 27.5691 36.0794 27.5691 35.8448V34.9753C27.5691 34.7407 27.3795 34.5505 27.1457 34.5505C26.9119 34.5505 26.7223 34.7407 26.7223 34.9753V35.8448C26.7223 36.0794 26.9119 36.2696 27.1457 36.2696ZM30.9125 23.5742H27.1739C26.6914 23.5742 26.2989 23.968 26.2989 24.4521V26.5439C26.2989 27.028 26.6914 27.4218 27.1739 27.4218H30.903C31.3833 27.4218 31.7759 27.0298 31.7781 26.5479L31.7875 24.4561C31.792 23.9761 31.3895 23.5719 30.9125 23.5742ZM30.9313 26.544C30.9312 26.5595 30.9185 26.5722 30.903 26.5722H27.1739C27.1584 26.5722 27.1457 26.5595 27.1457 26.5439V24.4521C27.1457 24.4365 27.1584 24.4238 27.1739 24.4238H30.9125C30.9154 24.4238 30.9243 24.4238 30.9325 24.4322C30.9407 24.4405 30.9407 24.4493 30.9407 24.4522L30.9313 26.544Z" fill="white"/>
</g>
<defs>
<clipPath id="clip0_330_801">
<rect width="28.9042" height="29" fill="white" transform="translate(11 11)"/>
</clipPath>
</defs>
</svg>
