<svg width="50" height="50" viewBox="0 0 50 50" fill="none" xmlns="http://www.w3.org/2000/svg">
<circle cx="25" cy="25" r="25" fill="#B98B44"/>
<g clip-path="url(#clip0_330_845)">
<path d="M29.6817 36.9811H35.0511C35.3091 36.9811 35.5183 36.7712 35.5183 36.5124V25.7383C35.5183 25.4794 35.3091 25.2695 35.0511 25.2695H29.6817C29.4237 25.2695 29.2145 25.4794 29.2145 25.7383V36.5124C29.2145 36.7712 29.4237 36.9811 29.6817 36.9811ZM32.8337 31.5941H34.5839V33.3501H32.8337V31.5941ZM31.8992 33.3501H30.1489V31.5941H31.8992V33.3501ZM34.5839 30.6566H32.8337V28.9005H34.5839V30.6566ZM31.8992 30.6566H30.1489V28.9005H31.8992V30.6566ZM30.1489 34.2876H31.8993V36.0436H30.1489V34.2876ZM32.8337 36.0436V34.2876H34.5839V36.0436H32.8337ZM34.5839 27.963H32.8337V26.207H34.5839V27.963ZM31.8992 26.207V27.9631H30.1489V26.207H31.8992ZM19.9792 25.2695H14.6098C14.3518 25.2695 14.1426 25.4794 14.1426 25.7383V36.5124C14.1426 36.7712 14.3518 36.9811 14.6098 36.9811H19.9792C20.2372 36.9811 20.4464 36.7712 20.4464 36.5124V25.7383C20.4464 25.4794 20.2372 25.2695 19.9792 25.2695ZM16.8273 30.6566H15.077V28.9005H16.8273L16.8273 30.6566ZM17.7617 28.9005H19.512V30.6566H17.7617V28.9005ZM15.077 31.5941H16.8273V33.3501H15.077V31.5941ZM17.7617 31.5941H19.512V33.3501H17.7617V31.5941ZM19.512 27.963H17.7617V26.207H19.512V27.963ZM16.8273 26.207V27.9631H15.077V26.207H16.8273ZM15.077 34.2876H16.8273V36.0436H15.077V34.2876ZM17.7617 36.0436V34.2876H19.512V36.0436H17.7617ZM21.7936 18.2174H19.109C18.8509 18.2174 18.6418 18.4273 18.6418 18.6862V21.3797C18.6418 21.6386 18.8509 21.8485 19.109 21.8485H21.7936C22.0516 21.8485 22.2608 21.6386 22.2608 21.3797V18.6862C22.2608 18.4273 22.0516 18.2174 21.7936 18.2174ZM21.3264 20.911H19.5762V19.1549H21.3264V20.911ZM26.2928 18.2174H23.6081C23.3501 18.2174 23.1409 18.4273 23.1409 18.6862V21.3797C23.1409 21.6386 23.3501 21.8485 23.6081 21.8485H26.2928C26.5508 21.8485 26.76 21.6386 26.76 21.3797V18.6862C26.76 18.4273 26.5508 18.2174 26.2928 18.2174ZM25.8256 20.911H24.0753V19.1549H25.8256V20.911ZM30.7919 18.2174H28.1073C27.8493 18.2174 27.6401 18.4273 27.6401 18.6862V21.3797C27.6401 21.6386 27.8493 21.8485 28.1073 21.8485H30.7919C31.0499 21.8485 31.2591 21.6386 31.2591 21.3797V18.6862C31.2591 18.4273 31.0499 18.2174 30.7919 18.2174ZM30.3247 20.911H28.5745V19.1549H30.3247V20.911ZM38.7386 38.5938H37.8933V23.1881C37.8933 22.9292 37.6841 22.7194 37.4261 22.7194H33.0737V16.8778C33.0737 16.6189 32.8645 16.409 32.6065 16.409H25.4176V14.647H29.3344C29.502 14.647 29.6568 14.5568 29.74 14.4108C29.8232 14.2648 29.822 14.0853 29.7369 13.9403L28.9255 12.5579L29.7369 11.1753C29.822 11.0304 29.8232 10.8509 29.74 10.7049C29.6568 10.5589 29.502 10.4688 29.3344 10.4688H24.951C24.9509 10.4688 24.9507 10.4688 24.9504 10.4688C24.6924 10.4688 24.4832 10.6786 24.4832 10.9375V16.409H17.2945C17.0365 16.409 16.8273 16.6189 16.8273 16.8778V22.7194H12.4749C12.2169 22.7194 12.0077 22.9292 12.0077 23.1881V38.5936H11.1623C10.9043 38.5936 10.6951 38.8035 10.6951 39.0623C10.6951 39.3212 10.9043 39.5311 11.1623 39.5311H12.4715C12.4727 39.5311 12.4738 39.5312 12.4749 39.5312H37.4261H38.7386C38.9966 39.5312 39.2058 39.3214 39.2058 39.0625C39.2058 38.8036 38.9966 38.5938 38.7386 38.5938ZM27.9808 12.7957L28.5171 13.7095H25.4176V11.4062H28.5171L27.9808 12.32C27.8946 12.4668 27.8946 12.6489 27.9808 12.7957ZM17.7617 17.3465H24.9493C24.9497 17.3465 24.95 17.3466 24.9504 17.3466C24.9509 17.3466 24.9512 17.3465 24.9516 17.3465H32.1393V22.7194H17.7617V17.3465H17.7617ZM12.9421 23.6569H17.2934C17.2938 23.6569 17.2941 23.6569 17.2945 23.6569C17.2949 23.6569 17.2953 23.6569 17.2957 23.6569H22.2957V28.2684C22.2957 28.5272 22.5049 28.7371 22.7629 28.7371C23.0209 28.7371 23.2301 28.5272 23.2301 28.2684V23.6569H24.4832V29.3138C24.4832 29.5727 24.6924 29.7826 24.9504 29.7826C25.2085 29.7826 25.4176 29.5727 25.4176 29.3138V23.6569H26.6708V28.2684C26.6708 28.5272 26.88 28.7371 27.138 28.7371C27.396 28.7371 27.6052 28.5272 27.6052 28.2684V23.6569H32.6053C32.6057 23.6569 32.6061 23.6569 32.6065 23.6569C32.6069 23.6569 32.6072 23.6569 32.6076 23.6569H36.9589V38.5938H28.2538V32.2084C28.2538 31.9495 28.0447 31.7396 27.7866 31.7396H22.1141C21.8561 31.7396 21.6469 31.9495 21.6469 32.2084V38.5938H12.9421V23.6569ZM25.4176 32.6771H27.3194V38.5938H25.4176V32.6771ZM24.4832 38.5938H22.5814V32.6771H24.4832V38.5938Z" fill="white"/>
</g>
<defs>
<clipPath id="clip0_330_845">
<rect width="29.9009" height="30" fill="white" transform="translate(10 10)"/>
</clipPath>
</defs>
</svg>
