<svg width="50" height="50" viewBox="0 0 50 50" fill="none" xmlns="http://www.w3.org/2000/svg">
<circle cx="25" cy="25" r="25" fill="#B98B44"/>
<g clip-path="url(#clip0_330_865)">
<path d="M19.3424 27.5997H15.8872V28.4664H19.3424V27.5997Z" fill="white"/>
<path d="M37.8683 32.6059L36.5726 30.0059C36.4995 29.8591 36.3499 29.7664 36.1863 29.7664H33.5949V28.4664C33.5949 28.2271 33.4016 28.0331 33.1631 28.0331H24.5252C24.2866 28.0331 24.0933 28.2271 24.0933 28.4664V36.2663C24.0933 36.5056 24.2866 36.6996 24.5252 36.6996H26.3141C26.5479 37.6229 27.4836 38.1811 28.4038 37.9465C29.0145 37.7908 29.4914 37.3123 29.6466 36.6996H32.7925C33.0264 37.6229 33.962 38.1811 34.8822 37.9465C35.4929 37.7908 35.9698 37.3123 36.125 36.6996H37.482C37.7205 36.6996 37.9139 36.5056 37.9139 36.2663V32.7997C37.9139 32.7324 37.8983 32.666 37.8683 32.6059ZM27.9803 37.1329C27.5032 37.1329 27.1165 36.7449 27.1165 36.2663C27.1165 35.7876 27.5032 35.3996 27.9803 35.3996C28.4574 35.3996 28.8441 35.7876 28.8441 36.2663C28.8436 36.7447 28.4572 37.1324 27.9803 37.1329ZM32.7312 35.833H29.6466C29.4508 35.0696 28.7659 34.5354 27.9803 34.533C27.1948 34.5354 26.5099 35.0696 26.3141 35.833H24.9571V28.8997H32.7312V35.833ZM35.3225 30.633H35.9194L36.7832 32.3663H35.3225V30.633ZM34.4587 37.1329C33.9817 37.1329 33.5949 36.7449 33.5949 36.2663C33.5949 35.7876 33.9817 35.3996 34.4587 35.3996C34.9358 35.3996 35.3225 35.7876 35.3225 36.2663C35.322 36.7447 34.9356 37.1324 34.4587 37.1329ZM37.0501 35.833H36.125C35.9292 35.0696 35.2443 34.5354 34.4587 34.533C34.1545 34.5347 33.8564 34.618 33.5949 34.7741V30.633H34.4587V32.7997C34.4587 33.039 34.6521 33.233 34.8906 33.233H37.0501V35.833Z" fill="white"/>
<path d="M22.3646 18.0665H21.502V18.9332H22.3646V18.0665Z" fill="white"/>
<path d="M24.0921 18.0665H23.2295V18.9332H24.0921V18.0665Z" fill="white"/>
<path d="M25.8197 18.0665H24.957V18.9332H25.8197V18.0665Z" fill="white"/>
<path d="M27.5475 18.0665H26.6848V18.9332H27.5475V18.0665Z" fill="white"/>
<path d="M35.7921 19.2379L34.4541 17.8952C33.4592 16.8983 32.1117 16.3368 30.7058 16.3333H27.3561L25.3235 13.0704C25.2446 12.9437 25.1062 12.8667 24.9572 12.8667H23.6615C23.4229 12.8668 23.2295 13.0609 23.2297 13.3004C23.2297 13.3357 23.234 13.3709 23.2425 13.4052L23.9721 16.3333H20.5278L19.3245 12.3089C19.2697 12.1256 19.1014 12 18.9107 12H16.7512C16.5127 12 16.3193 12.194 16.3193 12.4333V16.7666H16.3234C16.322 16.881 16.366 16.9913 16.4459 17.0729L19.1452 19.7812C20.2589 20.9059 21.7748 21.5367 23.3549 21.5332H23.4725L22.3994 23.9573C22.3026 24.176 22.4008 24.432 22.6187 24.5292C22.6314 24.5348 22.6443 24.5399 22.6575 24.5442L23.9523 24.9776C24.1337 25.0382 24.3332 24.972 24.4428 24.8149L26.731 21.5332H34.8434C35.5832 21.5345 36.184 20.9339 36.1854 20.1917C36.1861 19.8339 36.0445 19.4906 35.7921 19.2379ZM24.7179 13.7333L26.3375 16.3333H24.8626L24.2147 13.7333H24.7179ZM17.1831 12.8667H18.5893L19.6259 16.3333H17.1831V12.8667ZM23.9199 24.0531L23.3819 23.8731L24.8014 20.6665H26.2812L23.9199 24.0531ZM35.2864 20.3695C35.2145 20.5511 35.0381 20.6693 34.8434 20.6665H27.3353L27.4642 20.4816C27.6009 20.2855 27.5532 20.0152 27.3578 19.8781C27.2852 19.8272 27.1989 19.7999 27.1103 19.7999H24.5206C24.3499 19.7999 24.1952 19.9008 24.1259 20.0574L23.8562 20.6665H23.3549C22.004 20.6695 20.708 20.1301 19.7559 19.1685L17.7938 17.1999H30.7058C31.6474 17.204 32.5635 17.5074 33.3225 18.0666H30.14V18.9332H34.2668L35.1824 19.8519C35.3208 19.9861 35.3622 20.192 35.2864 20.3695Z" fill="white"/>
<path d="M22.5874 36.8145C22.3155 36.5215 21.9507 36.3321 21.5553 36.2786L23.2045 31.6455C23.2846 31.4198 23.1671 31.1717 22.9422 31.0913C22.9396 31.0904 22.9369 31.0895 22.9343 31.0886L21.8811 30.7364L21.0631 26.2224C21.0258 26.0163 20.8469 25.8665 20.6382 25.8665H18.9106V24.5665C18.9106 24.3272 18.7172 24.1332 18.4787 24.1332H16.7511C16.5126 24.1332 16.3192 24.3272 16.3192 24.5665V25.8665H14.5917C14.3829 25.8665 14.204 26.0163 14.1667 26.2224L13.3487 30.7364L12.2955 31.0886C12.0691 31.1646 11.947 31.4104 12.0227 31.6376C12.0236 31.6402 12.0245 31.6428 12.0254 31.6455L13.6746 36.2787C13.2798 36.3327 12.9157 36.522 12.6441 36.8145C12.4878 37.012 12.2516 37.1289 12.0003 37.133V37.9996C12.4683 37.9971 12.914 37.7984 13.2296 37.4516C13.3859 37.254 13.6222 37.137 13.8736 37.133C13.9649 37.1322 14.0554 37.1492 14.1403 37.1828C14.1439 37.1845 14.1462 37.1879 14.1499 37.1895C14.2853 37.2572 14.4083 37.3475 14.5136 37.4565C14.8325 37.8003 15.2786 37.9968 15.7467 37.9996C16.2146 37.997 16.6602 37.7982 16.9756 37.4514C17.2473 37.0953 17.7552 37.0276 18.1101 37.3002C18.1667 37.3436 18.2174 37.3944 18.2607 37.4512C18.5758 37.7981 19.0211 37.997 19.4889 37.9996C19.9567 37.9968 20.4025 37.8002 20.7209 37.4563C20.8253 37.3481 20.9472 37.2582 21.0813 37.1905C21.0852 37.1889 21.0877 37.1852 21.0915 37.1835C21.1765 37.1494 21.2674 37.1323 21.359 37.133C21.6098 37.1371 21.8456 37.254 22.0012 37.4515C22.3164 37.7982 22.7618 37.997 23.2296 37.9997V37.133C22.9787 37.1289 22.743 37.012 22.5874 36.8145ZM17.183 24.9998H18.0468V25.8665H17.183V24.9998ZM17.183 36.3228C16.8812 36.4165 16.6082 36.5857 16.3897 36.8145C16.1173 37.171 15.6084 37.2384 15.2531 36.965C15.1967 36.9217 15.1463 36.8711 15.1031 36.8145C14.969 36.6831 14.8204 36.5675 14.6601 36.4701L12.9872 31.7708L17.183 30.3677V36.3228ZM17.4783 29.3553L14.2833 30.4238L14.9521 26.7331H20.2778L20.9466 30.4238L17.7516 29.3553C17.6629 29.3257 17.567 29.3257 17.4783 29.3553ZM20.5689 36.4729C20.4105 36.5699 20.2635 36.6846 20.1308 36.8147C19.8596 37.1704 19.3524 37.2382 18.9979 36.9661C18.9411 36.9226 18.8904 36.8717 18.847 36.8147C18.6271 36.5836 18.3515 36.4133 18.0469 36.3204V30.3677L22.2427 31.7708L20.5689 36.4729Z" fill="white"/>
<path d="M29.275 18.0665H28.4124V18.9332H29.275V18.0665Z" fill="white"/>
</g>
<defs>
<clipPath id="clip0_330_865">
<rect width="25.9141" height="26" fill="white" transform="translate(12 12)"/>
</clipPath>
</defs>
</svg>
