<svg width="48" height="48" viewBox="0 0 48 48" fill="none" xmlns="http://www.w3.org/2000/svg">
<circle cx="24" cy="24" r="23.5" fill="black" stroke="white"/>
<path fill-rule="evenodd" clip-rule="evenodd" d="M33.8156 25.4252L13.816 25.4252L13.816 23.7109L33.8156 23.7109L33.8156 25.4252Z" fill="white"/>
<path fill-rule="evenodd" clip-rule="evenodd" d="M32.9591 23.7107C28.9277 23.7107 25.6334 27.256 25.6333 31.0364L25.6333 31.8936L27.3476 31.8936L27.3477 31.0364C27.3476 28.1661 29.9106 25.425 32.9591 25.425L33.8157 25.425L33.8157 23.7107L32.9591 23.7107Z" fill="white"/>
<path fill-rule="evenodd" clip-rule="evenodd" d="M32.9591 25.425C28.9277 25.425 25.6334 21.8796 25.6335 18.0992L25.6334 17.2421L27.3477 17.242L27.3477 18.0992C27.3477 20.9696 29.9107 23.7107 32.9591 23.7107L33.8158 23.7107L33.8158 25.425L32.9591 25.425Z" fill="white"/>
</svg>
