<?xml version="1.0" encoding="UTF-8"?>
<svg xmlns="http://www.w3.org/2000/svg" width="166.288" height="44.334" viewBox="0 0 166.288 44.334">
  <g id="logo" transform="translate(-0.546 -0.661)">
    <path id="Trazado_1" data-name="Trazado 1" d="M75.374,6.84H73.428a2.107,2.107,0,0,0-2.376,1.773c-.568,2.238-1.067,4.511-1.567,6.766-.637,2.772-1.257,5.6-1.894,8.4a1.531,1.531,0,0,1-1.7,1.343,1.665,1.665,0,0,1-1.877-1.429c-.086-.362-.207-.689-.275-1.067-.981-4.493-1.945-9-2.961-13.48-.4-1.773-1.1-2.29-2.927-2.307H56.367c-1.636.034-2.118.637-1.773,2.221q1.033,4.623,2.083,9.211c.6,2.548,1.205,5.113,1.894,7.609.5,1.842,1.377,3.546,3.374,4.1a23.017,23.017,0,0,0,3.925.43,5.322,5.322,0,0,1-2.548,3.512,22.188,22.188,0,0,1-3.271,1.274,1.379,1.379,0,0,0-1.085,1.636h0a14.7,14.7,0,0,0,.31,1.739c.4,1.481,1.016,1.894,2.565,1.756a7.136,7.136,0,0,0,1.171-.258,10.409,10.409,0,0,0,7.782-5.957c1.377-2.772,1.808-5.836,2.514-8.8.878-3.564,1.67-7.162,2.5-10.743.43-1.877.878-3.719,1.274-5.6C77.405,7.46,76.906,6.874,75.374,6.84Z" transform="translate(38.925 4.459)" fill="#111f29"></path>
    <path id="Trazado_2" data-name="Trazado 2" d="M90.065,21.056c0-2.41.155-4.838-.034-7.248a7.045,7.045,0,0,0-4.752-6.4,14.837,14.837,0,0,0-7.041-.792A16.292,16.292,0,0,0,74,7.593c-3.392,1.377-4.717,4.235-4.8,7.7-.1,4.115,0,8.246,0,12.378a6.331,6.331,0,0,0,.121,1,1.386,1.386,0,0,0,1.291,1.274,20.315,20.315,0,0,0,3.237,0c.9-.086,1.274-.809,1.377-1.636A10.974,10.974,0,0,0,75.259,27V15.375c0-1.756.654-2.651,2.341-2.944a13.185,13.185,0,0,1,3.684-.155c2.014.207,2.634,1,2.823,3.03.034.4.034.792.034,1.205V26.737c0,.465,0,.947.034,1.377.121,1.377.637,1.859,2.014,1.911h1.67c1.7,0,2.238-.5,2.255-2.2.052-2.255,0-4.528,0-6.783Z" transform="translate(49.507 4.205)" fill="#111f29"></path>
    <path id="Trazado_3" data-name="Trazado 3" d="M59.854,26.958H51.315c-2.152,0-2.307-.155-2.307-2.341V6.006a12.192,12.192,0,0,0-.069-1.584,1.469,1.469,0,0,0-1.377-1.463,16.2,16.2,0,0,0-2.582-.1C43.344,2.993,42.9,3.51,42.9,5.2V16.353h0c0,3.839-.034,7.7,0,11.518,0,1.945.689,3.65,2.686,4.338a9.312,9.312,0,0,0,2.91.43c3.633.052,7.248,0,10.881,0,2.686,0,3.116-.448,3.1-3.133-.034-1.98-.585-2.548-2.617-2.548Z" transform="translate(30.549 1.575)" fill="#111f29"></path>
    <path id="Trazado_4" data-name="Trazado 4" d="M90.147,3.295a1.576,1.576,0,0,0-1.377-1.722,11.8,11.8,0,0,0-3.116,0,1.553,1.553,0,0,0-1.395,1.67v.034c0,.551-.069,1.119-.069,1.67V30.031c0,.689.069,1.429.121,2.135a1.274,1.274,0,0,0,1.1,1.308,17.779,17.779,0,0,0,3.581,0c.9-.1,1.153-.912,1.153-1.773V17.6h0V3.295Z" transform="translate(60.358 0.584)" fill="#111f29"></path>
    <path id="Trazado_5" data-name="Trazado 5" d="M101.876,26.93c-2.2-2.72-4.425-5.406-6.628-8.126-.775-.947-.74-1.326,0-2.29.74-.947,1.618-1.963,2.41-2.927,1.446-1.773,2.91-3.529,4.338-5.32a1.273,1.273,0,0,0,.275-.981c-.1-.241-.6-.379-.93-.413a15.7,15.7,0,0,0-1.859,0c-1.343,0-3.977.172-5.371,2s-2.841,3.46-4.2,5.2a5.346,5.346,0,0,0-.172,6.921c1.911,2.582,3.96,5.062,6.06,7.506A3.847,3.847,0,0,0,98,29.7a28.624,28.624,0,0,0,4.545.069c.792,0,1-.5.551-1.205a16.842,16.842,0,0,0-1.222-1.636Z" transform="translate(63.503 4.461)" fill="#111f29"></path>
    <path id="Trazado_6" data-name="Trazado 6" d="M18.079,29.759l-3.323-3.323L7.68,19.361A8.12,8.12,0,0,1,19.163,7.877l7.076,7.076,6.37,6.37L37.4,26.109a8.135,8.135,0,0,1,2.014,8.16L44.3,29.38a12.865,12.865,0,0,0-3.116-6.2h0l-.43-.43-4.769-4.8L22.555,4.52A12.892,12.892,0,0,0,4.323,22.752L19.129,37.558a14.032,14.032,0,0,1-1.05-7.8Z" transform="translate(0 0.065)" fill="#111f29"></path>
    <path id="Trazado_7" data-name="Trazado 7" d="M33.375,4.568l-8.453,8.453L28.3,16.4l1.377-1.377,7.076-7.076A8.12,8.12,0,1,1,48.233,19.425L41.157,26.5l-4.063,4.1L30,37.64A8.114,8.114,0,0,1,18.552,26.157l4.786-4.786L19.964,18l-4.786,4.8-.43.43h0A12.884,12.884,0,0,0,32.962,41.444h0l.43-.43L51.641,22.8A12.905,12.905,0,1,0,33.633,4.309Z" transform="translate(7.687 0)" fill="#111f29"></path>
  </g>
</svg>
