<svg width="36" height="36" viewBox="0 0 36 36" fill="none" xmlns="http://www.w3.org/2000/svg">
<circle cx="18" cy="18" r="18" fill="#FEFEFE"/>
<path fill-rule="evenodd" clip-rule="evenodd" d="M18.03 8.00005C18.2952 8.00005 18.5496 8.10541 18.7371 8.29294C18.9246 8.48048 19.03 8.73483 19.03 9.00005V17.0201H27.05C27.3165 17.0201 27.5722 17.1259 27.7606 17.3144C27.9491 17.5029 28.055 17.7585 28.055 18.0251C28.055 18.2916 27.9491 18.5472 27.7606 18.7357C27.5722 18.9242 27.3165 19.0301 27.05 19.0301H19.03V27.05C19.03 27.3166 18.9241 27.5722 18.7356 27.7607C18.5472 27.9492 18.2915 28.055 18.025 28.055C17.7585 28.055 17.5028 27.9492 17.3144 27.7607C17.1259 27.5722 17.02 27.3166 17.02 27.05V19.0301H9C8.73345 19.0301 8.47783 18.9242 8.28935 18.7357C8.10088 18.5472 7.995 18.2916 7.995 18.0251C7.995 17.7585 8.10088 17.5029 8.28935 17.3144C8.47783 17.1259 8.73345 17.0201 9 17.0201H17.02V9.01005C17.0187 8.87704 17.0439 8.74511 17.0942 8.62196C17.1444 8.49882 17.2188 8.38695 17.3128 8.29289C17.4069 8.19884 17.5188 8.12449 17.6419 8.07421C17.7651 8.02393 17.897 7.99871 18.03 8.00005Z" fill="#010101"/>
</svg>
