<svg width="40" height="40" viewBox="0 0 40 40" fill="none" xmlns="http://www.w3.org/2000/svg">
<circle cx="20" cy="20" r="20" fill="#B98B44"/>
<g clip-path="url(#clip0_330_900)">
<path d="M30.2298 15.9886H28.6954C28.5083 15.9886 28.3566 16.1408 28.3566 16.3284C28.3566 16.5161 28.5083 16.6683 28.6954 16.6683H30.2298C30.7901 16.6683 31.246 17.1256 31.246 17.6878V31.2977C31.246 31.3102 31.2359 31.3204 31.2234 31.3204H27.4532V29.961H29.1835C29.5677 29.961 29.8817 29.6473 29.8835 29.2618L29.8911 27.5884C29.8947 27.2044 29.5727 26.881 29.1911 26.8829H27.4532V25.5432H29.1835C29.5677 25.5432 29.8817 25.2296 29.8835 24.8441L29.8911 23.1706C29.8947 22.7866 29.5727 22.4633 29.1911 22.4651H27.4532V21.1057H29.1835C29.5677 21.1057 29.8817 20.7921 29.8835 20.4066L29.8911 18.7331C29.8947 18.3492 29.5727 18.0258 29.1911 18.0276H27.4532V14.5094C27.4532 13.5725 26.6935 12.8102 25.7596 12.8102H24.6842C24.5108 10.5698 22.6384 8.80005 20.3617 8.80005C18.085 8.80005 16.2126 10.5698 16.0393 12.8102H14.9422C14.0083 12.8102 13.2486 13.5725 13.2486 14.5094V15.9886H10.4937C9.55978 15.9886 8.80005 16.7509 8.80005 17.6878V31.2977C8.80005 31.685 9.11407 32 9.50007 32H31.2234C31.6094 32 31.9234 31.685 31.9234 31.2977V17.6878C31.9234 16.7509 31.1637 15.9886 30.2298 15.9886ZM27.4532 18.7074H29.1911C29.1934 18.7074 29.2005 18.7074 29.2071 18.714C29.2136 18.7207 29.2136 18.7277 29.2136 18.7301L29.2061 20.4034C29.2061 20.4159 29.1959 20.426 29.1835 20.426H27.4532V18.7074ZM27.4532 23.1448H29.1911C29.1934 23.1448 29.2005 23.1448 29.2071 23.1515C29.2136 23.1581 29.2136 23.1652 29.2136 23.1676L29.2061 24.8409C29.2061 24.8534 29.1959 24.8635 29.1835 24.8635H27.4532V23.1448ZM27.4532 27.5626H29.1911C29.1934 27.5626 29.2005 27.5626 29.2071 27.5693C29.2136 27.5759 29.2136 27.583 29.2136 27.5853L29.2061 29.2587C29.2061 29.2712 29.1959 29.2813 29.1835 29.2813H27.4532V27.5626ZM13.2486 29.2813H11.5401C11.5275 29.2813 11.5175 29.2715 11.5175 29.2589L11.5098 27.5855C11.5098 27.5831 11.5098 27.5759 11.5164 27.5693C11.523 27.5626 11.5301 27.5626 11.5324 27.5626H13.2486V29.2813ZM13.2486 24.8633H11.5401C11.5275 24.8633 11.5175 24.8535 11.5175 24.8409L11.5098 23.1676C11.5098 23.1652 11.5098 23.1581 11.5165 23.1513C11.5231 23.1446 11.5301 23.1446 11.5324 23.1446H13.2486V24.8633ZM13.2486 20.4259H11.5401C11.5275 20.4259 11.5175 20.416 11.5175 20.4034L11.5098 18.7301C11.5098 18.7277 11.5098 18.7207 11.5165 18.7139C11.5231 18.7072 11.5301 18.7072 11.5324 18.7072H13.2486V20.4259ZM13.2486 18.0275H11.5324C11.1494 18.0254 10.829 18.3497 10.8324 18.7332L10.8401 20.4066C10.8418 20.792 11.1558 21.1056 11.5401 21.1056H13.2486V22.4649H11.5324C11.1494 22.4628 10.829 22.7872 10.8324 23.1707L10.8401 24.8441C10.8418 25.2295 11.1558 25.5431 11.5401 25.5431H13.2486V26.883H11.5324C11.1491 26.8808 10.829 27.2049 10.8324 27.5887L10.8401 29.2621C10.8418 29.6474 11.1558 29.961 11.5401 29.961H13.2486V31.3204H9.50007C9.48761 31.3204 9.47749 31.3102 9.47749 31.2977V17.6878C9.47749 17.1256 9.93332 16.6683 10.4937 16.6683H13.2486V18.0275ZM20.3617 9.47974C22.3789 9.47974 24.0199 11.1262 24.0199 13.15C24.0199 15.1739 22.3789 16.8204 20.3617 16.8204C18.3446 16.8204 16.7035 15.1739 16.7035 13.15C16.7035 11.1262 18.3446 9.47974 20.3617 9.47974ZM23.3887 31.3204H20.7005V25.3358H23.3887V31.3204ZM16.6573 24.6561V23.9764H24.0662V24.6561H16.6573ZM26.7758 31.3204H24.0662V25.3358C24.4197 25.3563 24.7459 25.0969 24.7436 24.724V23.9084C24.7436 23.5711 24.4701 23.2967 24.1339 23.2967H16.5896C16.2534 23.2967 15.9799 23.5711 15.9799 23.9084V24.724C15.9775 25.0812 16.2978 25.3729 16.6573 25.3358V27.7423C16.6573 27.9299 16.809 28.0821 16.996 28.0821C17.1831 28.0821 17.3347 27.9299 17.3347 27.7423V25.3358H20.023V31.3204H17.3347V29.3282C17.3347 29.1405 17.1831 28.9884 16.996 28.9884C16.809 28.9884 16.6573 29.1405 16.6573 29.3282V31.3204H13.926V14.5094C13.926 13.9472 14.3819 13.4899 14.9422 13.4899H16.0393C16.2126 15.7303 18.085 17.5 20.3617 17.5C22.6384 17.5 24.5108 15.7303 24.6842 13.4899H25.7596C26.3199 13.4899 26.7758 13.9472 26.7758 14.5094V31.3204ZM19.3456 14.1696V15.529C19.3456 15.8663 19.6191 16.1407 19.9553 16.1407H20.7682C21.1044 16.1407 21.3779 15.8663 21.3779 15.529V14.1696H22.7328C23.069 14.1696 23.3425 13.8952 23.3425 13.5579V12.7422C23.3425 12.4049 23.069 12.1305 22.7328 12.1305H21.3779V10.7711C21.3779 10.4338 21.1044 10.1594 20.7682 10.1594H19.9553C19.6191 10.1594 19.3456 10.4338 19.3456 10.7711V12.1305H17.9907C17.6545 12.1305 17.381 12.4049 17.381 12.7422V13.5579C17.381 13.8952 17.6545 14.1696 17.9907 14.1696H19.3456ZM18.0584 12.8102H19.5488C19.8103 12.8102 20.023 12.5968 20.023 12.3344V10.8391H20.7005V12.3344C20.7005 12.5968 20.9132 12.8102 21.1747 12.8102H22.665V13.4899H21.1747C20.9132 13.4899 20.7005 13.7033 20.7005 13.9657V15.461H20.023V13.9657C20.023 13.7033 19.8103 13.4899 19.5488 13.4899H18.0584V12.8102ZM19.0068 29.0157C19.1939 29.0157 19.3456 28.8636 19.3456 28.6759V27.9803C19.3456 27.7926 19.1939 27.6404 19.0068 27.6404C18.8198 27.6404 18.6681 27.7926 18.6681 27.9803V28.6759C18.6681 28.8636 18.8198 29.0157 19.0068 29.0157ZM18.9843 18.8594H15.9902C15.6059 18.8594 15.2918 19.1731 15.2901 19.5586L15.2826 21.2319C15.2785 21.614 15.6002 21.9397 15.9826 21.9375H18.9843C19.3703 21.9375 19.6843 21.6224 19.6843 21.2352V19.5618C19.6843 19.1745 19.3703 18.8594 18.9843 18.8594ZM19.0068 21.2352C19.0068 21.2477 18.9967 21.2578 18.9843 21.2578H15.9826C15.9736 21.259 15.9588 21.2441 15.96 21.2351L15.9675 19.5616C15.9676 19.5492 15.9777 19.5391 15.9901 19.5391H18.9843C18.9967 19.5391 19.0068 19.5493 19.0068 19.5618V21.2352ZM21.7166 29.0157C21.9037 29.0157 22.0553 28.8636 22.0553 28.6759V27.9803C22.0553 27.7926 21.9037 27.6404 21.7166 27.6404C21.5296 27.6404 21.3779 27.7926 21.3779 27.9803V28.6759C21.3779 28.8636 21.5296 29.0157 21.7166 29.0157ZM24.7301 18.8594H21.7392C21.3532 18.8594 21.0392 19.1745 21.0392 19.5618V21.2352C21.0392 21.6224 21.3532 21.9375 21.7392 21.9375H24.7225C25.1067 21.9375 25.4207 21.6238 25.4225 21.2383L25.43 19.5649C25.4337 19.181 25.1116 18.8576 24.7301 18.8594ZM24.7451 21.2352C24.745 21.2477 24.7349 21.2578 24.7225 21.2578H21.7392C21.7267 21.2578 21.7166 21.2477 21.7166 21.2352V19.5618C21.7166 19.5493 21.7267 19.5391 21.7392 19.5391H24.7301C24.7324 19.5391 24.7395 19.5391 24.7461 19.5458C24.7526 19.5524 24.7526 19.5595 24.7526 19.5618L24.7451 21.2352Z" fill="white"/>
</g>
<defs>
<clipPath id="clip0_330_900">
<rect width="23.1234" height="23.2" fill="white" transform="translate(8.80005 8.80005)"/>
</clipPath>
</defs>
</svg>
