<svg width="40" height="40" viewBox="0 0 40 40" fill="none" xmlns="http://www.w3.org/2000/svg">
<circle cx="20" cy="20" r="20" fill="#B98B44"/>
<path d="M29.0349 20.3001C29.0286 20.2184 28.9918 20.1422 28.932 20.0866C28.8721 20.0309 28.7935 20 28.7119 20H24.0639L23.8526 15.7588C23.8484 15.6755 23.8125 15.597 23.7523 15.5395C23.6921 15.4821 23.6121 15.45 23.529 15.45H21.2615V13.825C21.2617 13.357 21.1499 12.8959 20.9355 12.4802C20.7212 12.0646 20.4105 11.7066 20.0296 11.4365C19.6488 11.1663 19.2088 10.9918 18.7468 10.9276C18.2848 10.8635 17.8141 10.9115 17.3744 11.0677C16.9347 10.9115 16.4641 10.8635 16.0021 10.9276C15.54 10.9918 15.1001 11.1663 14.7192 11.4365C14.3384 11.7066 14.0277 12.0646 13.8133 12.4802C13.5989 12.8959 13.4871 13.357 13.4873 13.825V15.45H11.2198C11.1367 15.45 11.0568 15.4821 10.9966 15.5395C10.9364 15.597 10.9005 15.6755 10.8963 15.7588L10.2485 28.7588C10.2463 28.8028 10.253 28.8468 10.2683 28.8881C10.2835 28.9294 10.307 28.9671 10.3373 28.999C10.3675 29.0309 10.4039 29.0563 10.4443 29.0737C10.4846 29.0911 10.5281 29.1 10.572 29.1H29.3597C29.4043 29.1 29.4485 29.0908 29.4894 29.0729C29.5303 29.0549 29.5671 29.0287 29.5974 28.9959C29.6277 28.963 29.651 28.9242 29.6656 28.8819C29.6803 28.8396 29.6861 28.7947 29.6827 28.7501L29.0349 20.3001ZM28.064 27.4109L28.7545 28.45H27.3737L28.064 27.4109ZM28.9417 27.56L28.3783 26.7121L27.7741 20.65H28.4119L28.9417 27.56ZM27.123 20.65L27.7304 26.7416L27.0193 27.8114L26.4702 20.65H27.123ZM23.4153 20H22.8056L22.5769 16.1H23.2207L23.4153 20ZM21.9279 16.1L22.1566 20H21.4723L21.2779 16.1H21.9279ZM18.3462 11.55C18.9474 11.5507 19.5237 11.7906 19.9488 12.2171C20.3739 12.6436 20.613 13.2219 20.6137 13.825V15.45H19.318V13.825C19.318 13.3893 19.2208 12.959 19.0335 12.5659C18.8463 12.1727 18.5737 11.8266 18.2358 11.5528C18.2724 11.5511 18.3092 11.55 18.3462 11.55ZM17.3744 11.77C17.7618 11.9547 18.0892 12.2458 18.3185 12.6095C18.5478 12.9732 18.6697 13.3947 18.6701 13.825V15.45H16.0787V13.825C16.0791 13.3947 16.2011 12.9732 16.4304 12.6095C16.6597 12.2458 16.987 11.9547 17.3744 11.77ZM14.1352 13.825C14.1359 13.2219 14.375 12.6436 14.8001 12.2171C15.2251 11.7906 15.8015 11.5507 16.4027 11.55C16.4397 11.55 16.4765 11.5511 16.5131 11.5528C16.1751 11.8266 15.9026 12.1727 15.7153 12.5659C15.528 12.959 15.4309 13.3893 15.4309 13.825V15.45H14.1352V13.825ZM18.0463 28.45H10.9125L11.528 16.1H13.4873V18.2011L12.6598 18.7546C12.6154 18.7843 12.579 18.8245 12.5539 18.8717C12.5287 18.9189 12.5155 18.9715 12.5155 19.025V21.625C12.5155 21.7112 12.5497 21.7939 12.6104 21.8548C12.6712 21.9158 12.7535 21.95 12.8395 21.95H14.783C14.8689 21.95 14.9513 21.9158 15.0121 21.8548C15.0728 21.7939 15.1069 21.7112 15.1069 21.625V19.025C15.1069 18.9715 15.0938 18.9189 15.0686 18.8717C15.0435 18.8245 15.0071 18.7843 14.9627 18.7546L14.1352 18.2011V16.1H18.6701V17.075C18.6701 17.1612 18.7043 17.2439 18.765 17.3048C18.8258 17.3658 18.9082 17.4 18.9941 17.4C19.08 17.4 19.1624 17.3658 19.2231 17.3048C19.2839 17.2439 19.318 17.1612 19.318 17.075V16.1H20.6295L20.8238 20H18.9941C18.9125 20 18.8338 20.0309 18.774 20.0866C18.7141 20.1422 18.6773 20.2184 18.6711 20.3001L18.0463 28.45ZM13.8112 18.7656L14.4591 19.1989V21.3H13.1634V19.1989L13.8112 18.7656ZM19.294 20.65H25.8205L26.4185 28.45H18.696L19.294 20.65Z" fill="white"/>
<path d="M24.1767 21.95C24.0908 21.95 24.0084 21.9842 23.9477 22.0451C23.8869 22.1061 23.8528 22.1888 23.8528 22.275V24.875C23.8525 25.1334 23.75 25.3813 23.5678 25.5641C23.3857 25.7468 23.1387 25.8497 22.881 25.85H22.2332C21.9755 25.8497 21.7285 25.7468 21.5463 25.5641C21.3641 25.3813 21.2617 25.1334 21.2614 24.875V22.275C21.2614 22.1888 21.2273 22.1061 21.1665 22.0451C21.1058 21.9842 21.0234 21.95 20.9375 21.95C20.8515 21.95 20.7691 21.9842 20.7084 22.0451C20.6477 22.1061 20.6135 22.1888 20.6135 22.275V24.875C20.614 25.3058 20.7848 25.7188 21.0884 26.0235C21.3921 26.3281 21.8038 26.4995 22.2332 26.5H22.881C23.3104 26.4995 23.7221 26.3281 24.0257 26.0235C24.3294 25.7188 24.5002 25.3058 24.5006 24.875V22.275C24.5006 22.1888 24.4665 22.1061 24.4058 22.0451C24.345 21.9842 24.2626 21.95 24.1767 21.95Z" fill="white"/>
</svg>
