<svg width="48" height="48" viewBox="0 0 48 48" fill="none" xmlns="http://www.w3.org/2000/svg">
<circle cx="24.0601" cy="24.1051" r="23.2793" fill="white"/>
<g clip-path="url(#clip0_134_1303)">
<path d="M24.0638 9.4024H24.0565C15.9498 9.4024 9.35742 15.9966 9.35742 24.1051C9.35742 27.3213 10.394 30.3023 12.1565 32.7227L10.3241 38.1848L15.9755 36.3782C18.3003 37.9183 21.0736 38.8078 24.0638 38.8078C32.1705 38.8078 38.7628 32.2118 38.7628 24.1051C38.7628 15.9984 32.1705 9.4024 24.0638 9.4024Z" fill="#4CAF50"/>
<path d="M32.6189 30.1645C32.2642 31.1661 30.8564 31.9968 29.7335 32.2394C28.9653 32.403 27.9618 32.5335 24.5839 31.133C20.2631 29.343 17.4806 24.9524 17.2638 24.6675C17.0561 24.3826 15.5178 22.3426 15.5178 20.2328C15.5178 18.123 16.5893 17.0956 17.0212 16.6545C17.3759 16.2925 17.9621 16.1271 18.5245 16.1271C18.7065 16.1271 18.87 16.1363 19.0171 16.1436C19.449 16.162 19.6658 16.1877 19.9507 16.8696C20.3054 17.7242 21.1692 19.834 21.2721 20.0509C21.3769 20.2677 21.4816 20.5618 21.3346 20.8466C21.1967 21.1407 21.0754 21.2712 20.8586 21.5211C20.6417 21.7711 20.4359 21.9622 20.219 22.2305C20.0205 22.4639 19.7963 22.7139 20.0463 23.1458C20.2962 23.5685 21.16 24.9781 22.4318 26.1102C24.073 27.5713 25.4036 28.0381 25.8796 28.2366C26.2343 28.3836 26.657 28.3487 26.9161 28.073C27.2451 27.7183 27.6512 27.1302 28.0647 26.5513C28.3588 26.1359 28.73 26.0845 29.1197 26.2315C29.5166 26.3694 31.6173 27.4077 32.0492 27.6228C32.4811 27.8396 32.7659 27.9425 32.8707 28.1245C32.9736 28.3064 32.9736 29.161 32.6189 30.1645Z" fill="#FAFAFA"/>
</g>
<defs>
<clipPath id="clip0_134_1303">
<rect width="29.4054" height="29.4054" fill="white" transform="translate(9.35742 9.4024)"/>
</clipPath>
</defs>
</svg>
