<svg width="184" height="46" viewBox="0 0 184 46" fill="none" xmlns="http://www.w3.org/2000/svg">
<g clip-path="url(#clip0_819_43198)">
<path d="M17.2151 13.3481V17.1908H0V13.3481H17.2151ZM17.2151 32.4828V36.3254H0V32.4828L10.7594 19.1086H15.6911L4.90025 32.4828H17.2151Z" fill="#4C1A88"/>
<path d="M35.6906 32.4826V36.3252H30.8873C29.3502 36.3367 27.8276 36.0265 26.4176 35.4143C25.0587 34.8286 23.8228 33.9912 22.7749 32.9463C21.7332 31.9006 20.903 30.6638 20.3296 29.3036C19.7394 27.8877 19.4355 26.3688 19.4355 24.8348C19.4355 23.3008 19.7394 21.7819 20.3296 20.366C20.9024 19.0056 21.7328 17.7687 22.7749 16.7233C23.8231 15.6797 25.059 14.8435 26.4176 14.2588C27.8279 13.6476 29.3503 13.3374 30.8873 13.3479H35.6906V17.1906H30.8873C29.8632 17.1838 28.8485 17.3868 27.9058 17.787C26.0705 18.5608 24.6097 20.0204 23.8343 21.855C23.4407 22.7993 23.2381 23.8122 23.2381 24.8352C23.2381 25.8583 23.4407 26.8712 23.8343 27.8155C24.6089 29.6509 26.0694 31.1115 27.9049 31.8861C28.8476 32.2864 29.8623 32.4894 30.8864 32.4826H35.6906ZM35.6906 22.9152V26.7579H25.4936C25.0079 25.523 25.0079 24.1501 25.4936 22.9152H35.6906Z" fill="#4C1A88"/>
<path d="M50.9546 28.0791L55.6863 36.3216H51.2498L46.8892 28.6756H43.3199V36.3216H39.4668V24.8329H48.0071C48.5189 24.8362 49.0261 24.7355 49.4979 24.5369C49.9515 24.343 50.3659 24.0677 50.7205 23.7247C51.0741 23.3817 51.3554 22.9713 51.5476 22.5177C51.94 21.5777 51.9446 20.5206 51.5602 19.5773C51.1758 18.6339 50.4338 17.881 49.4961 17.483C49.0249 17.2826 48.5174 17.1812 48.0053 17.1852H39.4668V13.381H48.0071C49.216 13.3492 50.4143 13.6148 51.4966 14.1542C52.579 14.6937 53.5123 15.4907 54.2147 16.4752C54.8634 17.3856 55.31 18.4242 55.5247 19.5213C55.745 20.6146 55.7337 21.7418 55.4915 22.8304C55.2237 24.0102 54.6697 25.1061 53.8786 26.0214C53.0874 26.9367 52.0832 27.6433 50.9546 28.0791Z" fill="#4C1A88"/>
<path d="M125.159 13.4824V17.3137H107.945V13.4824H125.159ZM125.159 32.6171V36.4597H107.945V32.6083L118.705 19.235H123.636L112.845 32.6083L125.159 32.6171Z" fill="#C31F5D"/>
<path d="M132.661 13.5078V36.4484H128.855V13.5078H132.661Z" fill="#C31F5D"/>
<path d="M149.732 32.6425V36.4484H137.488V13.5078H141.331V32.6425H149.732Z" fill="#C31F5D"/>
<path d="M164.266 32.6425V36.4484H152.018V13.5078H155.86V32.6425H164.266Z" fill="#C31F5D"/>
<path d="M173.831 13.5078L183.398 36.4484H170.489L172.078 32.6058H177.668L173.825 23.4358L169.982 32.6058L168.393 36.4484H164.264L173.831 13.5078Z" fill="#C31F5D"/>
<path d="M99.6175 41.001H100.428L99.8778 43.7467C99.8371 43.9371 99.8151 44.1311 99.8123 44.3257C99.8123 44.9554 100.064 45.2978 100.679 45.2978C101.196 45.2978 101.587 44.9135 101.782 43.9249L102.365 41.0045H103.156L102.566 43.931C102.279 45.386 101.613 45.9947 100.645 45.9947C100.423 46.026 100.197 46.0056 99.9841 45.9352C99.7714 45.8648 99.5779 45.7463 99.4186 45.5888C99.2592 45.4313 99.1384 45.2392 99.0655 45.0274C98.9926 44.8156 98.9696 44.5898 98.9983 44.3677C99.0067 44.1185 99.036 43.8705 99.0856 43.6262L99.6175 41.001Z" fill="black"/>
<path d="M104.05 42.2177H104.707L104.671 42.7417H104.701C105.034 42.3941 105.481 42.1772 105.96 42.1304C106.572 42.1304 106.834 42.4727 106.834 43.0622C106.832 43.236 106.811 43.409 106.772 43.5783L106.309 45.9005H105.504L105.951 43.6797C105.984 43.5525 106.004 43.4222 106.01 43.291C106.018 43.2285 106.011 43.1651 105.991 43.1054C105.971 43.0457 105.938 42.9913 105.894 42.9462C105.85 42.9011 105.797 42.8664 105.737 42.8448C105.678 42.8231 105.615 42.8151 105.552 42.8212C105.29 42.8212 105.007 42.9958 104.618 43.3897L104.123 45.9093H103.318L104.05 42.2177Z" fill="black"/>
<path d="M107.498 45.3885C107.5 45.2597 107.516 45.1314 107.546 45.006L108.419 40.6079H109.223L108.335 45.0374C108.325 45.085 108.32 45.1337 108.32 45.1824C108.32 45.2933 108.377 45.3379 108.452 45.3379C108.496 45.3394 108.54 45.3323 108.581 45.3169L108.566 45.9195C108.42 45.9687 108.268 45.9929 108.114 45.9911C108.032 46.0026 107.948 45.9951 107.869 45.9691C107.79 45.9431 107.718 45.8993 107.658 45.8411C107.599 45.7829 107.553 45.7119 107.525 45.6334C107.498 45.555 107.488 45.4712 107.498 45.3885Z" fill="black"/>
<path d="M111.418 42.1304C112.272 42.1304 112.589 42.7268 112.589 43.4884C112.583 43.7557 112.528 44.0197 112.427 44.2674H110.187C110.109 45.0438 110.536 45.3739 111.098 45.3739C111.371 45.3539 111.631 45.254 111.847 45.0866L112.142 45.6027C111.772 45.8585 111.332 45.9942 110.882 45.9914C110.679 46.0014 110.476 45.9672 110.287 45.8912C110.098 45.8152 109.928 45.6991 109.788 45.551C109.649 45.403 109.543 45.2264 109.478 45.0334C109.413 44.8405 109.391 44.6357 109.412 44.4333C109.383 43.8644 109.576 43.3063 109.95 42.8766C110.324 42.447 110.85 42.1794 111.418 42.1304ZM111.884 43.7591C111.908 43.6522 111.921 43.543 111.921 43.4334C111.921 43.0788 111.769 42.7574 111.321 42.7574C111.06 42.7861 110.815 42.8995 110.623 43.0803C110.432 43.2611 110.305 43.4995 110.261 43.7591H111.884Z" fill="black"/>
<path d="M113.09 44.6499C113.09 43.243 114.051 42.1304 115.065 42.1304C115.24 42.131 115.41 42.1797 115.559 42.2713C115.707 42.3628 115.827 42.4936 115.905 42.6491H115.926L116.08 42.229H116.726L115.989 45.9093H115.334L115.37 45.3966H115.349C115.04 45.7504 114.604 45.9671 114.135 45.9992C113.493 45.9914 113.09 45.5145 113.09 44.6499ZM115.435 44.7084L115.735 43.2386C115.684 43.112 115.597 43.0026 115.485 42.9234C115.374 42.8442 115.242 42.7985 115.106 42.7915C114.476 42.7915 113.913 43.5915 113.913 44.5381C113.913 45.0779 114.123 45.3241 114.461 45.3241C114.663 45.3141 114.858 45.2522 115.029 45.1443C115.199 45.0364 115.339 44.8863 115.435 44.7084Z" fill="black"/>
<path d="M116.865 45.2876L117.344 44.8972C117.441 45.0423 117.57 45.1626 117.722 45.2486C117.873 45.3346 118.043 45.3839 118.217 45.3924C118.567 45.3924 118.86 45.1828 118.86 44.9155C118.86 44.6483 118.671 44.5522 118.207 44.2859C117.742 44.0195 117.415 43.713 117.415 43.2737C117.427 43.109 117.47 42.9483 117.544 42.8008C117.618 42.6533 117.721 42.5221 117.846 42.4147C117.972 42.3074 118.117 42.2261 118.274 42.1756C118.431 42.1252 118.597 42.1066 118.761 42.1209C118.979 42.1248 119.193 42.1738 119.391 42.2649C119.589 42.356 119.765 42.4872 119.91 42.6501L119.463 43.0702C119.375 42.9662 119.267 42.8814 119.146 42.8213C119.024 42.7611 118.891 42.7269 118.755 42.7209C118.687 42.7128 118.617 42.7184 118.551 42.7373C118.484 42.7562 118.422 42.7881 118.368 42.831C118.314 42.8739 118.269 42.9271 118.236 42.9875C118.202 43.0479 118.181 43.1143 118.173 43.1829C118.173 43.4344 118.489 43.5837 118.803 43.7619C119.349 44.0579 119.618 44.3453 119.618 44.7994C119.618 45.505 119.007 45.9731 118.161 45.9731C117.907 45.9673 117.657 45.9023 117.432 45.7833C117.207 45.6643 117.013 45.4946 116.865 45.2876Z" fill="black"/>
<path d="M121.24 40.6079H122.041L121.723 42.1703L121.578 42.6943H121.607C121.929 42.3635 122.359 42.16 122.819 42.1214C123.43 42.1214 123.692 42.4637 123.692 43.0532C123.693 43.227 123.674 43.4003 123.633 43.5694L123.17 45.8916H122.365L122.819 43.6768C122.852 43.5496 122.871 43.4194 122.877 43.2882C122.885 43.2257 122.879 43.1622 122.858 43.1025C122.838 43.0428 122.805 42.9884 122.761 42.9433C122.717 42.8982 122.664 42.8635 122.605 42.8419C122.545 42.8202 122.482 42.8122 122.42 42.8183C122.158 42.8183 121.874 42.993 121.483 43.3868L120.99 45.9064H120.186L121.24 40.6079Z" fill="black"/>
<path d="M125.975 45.0926C125.978 44.9459 125.994 44.7998 126.023 44.6559L126.397 42.8543H125.881L126.002 42.2578L126.559 42.2176L126.853 41.229H127.527L127.336 42.2176H128.218L128.092 42.8473H127.191L126.815 44.6883C126.801 44.7728 126.794 44.8584 126.794 44.9441C126.794 45.2175 126.914 45.3511 127.214 45.3511C127.334 45.3462 127.451 45.3123 127.554 45.2524L127.711 45.8236C127.463 45.9298 127.196 45.9856 126.925 45.9878C126.801 46.0064 126.674 45.9965 126.554 45.959C126.434 45.9214 126.324 45.8571 126.233 45.7709C126.141 45.6847 126.071 45.5789 126.026 45.4614C125.981 45.3439 125.964 45.2178 125.975 45.0926Z" fill="black"/>
<path d="M129.301 40.6079H130.103L129.784 42.1703L129.639 42.7039H129.669C129.99 42.3731 130.42 42.1697 130.88 42.131C131.491 42.131 131.753 42.4733 131.753 43.0628C131.754 43.2367 131.733 43.41 131.692 43.579L131.229 45.9011H130.424L130.871 43.6803C130.904 43.5531 130.924 43.4229 130.93 43.2916C130.938 43.2292 130.931 43.1657 130.911 43.106C130.891 43.0463 130.858 42.9919 130.814 42.9468C130.77 42.9017 130.717 42.867 130.657 42.8454C130.598 42.8238 130.535 42.8157 130.472 42.8218C130.21 42.8218 129.926 42.9965 129.538 43.3903L129.043 45.9099H128.238L129.301 40.6079Z" fill="black"/>
<path d="M134.324 42.1304C135.178 42.1304 135.495 42.7268 135.495 43.4884C135.489 43.7557 135.435 44.0197 135.334 44.2674H133.095C133.018 45.0438 133.445 45.3739 134.006 45.3739C134.279 45.3535 134.539 45.2536 134.756 45.0866L135.05 45.6027C134.68 45.8581 134.24 45.9938 133.791 45.9914C133.587 46.0015 133.384 45.9674 133.195 45.8915C133.006 45.8155 132.836 45.6995 132.696 45.5514C132.557 45.4033 132.451 45.2266 132.386 45.0336C132.321 44.8406 132.299 44.6358 132.321 44.4333C132.291 43.8645 132.483 43.3063 132.856 42.8765C133.23 42.4468 133.757 42.1792 134.324 42.1304ZM134.792 43.7591C134.816 43.6521 134.828 43.5429 134.828 43.4334C134.828 43.0788 134.675 42.7574 134.23 42.7574C133.968 42.7865 133.723 42.8999 133.531 43.0806C133.34 43.2614 133.212 43.4995 133.168 43.7591H134.792Z" fill="black"/>
<path d="M138.417 41.001H139.887C140.827 41.001 141.497 41.3555 141.497 42.2603C141.497 43.5476 140.536 44.0786 139.293 44.0786H138.613L138.252 45.9126H137.441L138.417 41.001ZM139.356 43.4236C140.223 43.4236 140.691 43.0603 140.691 42.3756C140.691 41.8717 140.349 41.6551 139.73 41.6551H139.101L138.751 43.4332L139.356 43.4236Z" fill="black"/>
<path d="M141.559 44.4882C141.521 43.9083 141.712 43.3366 142.091 42.8958C142.47 42.455 143.006 42.1802 143.585 42.1303C143.778 42.1257 143.969 42.1624 144.146 42.2378C144.323 42.3133 144.482 42.4258 144.612 42.5677C144.742 42.7097 144.84 42.8778 144.9 43.0609C144.96 43.2439 144.979 43.4376 144.958 43.6289C144.996 44.2089 144.805 44.7807 144.426 45.2215C144.048 45.6624 143.511 45.9372 142.932 45.9869C142.74 45.9914 142.548 45.9547 142.371 45.8793C142.194 45.8038 142.035 45.6914 141.905 45.5494C141.775 45.4075 141.677 45.2393 141.617 45.0563C141.558 44.8733 141.538 44.6796 141.559 44.4882ZM144.146 43.6481C144.146 43.0935 143.922 42.7748 143.5 42.7748C142.914 42.7748 142.372 43.5136 142.372 44.4542C142.372 45.0105 142.597 45.3275 143.018 45.3275C143.604 45.3275 144.146 44.5904 144.146 43.6498V43.6481Z" fill="black"/>
<path d="M145.682 42.2202H146.477L146.538 44.1896V45.2376H146.568C146.709 44.883 146.839 44.5276 146.988 44.1896L147.847 42.2202H148.578L148.672 44.1896C148.682 44.5389 148.672 44.8926 148.687 45.2376H148.716C148.857 44.883 148.978 44.5319 149.122 44.1896L149.943 42.2202H150.692L149.074 45.9004H148.113L148.047 44.1302V43.0473H148.016C147.871 43.4228 147.743 43.7844 147.596 44.1302L146.841 45.9004H145.906L145.682 42.2202Z" fill="black"/>
<path d="M152.87 42.1304C153.724 42.1304 154.044 42.7268 154.044 43.4884C154.038 43.7559 153.982 44.0199 153.881 44.2674H151.642C151.565 45.0438 151.992 45.3739 152.553 45.3739C152.826 45.3535 153.086 45.2536 153.302 45.0866L153.597 45.6027C153.227 45.8582 152.787 45.9938 152.337 45.9914C152.134 46.0015 151.931 45.9674 151.742 45.8915C151.553 45.8155 151.383 45.6995 151.243 45.5514C151.103 45.4033 150.997 45.2266 150.933 45.0336C150.868 44.8406 150.846 44.6358 150.868 44.4333C150.837 43.8647 151.029 43.3065 151.403 42.8768C151.777 42.4471 152.303 42.1794 152.87 42.1304ZM153.338 43.7591C153.362 43.6521 153.374 43.5429 153.374 43.4334C153.374 43.0788 153.221 42.7574 152.776 42.7574C152.514 42.7868 152.269 42.9003 152.078 43.081C151.886 43.2616 151.758 43.4996 151.714 43.7591H153.338Z" fill="black"/>
<path d="M155.173 42.22H155.829L155.764 42.9318H155.794C155.903 42.7157 156.064 42.5296 156.262 42.3899C156.46 42.2502 156.689 42.161 156.929 42.1301C157.056 42.1249 157.182 42.1485 157.298 42.1991L157.029 42.9065C156.922 42.8596 156.804 42.8387 156.687 42.8454C156.343 42.8454 155.988 43.1187 155.685 43.6855L155.257 45.9003H154.453L155.173 42.22Z" fill="black"/>
<path d="M158.71 44.4882C158.672 43.9083 158.863 43.3366 159.241 42.8958C159.62 42.455 160.157 42.1802 160.736 42.1303C160.928 42.1257 161.119 42.1624 161.296 42.2378C161.474 42.3133 161.632 42.4258 161.762 42.5677C161.893 42.7097 161.991 42.8778 162.05 43.0609C162.11 43.2439 162.13 43.4376 162.109 43.6289C162.147 44.2089 161.956 44.7807 161.577 45.2215C161.198 45.6624 160.662 45.9372 160.082 45.9869C159.89 45.9914 159.699 45.9547 159.522 45.8793C159.345 45.8038 159.186 45.6914 159.056 45.5494C158.926 45.4075 158.827 45.2393 158.768 45.0563C158.708 44.8733 158.688 44.6796 158.71 44.4882ZM161.296 43.6481C161.296 43.0935 161.072 42.7748 160.65 42.7748C160.067 42.7748 159.523 43.5136 159.523 44.4542C159.523 45.0105 159.747 45.3275 160.169 45.3275C160.755 45.3275 161.296 44.5904 161.296 43.6498V43.6481Z" fill="black"/>
<path d="M162.936 42.2606L163.425 42.2204L163.504 41.8003C163.655 41.051 164.069 40.52 164.804 40.52C165.057 40.5199 165.306 40.5865 165.526 40.713L165.26 41.2816C165.145 41.209 165.014 41.1683 164.878 41.1637C164.576 41.1637 164.391 41.3567 164.31 41.775L164.222 42.2239H164.913L164.787 42.8536H164.089L163.486 45.898H162.682L163.293 42.8536H162.814L162.936 42.2606Z" fill="black"/>
<path d="M166.201 45.2854L168.871 41.8795H166.95L167.118 41.0166H170.267L170.138 41.634L167.495 45.04H169.614L169.433 45.9011H166.072L166.201 45.2854Z" fill="black"/>
<path d="M171.228 41.0176H174.125L173.957 41.8804H172.068L171.858 42.9284H173.454L173.286 43.7913H171.693L171.431 45.0296H173.375L173.207 45.8908H170.252L171.228 41.0176Z" fill="black"/>
<path d="M175.179 41.0176H176.711C177.672 41.0176 178.391 41.3573 178.391 42.2664C178.391 43.5467 177.343 44.11 176.207 44.11H175.588L175.234 45.9012H174.211L175.179 41.0176ZM176.27 43.2978C176.997 43.2978 177.366 42.9485 177.366 42.4184C177.366 42.0088 177.079 41.8306 176.551 41.8306H176.037L175.752 43.3005L176.27 43.2978ZM176.1 43.8734L176.841 43.214L177.889 45.9012H176.813L176.1 43.8734Z" fill="black"/>
<path d="M178.882 43.9233C178.817 43.1971 179.042 42.4747 179.507 41.9132C179.972 41.3518 180.64 40.9967 181.366 40.9252C181.628 40.9197 181.889 40.9714 182.129 41.0766C182.37 41.1817 182.585 41.3379 182.76 41.5343C182.934 41.7307 183.064 41.9627 183.14 42.2141C183.216 42.4656 183.236 42.7305 183.2 42.9906C183.265 43.7169 183.04 44.4394 182.575 45.0009C182.11 45.5625 181.441 45.9175 180.716 45.9888C180.454 45.993 180.193 45.9406 179.953 45.835C179.713 45.7295 179.499 45.5733 179.325 45.3771C179.15 45.181 179.021 44.9496 178.944 44.6986C178.868 44.4477 178.847 44.1832 178.882 43.9233ZM182.149 43.0587C182.149 42.2841 181.855 41.8116 181.309 41.8116C180.616 41.8116 179.93 42.7251 179.93 43.8561C179.93 44.6325 180.224 45.1032 180.77 45.1032C181.469 45.1032 182.149 44.1897 182.149 43.0587Z" fill="black"/>
<path d="M85.854 42.0235C85.33 42.4026 84.806 42.7641 84.2419 43.1108C83.2993 43.2343 82.3498 43.2962 81.3992 43.296C75.9537 43.286 70.7119 41.2245 66.7186 37.5223C62.7252 33.8201 60.2735 28.7491 59.8521 23.3199C59.4307 17.8908 61.0705 12.5022 64.4448 8.22812C67.8191 3.95405 72.68 1.1084 78.0587 0.258301H78.0334C75.1265 2.10387 72.7385 4.66048 71.0953 7.68631C69.452 10.7121 68.6078 14.1071 68.6425 17.5502V17.5694C68.0786 19.3291 67.8849 21.1865 68.0735 23.0247C68.2622 24.8629 68.8291 26.6421 69.7387 28.2506C70.6482 29.8591 71.8808 31.262 73.3587 32.3711C74.8367 33.4802 76.5282 34.2715 78.3268 34.6953C80.1254 35.119 81.9922 35.1661 83.8099 34.8334C85.6276 34.5008 87.3567 33.7957 88.8887 32.7625C90.4207 31.7292 91.7223 30.3902 92.7117 28.8295C93.7012 27.2689 94.357 25.5204 94.638 23.6941C94.6546 23.8443 96.4143 34.3478 85.854 42.0235Z" fill="url(#paint0_linear_819_43198)"/>
<path d="M103.028 21.6488C103.03 26.8915 101.128 31.9566 97.6761 35.9026C94.2242 39.8486 89.457 42.407 84.2606 43.1021C84.8274 42.7467 85.3627 42.3825 85.8727 42.0148C96.433 34.34 94.6733 23.8365 94.6506 23.702C94.7552 23.0205 94.8077 22.3321 94.8078 21.6427C94.8141 18.4452 93.6758 15.351 91.5988 12.9199C89.5217 10.4889 86.6431 8.88156 83.4838 8.38876C80.3245 7.89596 77.0931 8.55023 74.3743 10.2332C71.6556 11.9162 69.629 14.5167 68.6612 17.5642C68.6264 14.1209 69.4707 10.7257 71.1141 7.69969C72.7576 4.67369 75.1458 2.11699 78.053 0.271444H78.0783C81.1651 -0.223288 84.3226 -0.0401972 87.3316 0.808003C90.3405 1.6562 93.1287 3.14918 95.5027 5.18327C97.8767 7.21735 99.7794 9.74379 101.079 12.5871C102.378 15.4305 103.043 18.5226 103.028 21.6488Z" fill="url(#paint1_linear_819_43198)"/>
</g>
<defs>
<linearGradient id="paint0_linear_819_43198" x1="60.8013" y1="3.18486" x2="99.2719" y2="38.4088" gradientUnits="userSpaceOnUse">
<stop offset="0.03" stop-color="#4C1A72"/>
<stop offset="1" stop-color="#C31F5D"/>
</linearGradient>
<linearGradient id="paint1_linear_819_43198" x1="68.6602" y1="21.5511" x2="103.028" y2="21.5511" gradientUnits="userSpaceOnUse">
<stop offset="0.02" stop-color="#4C1A88"/>
<stop offset="0.17" stop-color="#511A86"/>
<stop offset="0.36" stop-color="#611B80"/>
<stop offset="0.58" stop-color="#7B1C77"/>
<stop offset="0.81" stop-color="#9F1D6A"/>
<stop offset="1" stop-color="#C31F5D"/>
</linearGradient>
<clipPath id="clip0_819_43198">
<rect width="183.399" height="46" fill="white"/>
</clipPath>
</defs>
</svg>
